999
DXF file: ig_001_p_002.dxf
999
Pro/ENGINEER 2015280 by Parametric Technology Corporation
  0
SECTION
  2
HEADER
  9
$ACADVER
  1
AC1021
  9
$DWGCODEPAGE
  3
ANSI_1252
  9
$EXTMAX
 10
210.0
 20
297.0
 30
0.0
  9
$EXTMIN
 10
0.0
 20
0.0
 30
0.0
  9
$LIMMIN
 10
0.0
 20
0.0
  9
$LIMMAX
 10
210.0
 20
297.0
  9
$VIEWCTR
 10
105.0
 20
148.5
  9
$VIEWSIZE
 40
297.0
  9
$CLAYER
  8
0
  9
$LTSCALE
 40
19.36
  9
$CELTYPE
  6
BYLAYER
  9
$DIMSCALE
 40
1.0
  9
$DIMASZ
 40
3.0
  9
$DIMEXO
 40
2.0
  9
$DIMDLI
 40
13.376
  9
$DIMEXE
 40
2.0
  9
$DIMCEN
 40
3.168
  9
$DIMLFAC
 40
1.0
  9
$DIMBLK
  1
_FILLED
  9
$DIMALT
 70
0
  9
$DIMALTF
 40
0.0393700787
  9
$DIMTXT
 40
3.0
  9
$DIMTOL
 70
1
  9
$DIMLIM
 70
0
  9
$DIMTFAC
 40
1.0
  9
$DIMTP
 40
0.01
  9
$DIMTM
 40
0.01
  9
$DIMGAP
 40
0.625
  9
$DIMDSEP
 70
46
  9
$AUNITS
 70
0
  9
$PDMODE
 70
3
  9
$PDSIZE
 40
0.3125
  9
$HANDSEED
  5
4AE
  9
$TILEMODE
 70
1
  9
$MEASUREMENT
 70
1
  9
$INSUNITS
 70
4
  0
ENDSEC
  0
SECTION
  2
CLASSES
  0
CLASS
  1
ACDBDICTIONARYWDFLT
  2
AcDbDictionaryWithDefault
  3
AutoCAD 2000
 90
0
 91
1
280
0
281
0
  0
CLASS
  1
ACDBPLACEHOLDER
  2
AcDbPlaceHolder
  3
AutoCAD 2000
 90
0
 91
1
280
0
281
0
  0
CLASS
  1
LAYOUT
  2
AcDbLayout
  3
AutoCAD 2000
 90
0
 91
0
280
0
281
0
  0
CLASS
  1
TABLESTYLE
  2
AcDbTableStyle
  3
ObjectDBX Classes
 90
2047
 91
1
280
0
281
0
  0
CLASS
  1
ACAD_TABLE
  2
AcDbTable
  3
ObjectDBX Classes
 90
1025
 91
1
280
0
281
1
  0
ENDSEC
  0
SECTION
  2
TABLES
  0
TABLE
  2
VPORT
  5
8
100
AcDbSymbolTable
 70
2
  0
VPORT
  5
1F4
100
AcDbSymbolTableRecord
100
AcDbViewportTableRecord
  2
*ACTIVE
 70
0
 10
0.0
 20
0.0
 11
1.0
 21
1.0
 12
105.0
 22
148.5
 13
0.0
 23
0.0
 14
1.0
 24
1.0
 15
0.0
 25
0.0
 16
0.0
 26
0.0
 36
1.0
 17
0.0
 27
0.0
 37
0.0
 40
297.0
 41
0.7070707071
 42
50.0
 43
0.0
 44
0.0
 50
0.0
 51
0.0
 71
0
 72
100
 73
1
 74
1
 75
0
 76
0
 77
0
 78
0
  0
ENDTAB
  0
TABLE
  2
LTYPE
  5
5
100
AcDbSymbolTable
 70
6
  0
LTYPE
  5
14
100
AcDbSymbolTableRecord
100
AcDbLinetypeTableRecord
  2
BYBLOCK
 70
0
  3

 72
65
 73
0
 40
0.0
  0
LTYPE
  5
15
100
AcDbSymbolTableRecord
100
AcDbLinetypeTableRecord
  2
BYLAYER
 70
0
  3

 72
65
 73
0
 40
0.0
  0
LTYPE
  5
16
100
AcDbSymbolTableRecord
100
AcDbLinetypeTableRecord
  2
CONTINUOUS
 70
64
  3
Solid line
 72
65
 73
0
 40
0.0
  0
LTYPE
  5
1F5
100
AcDbSymbolTableRecord
100
AcDbLinetypeTableRecord
  2
CENTER
 70
64
  3
____ _ ____ _ ____ _ ____ _ ____ _ ____ _ ____
 72
65
 73
4
 40
0.6
 49
0.375
 74
0
 49
-0.075
 74
0
 49
0.075
 74
0
 49
-0.075
 74
0
  0
LTYPE
  5
1F6
100
AcDbSymbolTableRecord
100
AcDbLinetypeTableRecord
  2
HIDDEN
 70
64
  3
- - - - - - - - - - - - - - - - - - - -
 72
65
 73
2
 40
0.2
 49
0.1
 74
0
 49
-0.1
 74
0
  0
LTYPE
  5
1F7
100
AcDbSymbolTableRecord
100
AcDbLinetypeTableRecord
  2
PHANTOM
 70
64
  3
_____ _ _ _____ _ _ _____ _ _ _____
 72
65
 73
6
 40
0.8
 49
0.45
 74
0
 49
-0.05
 74
0
 49
0.1
 74
0
 49
-0.05
 74
0
 49
0.1
 74
0
 49
-0.05
 74
0
  0
LTYPE
  5
1F8
100
AcDbSymbolTableRecord
100
AcDbLinetypeTableRecord
  2
DOT
 70
64
  3
. . . . . . . . . . . . . . . . . . . .
 72
65
 73
2
 40
0.2
 49
0.1
 74
0
 49
-0.1
 74
0
  0
LTYPE
  5
1F9
100
AcDbSymbolTableRecord
100
AcDbLinetypeTableRecord
  2
DASHED
 70
64
  3
- - - - - - - - - - - - - - - - - - - -
 72
65
 73
2
 40
0.2
 49
0.1
 74
0
 49
-0.1
 74
0
  0
ENDTAB
  0
TABLE
  2
LAYER
  5
2
100
AcDbSymbolTable
 70
36
  0
LAYER
  5
10
100
AcDbSymbolTableRecord
100
AcDbLayerTableRecord
  2
0
 70
0
 62
7
  6
CONTINUOUS
370
-3
390
F
  0
LAYER
  5
1FA
100
AcDbSymbolTableRecord
100
AcDbLayerTableRecord
  2
DEFAULT_1
 70
0
 62
7
  6
CENTER
370
-3
390
F
  0
LAYER
  5
1FB
100
AcDbSymbolTableRecord
100
AcDbLayerTableRecord
  2
DEFAULT_2
 70
0
 62
8
  6
HIDDEN
370
-3
390
F
  0
LAYER
  5
1FC
100
AcDbSymbolTableRecord
100
AcDbLayerTableRecord
  2
DEFAULT_3
 70
0
 62
7
  6
PHANTOM
370
-3
390
F
  0
LAYER
  5
1FD
100
AcDbSymbolTableRecord
100
AcDbLayerTableRecord
  2
01___PRT_ALL_DTM_PLN
 70
0
 62
7
  6
CONTINUOUS
370
-3
390
F
  0
LAYER
  5
1FE
100
AcDbSymbolTableRecord
100
AcDbLayerTableRecord
  2
01___PRT_DEF_DTM_PLN
 70
0
 62
7
  6
CONTINUOUS
370
-3
390
F
  0
LAYER
  5
1FF
100
AcDbSymbolTableRecord
100
AcDbLayerTableRecord
  2
02___PRT_ALL_AXES
 70
0
 62
7
  6
CONTINUOUS
370
-3
390
F
  0
LAYER
  5
200
100
AcDbSymbolTableRecord
100
AcDbLayerTableRecord
  2
03___PRT_ALL_CURVES
 70
0
 62
7
  6
CONTINUOUS
370
-3
390
F
  0
LAYER
  5
201
100
AcDbSymbolTableRecord
100
AcDbLayerTableRecord
  2
04___PRT_ALL_DTM_PNT
 70
0
 62
7
  6
CONTINUOUS
370
-3
390
F
  0
LAYER
  5
202
100
AcDbSymbolTableRecord
100
AcDbLayerTableRecord
  2
05___PRT_ALL_DTM_CSYS
 70
0
 62
7
  6
CONTINUOUS
370
-3
390
F
  0
LAYER
  5
203
100
AcDbSymbolTableRecord
100
AcDbLayerTableRecord
  2
05___PRT_DEF_DTM_CSYS
 70
0
 62
7
  6
CONTINUOUS
370
-3
390
F
  0
LAYER
  5
204
100
AcDbSymbolTableRecord
100
AcDbLayerTableRecord
  2
06___PRT_ALL_SURFS
 70
0
 62
7
  6
CONTINUOUS
370
-3
390
F
  0
LAYER
  5
205
100
AcDbSymbolTableRecord
100
AcDbLayerTableRecord
  2
3_ALL_AXES
 70
0
 62
7
  6
CONTINUOUS
370
-3
390
F
  0
LAYER
  5
206
100
AcDbSymbolTableRecord
100
AcDbLayerTableRecord
  2
5_ALL_CURVES
 70
0
 62
7
  6
CONTINUOUS
370
-3
390
F
  0
LAYER
  5
207
100
AcDbSymbolTableRecord
100
AcDbLayerTableRecord
  2
7_ALL_FEATURES
 70
0
 62
7
  6
CONTINUOUS
370
-3
390
F
  0
LAYER
  5
208
100
AcDbSymbolTableRecord
100
AcDbLayerTableRecord
  2
9_ALL_THREAD
 70
0
 62
7
  6
CONTINUOUS
370
-3
390
F
  0
LAYER
  5
209
100
AcDbSymbolTableRecord
100
AcDbLayerTableRecord
  2
NOTE
 70
0
 62
7
  6
CONTINUOUS
370
-3
390
F
  0
ENDTAB
  0
TABLE
  2
STYLE
  5
3
100
AcDbSymbolTable
 70
1
  0
STYLE
  5
11
100
AcDbSymbolTableRecord
100
AcDbTextStyleTableRecord
  2
STANDARD
 70
0
 40
0.0
 41
0.8
 50
0.0
 71
0
 42
0.2
  3
txt
  4

  0
STYLE
  5
20A
100
AcDbSymbolTableRecord
100
AcDbTextStyleTableRecord
  2
TEXTSTYLE_1
 70
0
 40
0.0
 41
0.8
 50
0.0
 71
0
 42
0.2
  3
gdt
  4

  0
STYLE
  5
20B
100
AcDbSymbolTableRecord
100
AcDbTextStyleTableRecord
  2
TEXTSTYLE_2
 70
0
 40
0.0
 41
0.8
 50
0.0
 71
0
 42
0.2
  3
txt
  4

  0
STYLE
  5
20C
100
AcDbSymbolTableRecord
100
AcDbTextStyleTableRecord
  2
TEXTSTYLE_3
 70
0
 40
0.0
 41
0.75
 50
0.0
 71
0
 42
0.2
  3
txt
  4

  0
STYLE
  5
20D
100
AcDbSymbolTableRecord
100
AcDbTextStyleTableRecord
  2
TEXTSTYLE_4
 70
0
 40
0.0
 41
0.77
 50
0.0
 71
0
 42
0.2
  3
txt
  4

  0
STYLE
  5
20E
100
AcDbSymbolTableRecord
100
AcDbTextStyleTableRecord
  2
TEXTSTYLE_5
 70
0
 40
0.0
 41
0.6
 50
0.0
 71
0
 42
0.2
  3
txt
  4

  0
STYLE
  5
20F
100
AcDbSymbolTableRecord
100
AcDbTextStyleTableRecord
  2
TEXTSTYLE_6
 70
0
 40
0.0
 41
0.65
 50
0.0
 71
0
 42
0.2
  3
txt
  4

  0
STYLE
  5
210
100
AcDbSymbolTableRecord
100
AcDbTextStyleTableRecord
  2
TEXTSTYLE_7
 70
0
 40
0.0
 41
0.7
 50
0.0
 71
0
 42
0.2
  3
txt
  4

  0
ENDTAB
  0
TABLE
  2
VIEW
  5
6
100
AcDbSymbolTable
 70
0
  0
ENDTAB
  0
TABLE
  2
UCS
  5
7
100
AcDbSymbolTable
 70
0
  0
ENDTAB
  0
TABLE
  2
APPID
  5
9
100
AcDbSymbolTable
 70
1
  0
APPID
  5
211
100
AcDbSymbolTableRecord
100
AcDbRegAppTableRecord
  2
ACAD
 70
0
  0
ENDTAB
  0
TABLE
  2
BLOCK_RECORD
  5
1
100
AcDbSymbolTable
 70
0
  0
BLOCK_RECORD
  5
212
100
AcDbSymbolTableRecord
100
AcDbBlockTableRecord
  2
*Model_Space
  0
BLOCK_RECORD
  5
213
100
AcDbSymbolTableRecord
100
AcDbBlockTableRecord
  2
*Paper_Space
  0
BLOCK_RECORD
  5
214
100
AcDbSymbolTableRecord
100
AcDbBlockTableRecord
  2
_FILLED
  0
BLOCK_RECORD
  5
215
100
AcDbSymbolTableRecord
100
AcDbBlockTableRecord
  2
*D0
  0
BLOCK_RECORD
  5
216
100
AcDbSymbolTableRecord
100
AcDbBlockTableRecord
  2
*D1
  0
BLOCK_RECORD
  5
217
100
AcDbSymbolTableRecord
100
AcDbBlockTableRecord
  2
*D2
  0
BLOCK_RECORD
  5
218
100
AcDbSymbolTableRecord
100
AcDbBlockTableRecord
  2
*D3
  0
BLOCK_RECORD
  5
219
100
AcDbSymbolTableRecord
100
AcDbBlockTableRecord
  2
*D4
  0
BLOCK_RECORD
  5
21A
100
AcDbSymbolTableRecord
100
AcDbBlockTableRecord
  2
*D5
  0
BLOCK_RECORD
  5
21B
100
AcDbSymbolTableRecord
100
AcDbBlockTableRecord
  2
*D6
  0
BLOCK_RECORD
  5
21C
100
AcDbSymbolTableRecord
100
AcDbBlockTableRecord
  2
*D7
  0
BLOCK_RECORD
  5
21D
100
AcDbSymbolTableRecord
100
AcDbBlockTableRecord
  2
ROUGHNESS_BL2
  0
BLOCK_RECORD
  5
21E
100
AcDbSymbolTableRecord
100
AcDbBlockTableRecord
  2
PROJECTION_EUR_BL1
  0
BLOCK_RECORD
  5
21F
100
AcDbSymbolTableRecord
100
AcDbBlockTableRecord
  2
HEAD_LOGO_BL0
  0
BLOCK_RECORD
  5
220
100
AcDbSymbolTableRecord
100
AcDbBlockTableRecord
  2
*T1
  0
ENDTAB
  0
TABLE
  2
DIMSTYLE
  5
A
100
AcDbSymbolTable
 70
1
100
AcDbDimStyleTable
 71
0
  0
DIMSTYLE
105
221
100
AcDbSymbolTableRecord
100
AcDbDimStyleTableRecord
  2
STANDARD
 70
0
  3

  4

 40
1.0
 41
3.0
 42
2.0
 43
0.38
 44
2.0
 45
0.0
 46
0.0
 47
0.01
 48
0.01
140
3.0
141
0.09
142
0.0
143
25.4
144
1.0
145
0.0
146
1.0
147
0.625
 71
1.0
 72
0.0
 73
0
 74
0
 75
0
 76
0
 77
1
 78
8
170
0
171
2
172
0
173
0
174
0
175
0
176
0
177
0
178
0
270
2
271
2
272
2
273
2
274
2
275
0
280
0
281
0
282
0
283
1
284
8
285
0
286
0
287
3
288
0
340
11
278
46
341
214
342
214
343
214
344
214
  0
DIMSTYLE
105
222
100
AcDbSymbolTableRecord
100
AcDbDimStyleTableRecord
  2
DIMSTYLE_1
 70
0
  3
<>
  4

 40
1.0
 41
3.0
 42
2.0
 43
0.38
 44
2.0
 45
0.0
 46
0.0
 47
0.3
 48
0.3
140
3.0
141
0.09
142
0.0
143
25.4
144
1.0
145
0.0
146
1.0
147
0.625
 71
0.0
 72
0.0
 73
0
 74
0
 75
0
 76
0
 77
1
 78
8
170
0
171
2
172
1
173
0
174
0
175
0
176
0
177
0
178
0
270
2
271
3
272
3
273
2
274
2
275
0
280
0
281
0
282
0
283
1
284
8
285
0
286
0
287
3
288
1
340
11
278
46
289
2
341
214
342
214
343
214
344
214
  0
DIMSTYLE
105
223
100
AcDbSymbolTableRecord
100
AcDbDimStyleTableRecord
  2
DIMSTYLE_2
 70
0
  3

  4

 40
1.0
 41
3.0
 42
2.0
 43
0.38
 44
2.0
 45
0.0
 46
0.0
 47
0.2
 48
0.2
140
3.0
141
0.09
142
0.0
143
25.4
144
1.0
145
0.0
146
1.0
147
0.75
 71
0.0
 72
0.0
 73
0
 74
0
 75
0
 76
0
 77
1
 78
8
170
0
171
2
172
0
173
0
174
0
175
0
176
0
177
0
178
0
270
2
271
3
272
3
273
2
274
2
275
0
280
0
281
0
282
0
283
1
284
8
285
0
286
0
287
3
288
0
340
11
278
46
341
214
342
214
343
214
344
214
  0
DIMSTYLE
105
224
100
AcDbSymbolTableRecord
100
AcDbDimStyleTableRecord
  2
DIMSTYLE_3
 70
0
  3

  4

 40
1.0
 41
3.0
 42
2.0
 43
0.38
 44
2.0
 45
0.0
 46
0.0
 47
0.5
 48
0.5
140
3.0
141
0.09
142
0.0
143
25.4
144
1.0
145
0.0
146
1.0
147
1.5
 71
0.0
 72
0.0
 73
1
 74
1
 75
0
 76
0
 77
0
 78
8
170
0
171
2
172
0
173
0
174
0
175
0
176
0
177
0
178
0
270
2
271
2
272
2
273
2
274
2
275
0
280
0
281
0
282
0
283
1
284
8
285
0
286
0
287
3
288
0
340
11
278
46
341
214
342
214
343
214
344
214
  0
DIMSTYLE
105
225
100
AcDbSymbolTableRecord
100
AcDbDimStyleTableRecord
  2
DIMSTYLE_4
 70
0
  3
<>
  4

 40
1.0
 41
3.0
 42
2.0
 43
0.38
 44
2.0
 45
0.0
 46
0.0
 47
0.1
 48
0.1
140
3.0
141
0.09
142
0.0
143
25.4
144
1.0
145
0.0
146
1.0
147
0.625
 71
0.0
 72
0.0
 73
0
 74
0
 75
0
 76
0
 77
1
 78
8
170
0
171
2
172
1
173
0
174
0
175
0
176
0
177
0
178
0
270
2
271
3
272
3
273
2
274
2
275
0
280
0
281
0
282
0
283
1
284
8
285
0
286
0
287
3
288
1
340
11
278
46
289
2
341
214
342
214
343
214
344
214
  0
ENDTAB
  0
ENDSEC
  0
SECTION
  2
BLOCKS
  0
BLOCK
  5
20
100
AcDbEntity
  8
0
100
AcDbBlockBegin
  2
*Model_Space
 70
0
 10
0.0
 20
0.0
 30
0.0
  3
*Model_Space
  1

  0
ENDBLK
  5
21
100
AcDbEntity
  8
0
100
AcDbBlockEnd
  0
BLOCK
  5
1C
100
AcDbEntity
  8
0
100
AcDbBlockBegin
  2
*Paper_Space
 70
0
 10
0.0
 20
0.0
 30
0.0
  3
*Paper_Space
  1

  0
ENDBLK
  5
1D
100
AcDbEntity
  8
0
100
AcDbBlockEnd
  0
BLOCK
  5
226
100
AcDbEntity
  8
0
100
AcDbBlockBegin
 62
2
  6
CONTINUOUS
  2
ROUGHNESS_BL2
 70
64
 10
184.850728111
 20
44.2684134612
  3
ROUGHNESS_BL2
  1

  0
LINE
  5
227
100
AcDbEntity
  8
0
100
AcDbLine
 62
7
  6
CONTINUOUS
 10
187.4454392944
 20
47.268765895
 11
185.7058445198
 21
44.255699361
  0
LINE
  5
228
100
AcDbEntity
  8
0
100
AcDbLine
 62
7
  6
CONTINUOUS
 10
183.9809307238
 20
41.2680610275
 11
182.2560169277
 21
44.255699361
  0
LINE
  5
229
100
AcDbEntity
  8
0
100
AcDbLine
 62
7
  6
CONTINUOUS
 10
185.7058445198
 20
44.255699361
 11
183.9809307238
 21
41.2680610275
  0
ENDBLK
  5
22A
100
AcDbEntity
  8
0
  6
BYBLOCK
 62
0
100
AcDbBlockEnd
  0
BLOCK
  5
22B
100
AcDbEntity
  8
0
100
AcDbBlockBegin
 62
2
  6
CONTINUOUS
  2
PROJECTION_EUR_BL1
 70
64
 10
31.0
 20
35.0
  3
PROJECTION_EUR_BL1
  1

  0
LWPOLYLINE
  5
22C
100
AcDbEntity
  8
DEFAULT_1
100
AcDbPolyline
 62
7
  6
CENTER
 90
2
 70
0
 43
0.0133333333
 10
24.7439829147
 20
35.0
 10
37.2560170853
 20
35.0
  0
LWPOLYLINE
  5
22D
100
AcDbEntity
  8
DEFAULT_1
100
AcDbPolyline
 62
7
  6
CENTER
 90
2
 70
0
 43
0.0133333333
 10
34.7560170853
 20
37.5
 10
34.7560170853
 20
32.5
  0
LWPOLYLINE
  5
22E
100
AcDbEntity
  8
0
100
AcDbPolyline
 62
7
  6
CONTINUOUS
 90
2
 70
1
 43
0.0133333333
 10
32.7560170853
 20
35.0
 42
1.0
 10
36.7560170853
 20
35.0
 42
1.0
  0
LWPOLYLINE
  5
22F
100
AcDbEntity
  8
0
100
AcDbPolyline
 62
7
  6
CONTINUOUS
 90
2
 70
1
 43
0.0133333333
 10
33.4932755321
 20
34.9924459791
 42
1.0
 10
35.9932755321
 20
34.9924459791
 42
1.0
  0
LWPOLYLINE
  5
230
100
AcDbEntity
  8
0
100
AcDbPolyline
 62
7
  6
CONTINUOUS
 90
2
 70
0
 43
0.0133333333
 10
31.2439829147
 20
36.9898570081
 10
31.2439829147
 20
32.9913910051
  0
LWPOLYLINE
  5
231
100
AcDbEntity
  8
0
100
AcDbPolyline
 62
7
  6
CONTINUOUS
 90
2
 70
0
 43
0.0133333333
 10
25.2439829147
 20
36.2130712938
 10
25.2439829147
 20
33.757916364
  0
LWPOLYLINE
  5
232
100
AcDbEntity
  8
0
100
AcDbPolyline
 62
7
  6
CONTINUOUS
 90
2
 70
0
 43
0.0133333333
 10
25.2393339395
 20
36.2124694176
 10
31.2439829147
 20
36.9898570081
  0
LWPOLYLINE
  5
233
100
AcDbEntity
  8
0
100
AcDbPolyline
 62
7
  6
CONTINUOUS
 90
2
 70
0
 43
0.0133333333
 10
25.2393339395
 20
33.741972127
 10
31.2439829147
 20
32.9913910051
  0
ENDBLK
  5
234
100
AcDbEntity
  8
0
  6
BYBLOCK
 62
0
100
AcDbBlockEnd
  0
BLOCK
  5
235
100
AcDbEntity
  8
0
100
AcDbBlockBegin
 62
2
  6
CONTINUOUS
  2
HEAD_LOGO_BL0
 70
64
 10
43.9182032745
 20
19.9624904882
  3
HEAD_LOGO_BL0
  1

  0
TEXT
  5
236
100
AcDbEntity
  8
0
100
AcDbText
 62
5
  6
CONTINUOUS
 10
34.8790526884
 20
13.0645795672
  7
TEXTSTYLE_2
 40
3.6574990702
  1
iCub
 41
0.717472119
 72
0
100
AcDbText
  0
SPLINE
  5
237
100
AcDbEntity
  8
0
100
AcDbSpline
 62
7
  6
CONTINUOUS
 70
0
 71
3
 72
8
 73
4
 74
0
 42
0.0000001
 43
0.0000001
 44
0.0000000001
 40
0.0
 40
0.0
 40
0.0
 40
0.0
 40
1.0
 40
1.0
 40
1.0
 40
1.0
 10
52.7099984244
 20
13.1375128808
 30
0.0
 10
53.3110963324
 20
13.9424083673
 30
0.0
 10
53.139560222
 20
14.4992575899
 30
0.0
 10
52.7662023213
 20
16.1757713266
 30
0.0
  0
SPLINE
  5
238
100
AcDbEntity
  8
0
100
AcDbSpline
 62
7
  6
CONTINUOUS
 70
0
 71
3
 72
8
 73
4
 74
0
 42
0.0000001
 43
0.0000001
 44
0.0000000001
 40
0.0
 40
0.0
 40
0.0
 40
0.0
 40
1.0
 40
1.0
 40
1.0
 40
1.0
 10
52.7662023213
 20
16.1757713266
 30
0.0
 10
52.5798293781
 20
17.0126521398
 30
0.0
 10
53.1130614383
 20
17.4619092963
 30
0.0
 10
52.8738982196
 20
17.8508844457
 30
0.0
  0
SPLINE
  5
239
100
AcDbEntity
  8
0
100
AcDbSpline
 62
7
  6
CONTINUOUS
 70
0
 71
3
 72
8
 73
4
 74
0
 42
0.0000001
 43
0.0000001
 44
0.0000000001
 40
0.0
 40
0.0
 40
0.0
 40
0.0
 40
1.0
 40
1.0
 40
1.0
 40
1.0
 10
52.8738982196
 20
17.8508844457
 30
0.0
 10
52.5781062854
 20
18.3319615046
 30
0.0
 10
51.6565857078
 20
18.393410786
 30
0.0
 10
50.9913072491
 20
19.4013223187
 30
0.0
  0
SPLINE
  5
23A
100
AcDbEntity
  8
0
100
AcDbSpline
 62
7
  6
CONTINUOUS
 70
0
 71
3
 72
8
 73
4
 74
0
 42
0.0000001
 43
0.0000001
 44
0.0000000001
 40
0.0
 40
0.0
 40
0.0
 40
0.0
 40
1.0
 40
1.0
 40
1.0
 40
1.0
 10
50.9913072491
 20
19.4013223187
 30
0.0
 10
50.4507431132
 20
20.2202883642
 30
0.0
 10
50.8785976348
 20
22.4977094638
 30
0.0
 10
49.7545061123
 20
24.259305275
 30
0.0
  0
SPLINE
  5
23B
100
AcDbEntity
  8
0
100
AcDbSpline
 62
7
  6
CONTINUOUS
 70
0
 71
3
 72
8
 73
4
 74
0
 42
0.0000001
 43
0.0000001
 44
0.0000000001
 40
0.0
 40
0.0
 40
0.0
 40
0.0
 40
1.0
 40
1.0
 40
1.0
 40
1.0
 10
49.7545061123
 20
24.259305275
 30
0.0
 10
49.1758223653
 20
25.1661773318
 30
0.0
 10
46.6497085629
 20
31.2537432296
 30
0.0
 10
34.7316199568
 20
25.5577987125
 30
0.0
  0
SPLINE
  5
23C
100
AcDbEntity
  8
0
100
AcDbSpline
 62
7
  6
CONTINUOUS
 70
0
 71
3
 72
8
 73
4
 74
0
 42
0.0000001
 43
0.0000001
 44
0.0000000001
 40
0.0
 40
0.0
 40
0.0
 40
0.0
 40
1.0
 40
1.0
 40
1.0
 40
1.0
 10
34.7316199568
 20
25.5577987125
 30
0.0
 10
34.7316199568
 20
25.5577987125
 30
0.0
 10
40.8534309262
 20
28.0377470285
 30
0.0
 10
43.2216279355
 20
27.7179680065
 30
0.0
  0
SPLINE
  5
23D
100
AcDbEntity
  8
0
100
AcDbSpline
 62
7
  6
CONTINUOUS
 70
0
 71
3
 72
8
 73
4
 74
0
 42
0.0000001
 43
0.0000001
 44
0.0000000001
 40
0.0
 40
0.0
 40
0.0
 40
0.0
 40
1.0
 40
1.0
 40
1.0
 40
1.0
 10
43.2216279355
 20
27.7179680065
 30
0.0
 10
45.0050666446
 20
27.4771490558
 30
0.0
 10
47.4717651966
 20
26.8842094149
 30
0.0
 10
48.4651279468
 20
24.4644299698
 30
0.0
  0
SPLINE
  5
23E
100
AcDbEntity
  8
0
100
AcDbSpline
 62
7
  6
CONTINUOUS
 70
0
 71
3
 72
8
 73
4
 74
0
 42
0.0000001
 43
0.0000001
 44
0.0000000001
 40
0.0
 40
0.0
 40
0.0
 40
0.0
 40
1.0
 40
1.0
 40
1.0
 40
1.0
 10
48.4651279468
 20
24.4644299698
 30
0.0
 10
49.0618922581
 20
23.0107433794
 30
0.0
 10
48.6675284433
 20
19.1203603324
 30
0.0
 10
50.3621895466
 20
18.1298976253
 30
0.0
  0
SPLINE
  5
23F
100
AcDbEntity
  8
0
100
AcDbSpline
 62
7
  6
CONTINUOUS
 70
0
 71
3
 72
8
 73
4
 74
0
 42
0.0000001
 43
0.0000001
 44
0.0000000001
 40
0.0
 40
0.0
 40
0.0
 40
0.0
 40
1.0
 40
1.0
 40
1.0
 40
1.0
 10
50.3621895466
 20
18.1298976253
 30
0.0
 10
51.4222350536
 20
17.5103408543
 30
0.0
 10
51.8723425916
 20
17.0054237102
 30
0.0
 10
52.3548744171
 20
15.6779065813
 30
0.0
  0
SPLINE
  5
240
100
AcDbEntity
  8
0
100
AcDbSpline
 62
7
  6
CONTINUOUS
 70
0
 71
3
 72
8
 73
4
 74
0
 42
0.0000001
 43
0.0000001
 44
0.0000000001
 40
0.0
 40
0.0
 40
0.0
 40
0.0
 40
1.0
 40
1.0
 40
1.0
 40
1.0
 10
52.3548744171
 20
15.6779065813
 30
0.0
 10
52.7864313551
 20
14.490629287
 30
0.0
 10
52.4259931141
 20
13.3667893434
 30
0.0
 10
51.8307217156
 20
12.8784278451
 30
0.0
  0
SPLINE
  5
241
100
AcDbEntity
  8
0
100
AcDbSpline
 62
7
  6
CONTINUOUS
 70
0
 71
3
 72
8
 73
4
 74
0
 42
0.0000001
 43
0.0000001
 44
0.0000000001
 40
0.0
 40
0.0
 40
0.0
 40
0.0
 40
1.0
 40
1.0
 40
1.0
 40
1.0
 10
51.8307217156
 20
12.8784278451
 30
0.0
 10
51.2354488286
 20
12.3900715569
 30
0.0
 10
49.9670896027
 20
11.9617112722
 30
0.0
 10
49.9670896027
 20
11.9617112722
 30
0.0
  0
SPLINE
  5
242
100
AcDbEntity
  8
0
100
AcDbSpline
 62
7
  6
CONTINUOUS
 70
0
 71
3
 72
8
 73
4
 74
0
 42
0.0000001
 43
0.0000001
 44
0.0000000001
 40
0.0
 40
0.0
 40
0.0
 40
0.0
 40
1.0
 40
1.0
 40
1.0
 40
1.0
 10
49.9670896027
 20
11.9617112722
 30
0.0
 10
51.400959883
 20
12.0429277389
 30
0.0
 10
52.1088994
 20
12.3326168361
 30
0.0
 10
52.7099984244
 20
13.1375128808
 30
0.0
  0
LINE
  5
243
100
AcDbEntity
  8
0
100
AcDbLine
 62
2
  6
CONTINUOUS
 10
52.0047395857
 20
12.4655852568
 11
52.7864585288
 21
13.2473041999
  0
LINE
  5
244
100
AcDbEntity
  8
0
100
AcDbLine
 62
2
  6
CONTINUOUS
 10
51.8050222235
 20
12.3520759744
 11
52.9178937702
 21
13.4649475211
  0
LINE
  5
245
100
AcDbEntity
  8
0
100
AcDbLine
 62
2
  6
CONTINUOUS
 10
51.6413511068
 20
12.2746129375
 11
52.990316933
 21
13.6235787637
  0
LINE
  5
246
100
AcDbEntity
  8
0
100
AcDbLine
 62
2
  6
CONTINUOUS
 10
51.5019242491
 20
12.2213941596
 11
53.0374788481
 21
13.7569487586
  0
LINE
  5
247
100
AcDbEntity
  8
0
100
AcDbLine
 62
2
  6
CONTINUOUS
 10
51.3732006343
 20
12.1788786246
 11
53.0650830689
 21
13.8707610593
  0
LINE
  5
248
100
AcDbEntity
  8
0
100
AcDbLine
 62
2
  6
CONTINUOUS
 10
51.24957646
 20
12.1414625302
 11
53.083692797
 21
13.9755788671
  0
LINE
  5
249
100
AcDbEntity
  8
0
100
AcDbLine
 62
2
  6
CONTINUOUS
 10
51.1362151373
 20
12.1143092873
 11
53.097138385
 21
14.075232535
  0
LINE
  5
24A
100
AcDbEntity
  8
0
100
AcDbLine
 62
2
  6
CONTINUOUS
 10
51.0235238869
 20
12.0878261167
 11
51.7590446095
 21
12.8233468393
  0
LINE
  5
24B
100
AcDbEntity
  8
0
100
AcDbLine
 62
2
  6
CONTINUOUS
 10
52.0905828062
 20
13.1548850361
 11
53.1012845853
 21
14.1655868151
  0
LINE
  5
24C
100
AcDbEntity
  8
0
100
AcDbLine
 62
2
  6
CONTINUOUS
 10
50.917813744
 20
12.0683240537
 11
51.4978509155
 21
12.6483612252
  0
LINE
  5
24D
100
AcDbEntity
  8
0
100
AcDbLine
 62
2
  6
CONTINUOUS
 10
52.2491528414
 20
13.399663151
 11
53.1043287677
 21
14.2548390773
  0
LINE
  5
24E
100
AcDbEntity
  8
0
100
AcDbLine
 62
2
  6
CONTINUOUS
 10
50.8121036012
 20
12.0488219907
 11
51.2977225839
 21
12.5344409734
  0
LINE
  5
24F
100
AcDbEntity
  8
0
100
AcDbLine
 62
2
  6
CONTINUOUS
 10
52.3312667059
 20
13.5679850953
 11
53.1016696415
 21
14.338388031
  0
LINE
  5
250
100
AcDbEntity
  8
0
100
AcDbLine
 62
2
  6
CONTINUOUS
 10
50.7111103054
 20
12.0340367747
 11
51.1195604719
 21
12.4424869412
  0
LINE
  5
251
100
AcDbEntity
  8
0
100
AcDbLine
 62
2
  6
CONTINUOUS
 10
52.3879360799
 20
13.7108625492
 11
53.0989663847
 21
14.421892854
  0
LINE
  5
252
100
AcDbEntity
  8
0
100
AcDbLine
 62
2
  6
CONTINUOUS
 10
50.6110303988
 20
12.020164948
 11
50.9529750554
 21
12.3621096045
  0
LINE
  5
253
100
AcDbEntity
  8
0
100
AcDbLine
 62
2
  6
CONTINUOUS
 10
52.429130115
 20
13.8382646641
 11
53.0915230734
 21
14.5006576225
  0
LINE
  5
254
100
AcDbEntity
  8
0
100
AcDbLine
 62
2
  6
CONTINUOUS
 10
50.5121297122
 20
12.0074723411
 11
50.7939911385
 21
12.2893337675
  0
LINE
  5
255
100
AcDbEntity
  8
0
100
AcDbLine
 62
2
  6
CONTINUOUS
 10
52.462841933
 20
13.9581845619
 11
53.0840797622
 21
14.5794223911
  0
LINE
  5
256
100
AcDbEntity
  8
0
100
AcDbLine
 62
2
  6
CONTINUOUS
 10
50.416262394
 20
11.9978131027
 11
50.6405913768
 21
12.2221420855
  0
LINE
  5
257
100
AcDbEntity
  8
0
100
AcDbLine
 62
2
  6
CONTINUOUS
 10
52.4879143605
 20
14.0694650692
 11
53.0747660206
 21
14.6563167293
  0
LINE
  5
258
100
AcDbEntity
  8
0
100
AcDbLine
 62
2
  6
CONTINUOUS
 10
50.3203950757
 20
11.9881538643
 11
50.4929211846
 21
12.1606799732
  0
LINE
  5
259
100
AcDbEntity
  8
0
100
AcDbLine
 62
2
  6
CONTINUOUS
 10
52.506936798
 20
14.1746955866
 11
53.0639991244
 21
14.731757913
  0
LINE
  5
25A
100
AcDbEntity
  8
0
100
AcDbLine
 62
2
  6
CONTINUOUS
 10
50.2258208038
 20
11.9797876723
 11
50.3492082891
 21
12.1031751575
  0
LINE
  5
25B
100
AcDbEntity
  8
0
100
AcDbLine
 62
2
  6
CONTINUOUS
 10
52.5217220462
 20
14.2756889146
 11
53.0532322282
 21
14.8071990967
  0
LINE
  5
25C
100
AcDbEntity
  8
0
100
AcDbLine
 62
2
  6
CONTINUOUS
 10
50.1331373421
 20
11.9733122904
 11
50.2090979698
 21
12.049272918
  0
LINE
  5
25D
100
AcDbEntity
  8
0
100
AcDbLine
 62
2
  6
CONTINUOUS
 10
52.5318529643
 20
14.3720279126
 11
53.0407708756
 21
14.8809458238
  0
LINE
  5
25E
100
AcDbEntity
  8
0
100
AcDbLine
 62
2
  6
CONTINUOUS
 10
50.0404538804
 20
11.9668369085
 11
50.0724611578
 21
11.9988441858
  0
LINE
  5
25F
100
AcDbEntity
  8
0
100
AcDbLine
 62
2
  6
CONTINUOUS
 10
52.5383109469
 20
14.464693975
 11
53.0279020753
 21
14.9542851033
  0
LINE
  5
260
100
AcDbEntity
  8
0
100
AcDbLine
 62
2
  6
CONTINUOUS
 10
52.5429306498
 20
14.5555217577
 11
53.0146935915
 21
15.0272846993
  0
LINE
  5
261
100
AcDbEntity
  8
0
100
AcDbLine
 62
2
  6
CONTINUOUS
 10
52.542406735
 20
14.6412059227
 11
53.0005191935
 21
15.0993183812
  0
LINE
  5
262
100
AcDbEntity
  8
0
100
AcDbLine
 62
2
  6
CONTINUOUS
 10
52.5418828202
 20
14.7268900877
 11
52.9863447955
 21
15.1713520631
  0
LINE
  5
263
100
AcDbEntity
  8
0
100
AcDbLine
 62
2
  6
CONTINUOUS
 10
52.5371367099
 20
14.8083520572
 11
52.9717597749
 21
15.2429751222
  0
LINE
  5
264
100
AcDbEntity
  8
0
100
AcDbLine
 62
2
  6
CONTINUOUS
 10
52.5305941018
 20
14.888017529
 11
52.9567261113
 21
15.3141495385
  0
LINE
  5
265
100
AcDbEntity
  8
0
100
AcDbLine
 62
2
  6
CONTINUOUS
 10
52.5240514938
 20
14.9676830008
 11
52.9416924477
 21
15.3853239547
  0
LINE
  5
266
100
AcDbEntity
  8
0
100
AcDbLine
 62
2
  6
CONTINUOUS
 10
52.5128723131
 20
15.0427119
 11
52.9264313392
 21
15.456270926
  0
LINE
  5
267
100
AcDbEntity
  8
0
100
AcDbLine
 62
2
  6
CONTINUOUS
 10
52.5010240799
 20
15.1170717466
 11
52.9108919589
 21
15.5269396256
  0
LINE
  5
268
100
AcDbEntity
  8
0
100
AcDbLine
 62
2
  6
CONTINUOUS
 10
52.4891758467
 20
15.1914315932
 11
52.8953525787
 21
15.5976083251
  0
LINE
  5
269
100
AcDbEntity
  8
0
100
AcDbLine
 62
2
  6
CONTINUOUS
 10
52.4736087823
 20
15.2620726086
 11
52.879775881
 21
15.6682397073
  0
LINE
  5
26A
100
AcDbEntity
  8
0
100
AcDbLine
 62
2
  6
CONTINUOUS
 10
52.4569974009
 20
15.331669307
 11
52.8640120741
 21
15.7386839802
  0
LINE
  5
26B
100
AcDbEntity
  8
0
100
AcDbLine
 62
2
  6
CONTINUOUS
 10
52.4403860194
 20
15.4012660054
 11
52.8482482671
 21
15.8091282531
  0
LINE
  5
26C
100
AcDbEntity
  8
0
100
AcDbLine
 62
2
  6
CONTINUOUS
 10
52.4219410825
 20
15.4690291483
 11
52.8324844602
 21
15.879572526
  0
LINE
  5
26D
100
AcDbEntity
  8
0
100
AcDbLine
 62
2
  6
CONTINUOUS
 10
52.4009886922
 20
15.5342848378
 11
52.8167206976
 21
15.9500168432
  0
LINE
  5
26E
100
AcDbEntity
  8
0
100
AcDbLine
 62
2
  6
CONTINUOUS
 10
52.380036302
 20
15.5995405274
 11
52.8009569624
 21
16.0204611878
  0
LINE
  5
26F
100
AcDbEntity
  8
0
100
AcDbLine
 62
2
  6
CONTINUOUS
 10
52.3590839117
 20
15.6647962169
 11
52.7851932271
 21
16.0909055324
  0
LINE
  5
270
100
AcDbEntity
  8
0
100
AcDbLine
 62
2
  6
CONTINUOUS
 10
52.3359458418
 20
15.7278662269
 11
52.7694294919
 21
16.1613498769
  0
LINE
  5
271
100
AcDbEntity
  8
0
100
AcDbLine
 62
2
  6
CONTINUOUS
 10
52.312258249
 20
15.7903867139
 11
52.7553929947
 21
16.2335214596
  0
LINE
  5
272
100
AcDbEntity
  8
0
100
AcDbLine
 62
2
  6
CONTINUOUS
 10
52.2885706562
 20
15.8529072009
 11
52.7426466195
 21
16.3069831642
  0
LINE
  5
273
100
AcDbEntity
  8
0
100
AcDbLine
 62
2
  6
CONTINUOUS
 10
52.2648830634
 20
15.9154276879
 11
52.7336319812
 21
16.3841766058
  0
LINE
  5
274
100
AcDbEntity
  8
0
100
AcDbLine
 62
2
  6
CONTINUOUS
 10
52.2404714629
 20
15.9772241673
 11
52.7283036852
 21
16.4650563896
  0
LINE
  5
275
100
AcDbEntity
  8
0
100
AcDbLine
 62
2
  6
CONTINUOUS
 10
52.2151569613
 20
16.0381177455
 11
52.726659081
 21
16.5496198652
  0
LINE
  5
276
100
AcDbEntity
  8
0
100
AcDbLine
 62
2
  6
CONTINUOUS
 10
52.1898424597
 20
16.0990113237
 11
52.729637921
 21
16.638806785
  0
LINE
  5
277
100
AcDbEntity
  8
0
100
AcDbLine
 62
2
  6
CONTINUOUS
 10
52.1645279581
 20
16.159904902
 11
52.7382092426
 21
16.7335861864
  0
LINE
  5
278
100
AcDbEntity
  8
0
100
AcDbLine
 62
2
  6
CONTINUOUS
 10
52.1385282947
 20
16.2201133184
 11
52.7532360497
 21
16.8348210734
  0
LINE
  5
279
100
AcDbEntity
  8
0
100
AcDbLine
 62
2
  6
CONTINUOUS
 10
52.1112810378
 20
16.2790741413
 11
52.7756965254
 21
16.9434896289
  0
LINE
  5
27A
100
AcDbEntity
  8
0
100
AcDbLine
 62
2
  6
CONTINUOUS
 10
52.0840337808
 20
16.3380349641
 11
52.8046487813
 21
17.0586499646
  0
LINE
  5
27B
100
AcDbEntity
  8
0
100
AcDbLine
 62
2
  6
CONTINUOUS
 10
52.0567865239
 20
16.396995787
 11
52.8395101831
 21
17.1797194462
  0
LINE
  5
27C
100
AcDbEntity
  8
0
100
AcDbLine
 62
2
  6
CONTINUOUS
 10
52.0284516308
 20
16.4548689738
 11
52.876244749
 21
17.302662092
  0
LINE
  5
27D
100
AcDbEntity
  8
0
100
AcDbLine
 62
2
  6
CONTINUOUS
 10
51.9989731698
 20
16.5115985926
 11
52.9086253978
 21
17.4212508206
  0
LINE
  5
27E
100
AcDbEntity
  8
0
100
AcDbLine
 62
2
  6
CONTINUOUS
 10
51.9694947088
 20
16.5683282114
 11
52.9292081486
 21
17.5280416512
  0
LINE
  5
27F
100
AcDbEntity
  8
0
100
AcDbLine
 62
2
  6
CONTINUOUS
 10
51.9400162477
 20
16.6250578302
 11
52.9366944242
 21
17.6217360066
  0
LINE
  5
280
100
AcDbEntity
  8
0
100
AcDbLine
 62
2
  6
CONTINUOUS
 10
51.9085279214
 20
16.6797775836
 11
52.9294747938
 21
17.7007244561
  0
LINE
  5
281
100
AcDbEntity
  8
0
100
AcDbLine
 62
2
  6
CONTINUOUS
 10
51.8765491712
 20
16.7340069133
 11
52.9117555981
 21
17.7692133401
  0
LINE
  5
282
100
AcDbEntity
  8
0
100
AcDbLine
 62
2
  6
CONTINUOUS
 10
51.8445704211
 20
16.788236243
 11
52.8852833854
 21
17.8289492073
  0
LINE
  5
283
100
AcDbEntity
  8
0
100
AcDbLine
 62
2
  6
CONTINUOUS
 10
51.8118758468
 20
16.8417497485
 11
52.8515655059
 21
17.8814394076
  0
LINE
  5
284
100
AcDbEntity
  8
0
100
AcDbLine
 62
2
  6
CONTINUOUS
 10
51.7771814905
 20
16.893263472
 11
52.8151626891
 21
17.9312446706
  0
LINE
  5
285
100
AcDbEntity
  8
0
100
AcDbLine
 62
2
  6
CONTINUOUS
 10
51.7424871341
 20
16.9447771955
 11
52.7732255079
 21
17.9755155692
  0
LINE
  5
286
100
AcDbEntity
  8
0
100
AcDbLine
 62
2
  6
CONTINUOUS
 10
51.7077927778
 20
16.996290919
 11
52.7300965661
 21
18.0185947073
  0
LINE
  5
287
100
AcDbEntity
  8
0
100
AcDbLine
 62
2
  6
CONTINUOUS
 10
51.6707392576
 20
17.0454454786
 11
52.6826595194
 21
18.0573657404
  0
LINE
  5
288
100
AcDbEntity
  8
0
100
AcDbLine
 62
2
  6
CONTINUOUS
 10
51.6331909497
 20
17.0941052505
 11
52.6343046932
 21
18.095218994
  0
LINE
  5
289
100
AcDbEntity
  8
0
100
AcDbLine
 62
2
  6
CONTINUOUS
 10
51.5956426418
 20
17.1427650225
 11
52.5832730552
 21
18.1303954359
  0
LINE
  5
28A
100
AcDbEntity
  8
0
100
AcDbLine
 62
2
  6
CONTINUOUS
 10
51.5567819705
 20
17.190112431
 11
52.5313724852
 21
18.1647029457
  0
LINE
  5
28B
100
AcDbEntity
  8
0
100
AcDbLine
 62
2
  6
CONTINUOUS
 10
51.5163359139
 20
17.2358744542
 11
52.4776153202
 21
18.1971538605
  0
LINE
  5
28C
100
AcDbEntity
  8
0
100
AcDbLine
 62
2
  6
CONTINUOUS
 10
51.4758898572
 20
17.2816364774
 11
52.4238581552
 21
18.2296047753
  0
LINE
  5
28D
100
AcDbEntity
  8
0
100
AcDbLine
 62
2
  6
CONTINUOUS
 10
51.4351533367
 20
17.3271080367
 11
52.3692207778
 21
18.2611754777
  0
LINE
  5
28E
100
AcDbEntity
  8
0
100
AcDbLine
 62
2
  6
CONTINUOUS
 10
51.3918682596
 20
17.3700310394
 11
52.3139892953
 21
18.2921520751
  0
LINE
  5
28F
100
AcDbEntity
  8
0
100
AcDbLine
 62
2
  6
CONTINUOUS
 10
51.3485831825
 20
17.4129540421
 11
52.2587578129
 21
18.3231286725
  0
LINE
  5
290
100
AcDbEntity
  8
0
100
AcDbLine
 62
2
  6
CONTINUOUS
 10
51.3052981054
 20
17.4558770448
 11
52.20355485
 21
18.3541337894
  0
LINE
  5
291
100
AcDbEntity
  8
0
100
AcDbLine
 62
2
  6
CONTINUOUS
 10
51.260042578
 20
17.4968295972
 11
52.1483642477
 21
18.3851512669
  0
LINE
  5
292
100
AcDbEntity
  8
0
100
AcDbLine
 62
2
  6
CONTINUOUS
 10
51.2140759863
 20
17.5370710854
 11
52.0931736453
 21
18.4161687444
  0
LINE
  5
293
100
AcDbEntity
  8
0
100
AcDbLine
 62
2
  6
CONTINUOUS
 10
51.1681093946
 20
17.5773125735
 11
52.038609541
 21
18.4478127199
  0
LINE
  5
294
100
AcDbEntity
  8
0
100
AcDbLine
 62
2
  6
CONTINUOUS
 10
51.1213854513
 20
17.61679671
 11
51.9844611262
 21
18.4798723849
  0
LINE
  5
295
100
AcDbEntity
  8
0
100
AcDbLine
 62
2
  6
CONTINUOUS
 10
51.072978732
 20
17.6545980706
 11
51.9305253201
 21
18.5121446586
  0
LINE
  5
296
100
AcDbEntity
  8
0
100
AcDbLine
 62
2
  6
CONTINUOUS
 10
51.0245720128
 20
17.6923994311
 11
51.8779211387
 21
18.5457485571
  0
LINE
  5
297
100
AcDbEntity
  8
0
100
AcDbLine
 62
2
  6
CONTINUOUS
 10
50.9761652935
 20
17.7302007917
 11
51.8253169574
 21
18.5793524556
  0
LINE
  5
298
100
AcDbEntity
  8
0
100
AcDbLine
 62
2
  6
CONTINUOUS
 10
50.9260721097
 20
17.7663156877
 11
51.773814067
 21
18.614057645
  0
LINE
  5
299
100
AcDbEntity
  8
0
100
AcDbLine
 62
2
  6
CONTINUOUS
 10
50.8755276088
 20
17.8019792667
 11
51.7232337496
 21
18.6496854074
  0
LINE
  5
29A
100
AcDbEntity
  8
0
100
AcDbLine
 62
2
  6
CONTINUOUS
 10
50.8249831079
 20
17.8376428456
 11
51.6726534322
 21
18.6853131698
  0
LINE
  5
29B
100
AcDbEntity
  8
0
100
AcDbLine
 62
2
  6
CONTINUOUS
 10
50.7742039597
 20
17.8730717771
 11
51.6240365279
 21
18.7229043454
  0
LINE
  5
29C
100
AcDbEntity
  8
0
100
AcDbLine
 62
2
  6
CONTINUOUS
 10
50.7218585917
 20
17.906934489
 11
51.5758732188
 21
18.7609491161
  0
LINE
  5
29D
100
AcDbEntity
  8
0
100
AcDbLine
 62
2
  6
CONTINUOUS
 10
50.6695132238
 20
17.9407972009
 11
51.5277099097
 21
18.7989938868
  0
LINE
  5
29E
100
AcDbEntity
  8
0
100
AcDbLine
 62
2
  6
CONTINUOUS
 10
50.6171678558
 20
17.9746599128
 11
51.4818251741
 21
18.839317231
  0
LINE
  5
29F
100
AcDbEntity
  8
0
100
AcDbLine
 62
2
  6
CONTINUOUS
 10
50.5643940075
 20
18.0080941443
 11
51.4361014747
 21
18.8798016114
  0
LINE
  5
2A0
100
AcDbEntity
  8
0
100
AcDbLine
 62
2
  6
CONTINUOUS
 10
50.5105939117
 20
18.0405021283
 11
51.3916012656
 21
18.9215094822
  0
LINE
  5
2A1
100
AcDbEntity
  8
0
100
AcDbLine
 62
2
  6
CONTINUOUS
 10
50.456793816
 20
18.0729101124
 11
51.3482290956
 21
18.964345392
  0
LINE
  5
2A2
100
AcDbEntity
  8
0
100
AcDbLine
 62
2
  6
CONTINUOUS
 10
50.4029937202
 20
18.1053180964
 11
51.3048652497
 21
19.007189626
  0
LINE
  5
2A3
100
AcDbEntity
  8
0
100
AcDbLine
 62
2
  6
CONTINUOUS
 10
50.3499278596
 20
18.1384603157
 11
51.2639774618
 21
19.0525099179
  0
LINE
  5
2A4
100
AcDbEntity
  8
0
100
AcDbLine
 62
2
  6
CONTINUOUS
 10
50.2991673269
 20
18.1739078628
 11
51.223089674
 21
19.0978302099
  0
LINE
  5
2A5
100
AcDbEntity
  8
0
100
AcDbLine
 62
2
  6
CONTINUOUS
 10
50.2484067942
 20
18.2093554099
 11
51.1831833928
 21
19.1441320085
  0
LINE
  5
2A6
100
AcDbEntity
  8
0
100
AcDbLine
 62
2
  6
CONTINUOUS
 10
50.1976462615
 20
18.2448029571
 11
51.144885713
 21
19.1920424086
  0
LINE
  5
2A7
100
AcDbEntity
  8
0
100
AcDbLine
 62
2
  6
CONTINUOUS
 10
50.1468857288
 20
18.2802505042
 11
51.1065880333
 21
19.2399528086
  0
LINE
  5
2A8
100
AcDbEntity
  8
0
100
AcDbLine
 62
2
  6
CONTINUOUS
 10
50.1023736869
 20
18.3219465421
 11
51.0700080495
 21
19.2895809047
  0
LINE
  5
2A9
100
AcDbEntity
  8
0
100
AcDbLine
 62
2
  6
CONTINUOUS
 10
50.0582718541
 20
18.3640527891
 11
51.0343823092
 21
19.3401632442
  0
LINE
  5
2AA
100
AcDbEntity
  8
0
100
AcDbLine
 62
2
  6
CONTINUOUS
 10
50.0141700213
 20
18.4061590362
 11
50.9987565688
 21
19.3907455836
  0
LINE
  5
2AB
100
AcDbEntity
  8
0
100
AcDbLine
 62
2
  6
CONTINUOUS
 10
49.9700681885
 20
18.4482652832
 11
50.9669671712
 21
19.4451642658
  0
LINE
  5
2AC
100
AcDbEntity
  8
0
100
AcDbLine
 62
2
  6
CONTINUOUS
 10
49.9290852153
 20
18.4934903897
 11
50.936192031
 21
19.5005972055
  0
LINE
  5
2AD
100
AcDbEntity
  8
0
100
AcDbLine
 62
2
  6
CONTINUOUS
 10
49.890830808
 20
18.5414440623
 11
50.9077714637
 21
19.558384718
  0
LINE
  5
2AE
100
AcDbEntity
  8
0
100
AcDbLine
 62
2
  6
CONTINUOUS
 10
49.8525764008
 20
18.5893977349
 11
50.8831613179
 21
19.6199826521
  0
LINE
  5
2AF
100
AcDbEntity
  8
0
100
AcDbLine
 62
2
  6
CONTINUOUS
 10
49.8143219935
 20
18.6373514075
 11
50.8585511722
 21
19.6815805861
  0
LINE
  5
2B0
100
AcDbEntity
  8
0
100
AcDbLine
 62
2
  6
CONTINUOUS
 10
49.7762795445
 20
18.6855170382
 11
50.8383928685
 21
19.7476303623
  0
LINE
  5
2B1
100
AcDbEntity
  8
0
100
AcDbLine
 62
2
  6
CONTINUOUS
 10
49.7431644189
 20
18.7386099925
 11
50.8188248135
 21
19.8142703871
  0
LINE
  5
2B2
100
AcDbEntity
  8
0
100
AcDbLine
 62
2
  6
CONTINUOUS
 10
49.7100492934
 20
18.7917029468
 11
50.8004166638
 21
19.8820703172
  0
LINE
  5
2B3
100
AcDbEntity
  8
0
100
AcDbLine
 62
2
  6
CONTINUOUS
 10
49.6769341679
 20
18.8447959011
 11
50.7848596466
 21
19.9527213799
  0
LINE
  5
2B4
100
AcDbEntity
  8
0
100
AcDbLine
 62
2
  6
CONTINUOUS
 10
49.6438190424
 20
18.8978888554
 11
50.7693026294
 21
20.0233724425
  0
LINE
  5
2B5
100
AcDbEntity
  8
0
100
AcDbLine
 62
2
  6
CONTINUOUS
 10
49.6128557865
 20
18.9531336794
 11
50.7555747871
 21
20.0958526799
  0
LINE
  5
2B6
100
AcDbEntity
  8
0
100
AcDbLine
 62
2
  6
CONTINUOUS
 10
49.5842542551
 20
19.0107402278
 11
50.7430873536
 21
20.1695733263
  0
LINE
  5
2B7
100
AcDbEntity
  8
0
100
AcDbLine
 62
2
  6
CONTINUOUS
 10
49.5556527237
 20
19.0683467762
 11
50.7305999201
 21
20.2432939726
  0
LINE
  5
2B8
100
AcDbEntity
  8
0
100
AcDbLine
 62
2
  6
CONTINUOUS
 10
49.5270511922
 20
19.1259533246
 11
50.7200448529
 21
20.3189469853
  0
LINE
  5
2B9
100
AcDbEntity
  8
0
100
AcDbLine
 62
2
  6
CONTINUOUS
 10
49.4984496608
 20
19.183559873
 11
50.709977841
 21
20.3950880532
  0
LINE
  5
2BA
100
AcDbEntity
  8
0
100
AcDbLine
 62
2
  6
CONTINUOUS
 10
49.4732273406
 20
19.2445456326
 11
50.699910829
 21
20.471229121
  0
LINE
  5
2BB
100
AcDbEntity
  8
0
100
AcDbLine
 62
2
  6
CONTINUOUS
 10
49.448579708
 20
19.3061060799
 11
50.6900767301
 21
20.5476031019
  0
LINE
  5
2BC
100
AcDbEntity
  8
0
100
AcDbLine
 62
2
  6
CONTINUOUS
 10
49.4239320755
 20
19.3676665271
 11
50.6815881015
 21
20.6253225532
  0
LINE
  5
2BD
100
AcDbEntity
  8
0
100
AcDbLine
 62
2
  6
CONTINUOUS
 10
49.3992844429
 20
19.4292269744
 11
50.673099473
 21
20.7030420044
  0
LINE
  5
2BE
100
AcDbEntity
  8
0
100
AcDbLine
 62
2
  6
CONTINUOUS
 10
49.3752906421
 20
19.4914412534
 11
50.6646108444
 21
20.7807614557
  0
LINE
  5
2BF
100
AcDbEntity
  8
0
100
AcDbLine
 62
2
  6
CONTINUOUS
 10
49.354089826
 20
19.5564485172
 11
50.6562917984
 21
20.8586504895
  0
LINE
  5
2C0
100
AcDbEntity
  8
0
100
AcDbLine
 62
2
  6
CONTINUOUS
 10
49.33288901
 20
19.6214557809
 11
50.6483378825
 21
20.9369046535
  0
LINE
  5
2C1
100
AcDbEntity
  8
0
100
AcDbLine
 62
2
  6
CONTINUOUS
 10
49.3116881939
 20
19.6864630447
 11
50.6403839666
 21
21.0151588174
  0
LINE
  5
2C2
100
AcDbEntity
  8
0
100
AcDbLine
 62
2
  6
CONTINUOUS
 10
49.2904873779
 20
19.7514703085
 11
50.6324300507
 21
21.0934129813
  0
LINE
  5
2C3
100
AcDbEntity
  8
0
100
AcDbLine
 62
2
  6
CONTINUOUS
 10
49.2707670915
 20
19.8179581019
 11
50.624365268
 21
21.1715562785
  0
LINE
  5
2C4
100
AcDbEntity
  8
0
100
AcDbLine
 62
2
  6
CONTINUOUS
 10
49.2525475012
 20
19.8859465914
 11
50.6160391022
 21
21.2494381925
  0
LINE
  5
2C5
100
AcDbEntity
  8
0
100
AcDbLine
 62
2
  6
CONTINUOUS
 10
49.2343279109
 20
19.9539350809
 11
50.6077129365
 21
21.3273201065
  0
LINE
  5
2C6
100
AcDbEntity
  8
0
100
AcDbLine
 62
2
  6
CONTINUOUS
 10
49.2161083205
 20
20.0219235704
 11
50.5993867707
 21
21.4052020206
  0
LINE
  5
2C7
100
AcDbEntity
  8
0
100
AcDbLine
 62
2
  6
CONTINUOUS
 10
49.1978887302
 20
20.08991206
 11
50.5909447885
 21
21.4829681182
  0
LINE
  5
2C8
100
AcDbEntity
  8
0
100
AcDbLine
 62
2
  6
CONTINUOUS
 10
49.1816822345
 20
20.1599136441
 11
50.5811768756
 21
21.5594082852
  0
LINE
  5
2C9
100
AcDbEntity
  8
0
100
AcDbLine
 62
2
  6
CONTINUOUS
 10
49.1660102823
 20
20.2304497716
 11
50.5714089628
 21
21.6358484522
  0
LINE
  5
2CA
100
AcDbEntity
  8
0
100
AcDbLine
 62
2
  6
CONTINUOUS
 10
49.15033833
 20
20.3009858992
 11
50.5616410499
 21
21.7122886191
  0
LINE
  5
2CB
100
AcDbEntity
  8
0
100
AcDbLine
 62
2
  6
CONTINUOUS
 10
49.1346663777
 20
20.3715220267
 11
50.5518731371
 21
21.7887287861
  0
LINE
  5
2CC
100
AcDbEntity
  8
0
100
AcDbLine
 62
2
  6
CONTINUOUS
 10
49.1191764075
 20
20.4422401364
 11
50.5421052242
 21
21.8651689531
  0
LINE
  5
2CD
100
AcDbEntity
  8
0
100
AcDbLine
 62
2
  6
CONTINUOUS
 10
49.105642162
 20
20.5149139707
 11
50.5319795562
 21
21.9412513649
  0
LINE
  5
2CE
100
AcDbEntity
  8
0
100
AcDbLine
 62
2
  6
CONTINUOUS
 10
49.0921079165
 20
20.587587805
 11
50.5195152978
 21
22.0149951863
  0
LINE
  5
2CF
100
AcDbEntity
  8
0
100
AcDbLine
 62
2
  6
CONTINUOUS
 10
49.078573671
 20
20.6602616393
 11
50.5070510393
 21
22.0887390076
  0
LINE
  5
2D0
100
AcDbEntity
  8
0
100
AcDbLine
 62
2
  6
CONTINUOUS
 10
49.0650394255
 20
20.7329354736
 11
50.4945867809
 21
22.162482829
  0
LINE
  5
2D1
100
AcDbEntity
  8
0
100
AcDbLine
 62
2
  6
CONTINUOUS
 10
49.0521961052
 20
20.8063002332
 11
50.4821225224
 21
22.2362266504
  0
LINE
  5
2D2
100
AcDbEntity
  8
0
100
AcDbLine
 62
2
  6
CONTINUOUS
 10
49.0404056816
 20
20.8807178894
 11
50.469658264
 21
22.3099704718
  0
LINE
  5
2D3
100
AcDbEntity
  8
0
100
AcDbLine
 62
2
  6
CONTINUOUS
 10
49.028615258
 20
20.9551355456
 11
50.4571940055
 21
22.3837142931
  0
LINE
  5
2D4
100
AcDbEntity
  8
0
100
AcDbLine
 62
2
  6
CONTINUOUS
 10
49.0168248344
 20
21.0295532019
 11
50.441845907
 21
22.4545742745
  0
LINE
  5
2D5
100
AcDbEntity
  8
0
100
AcDbLine
 62
2
  6
CONTINUOUS
 10
49.0050344108
 20
21.1039708581
 11
50.4257506206
 21
22.5246870679
  0
LINE
  5
2D6
100
AcDbEntity
  8
0
100
AcDbLine
 62
2
  6
CONTINUOUS
 10
48.9943347714
 20
21.1794792985
 11
50.4096553342
 21
22.5947998613
  0
LINE
  5
2D7
100
AcDbEntity
  8
0
100
AcDbLine
 62
2
  6
CONTINUOUS
 10
48.9840220134
 20
21.2553746203
 11
50.3935600478
 21
22.6649126547
  0
LINE
  5
2D8
100
AcDbEntity
  8
0
100
AcDbLine
 62
2
  6
CONTINUOUS
 10
48.9737092554
 20
21.3312699421
 11
50.3774647613
 21
22.735025448
  0
LINE
  5
2D9
100
AcDbEntity
  8
0
100
AcDbLine
 62
2
  6
CONTINUOUS
 10
48.9633964974
 20
21.4071652639
 11
50.3613694749
 21
22.8051382414
  0
LINE
  5
2DA
100
AcDbEntity
  8
0
100
AcDbLine
 62
2
  6
CONTINUOUS
 10
48.9530837394
 20
21.4830605857
 11
50.3451122884
 21
22.8750891348
  0
LINE
  5
2DB
100
AcDbEntity
  8
0
100
AcDbLine
 62
2
  6
CONTINUOUS
 10
48.9428889037
 20
21.5590738299
 11
50.3252479825
 21
22.9414329087
  0
LINE
  5
2DC
100
AcDbEntity
  8
0
100
AcDbLine
 62
2
  6
CONTINUOUS
 10
48.9336631482
 20
21.6360561543
 11
50.3053836766
 21
23.0077766826
  0
LINE
  5
2DD
100
AcDbEntity
  8
0
100
AcDbLine
 62
2
  6
CONTINUOUS
 10
48.9244373928
 20
21.7130384786
 11
50.2855193707
 21
23.0741204566
  0
LINE
  5
2DE
100
AcDbEntity
  8
0
100
AcDbLine
 62
2
  6
CONTINUOUS
 10
48.9152116373
 20
21.790020803
 11
50.2656550648
 21
23.1404642305
  0
LINE
  5
2DF
100
AcDbEntity
  8
0
100
AcDbLine
 62
2
  6
CONTINUOUS
 10
48.9059858818
 20
21.8670031273
 11
50.245790759
 21
23.2068080044
  0
LINE
  5
2E0
100
AcDbEntity
  8
0
100
AcDbLine
 62
2
  6
CONTINUOUS
 10
48.8967601263
 20
21.9439854517
 11
50.2234119328
 21
23.2706372581
  0
LINE
  5
2E1
100
AcDbEntity
  8
0
100
AcDbLine
 62
2
  6
CONTINUOUS
 10
48.8878208767
 20
22.0212542818
 11
50.1999315428
 21
23.333364948
  0
LINE
  5
2E2
100
AcDbEntity
  8
0
100
AcDbLine
 62
2
  6
CONTINUOUS
 10
48.8790943615
 20
22.0987358465
 11
50.1764511529
 21
23.3960926378
  0
LINE
  5
2E3
100
AcDbEntity
  8
0
100
AcDbLine
 62
2
  6
CONTINUOUS
 10
48.8703678463
 20
22.1762174111
 11
50.1529707629
 21
23.4588203277
  0
LINE
  5
2E4
100
AcDbEntity
  8
0
100
AcDbLine
 62
2
  6
CONTINUOUS
 10
48.8616413312
 20
22.2536989758
 11
50.1294903729
 21
23.5215480175
  0
LINE
  5
2E5
100
AcDbEntity
  8
0
100
AcDbLine
 62
2
  6
CONTINUOUS
 10
48.852914816
 20
22.3311805404
 11
50.1056446152
 21
23.5839103397
  0
LINE
  5
2E6
100
AcDbEntity
  8
0
100
AcDbLine
 62
2
  6
CONTINUOUS
 10
48.8441686636
 20
22.4086424679
 11
50.0782745331
 21
23.6427483374
  0
LINE
  5
2E7
100
AcDbEntity
  8
0
100
AcDbLine
 62
2
  6
CONTINUOUS
 10
48.8353204112
 20
22.4860022952
 11
50.0509044511
 21
23.7015863351
  0
LINE
  5
2E8
100
AcDbEntity
  8
0
100
AcDbLine
 62
2
  6
CONTINUOUS
 10
48.8264721587
 20
22.5633621226
 11
50.023534369
 21
23.7604243329
  0
LINE
  5
2E9
100
AcDbEntity
  8
0
100
AcDbLine
 62
2
  6
CONTINUOUS
 10
48.8176239062
 20
22.64072195
 11
49.9961642869
 21
23.8192623306
  0
LINE
  5
2EA
100
AcDbEntity
  8
0
100
AcDbLine
 62
2
  6
CONTINUOUS
 10
48.8087756537
 20
22.7180817773
 11
49.9687942048
 21
23.8781003284
  0
LINE
  5
2EB
100
AcDbEntity
  8
0
100
AcDbLine
 62
2
  6
CONTINUOUS
 10
48.7999274013
 20
22.7954416047
 11
49.9404813465
 21
23.9359955499
  0
LINE
  5
2EC
100
AcDbEntity
  8
0
100
AcDbLine
 62
2
  6
CONTINUOUS
 10
48.790361728
 20
22.8720840112
 11
49.909000802
 21
23.9907230852
  0
LINE
  5
2ED
100
AcDbEntity
  8
0
100
AcDbLine
 62
2
  6
CONTINUOUS
 10
48.7807142866
 20
22.9486446497
 11
49.8775202575
 21
24.0454506205
  0
LINE
  5
2EE
100
AcDbEntity
  8
0
100
AcDbLine
 62
2
  6
CONTINUOUS
 10
48.7710668453
 20
23.0252052881
 11
49.8460397129
 21
24.1001781558
  0
LINE
  5
2EF
100
AcDbEntity
  8
0
100
AcDbLine
 62
2
  6
CONTINUOUS
 10
48.7614194039
 20
23.1017659265
 11
49.8145591684
 21
24.1549056911
  0
LINE
  5
2F0
100
AcDbEntity
  8
0
100
AcDbLine
 62
2
  6
CONTINUOUS
 10
48.7517719625
 20
23.178326565
 11
49.7830786239
 21
24.2096332264
  0
LINE
  5
2F1
100
AcDbEntity
  8
0
100
AcDbLine
 62
2
  6
CONTINUOUS
 10
48.740858549
 20
23.2536212313
 11
49.7515436818
 21
24.2643063642
  0
LINE
  5
2F2
100
AcDbEntity
  8
0
100
AcDbLine
 62
2
  6
CONTINUOUS
 10
48.7296480752
 20
23.3286188373
 11
49.7194742636
 21
24.3184450257
  0
LINE
  5
2F3
100
AcDbEntity
  8
0
100
AcDbLine
 62
2
  6
CONTINUOUS
 10
48.7184376014
 20
23.4036164434
 11
49.6874048453
 21
24.3725836872
  0
LINE
  5
2F4
100
AcDbEntity
  8
0
100
AcDbLine
 62
2
  6
CONTINUOUS
 10
48.7072271277
 20
23.4786140495
 11
49.655335427
 21
24.4267223488
  0
LINE
  5
2F5
100
AcDbEntity
  8
0
100
AcDbLine
 62
2
  6
CONTINUOUS
 10
48.6960166539
 20
23.5536116555
 11
49.6237476556
 21
24.4813426573
  0
LINE
  5
2F6
100
AcDbEntity
  8
0
100
AcDbLine
 62
2
  6
CONTINUOUS
 10
48.6825363411
 20
23.6263394225
 11
49.5922126827
 21
24.5360157642
  0
LINE
  5
2F7
100
AcDbEntity
  8
0
100
AcDbLine
 62
2
  6
CONTINUOUS
 10
48.6688720326
 20
23.6988831938
 11
49.5606777098
 21
24.5906888711
  0
LINE
  5
2F8
100
AcDbEntity
  8
0
100
AcDbLine
 62
2
  6
CONTINUOUS
 10
48.6552077241
 20
23.7714269651
 11
49.5291427369
 21
24.645361978
  0
LINE
  5
2F9
100
AcDbEntity
  8
0
100
AcDbLine
 62
2
  6
CONTINUOUS
 10
48.6415434155
 20
23.8439707364
 11
49.496946524
 21
24.6993738449
  0
LINE
  5
2FA
100
AcDbEntity
  8
0
100
AcDbLine
 62
2
  6
CONTINUOUS
 10
48.6269268087
 20
23.9155622094
 11
49.4642149225
 21
24.7528503233
  0
LINE
  5
2FB
100
AcDbEntity
  8
0
100
AcDbLine
 62
2
  6
CONTINUOUS
 10
48.6097332118
 20
23.9845766924
 11
49.431483321
 21
24.8063268016
  0
LINE
  5
2FC
100
AcDbEntity
  8
0
100
AcDbLine
 62
2
  6
CONTINUOUS
 10
48.592539615
 20
24.0535911753
 11
49.3987517196
 21
24.8598032799
  0
LINE
  5
2FD
100
AcDbEntity
  8
0
100
AcDbLine
 62
2
  6
CONTINUOUS
 10
48.5753460181
 20
24.1226056583
 11
49.3660201181
 21
24.9132797583
  0
LINE
  5
2FE
100
AcDbEntity
  8
0
100
AcDbLine
 62
2
  6
CONTINUOUS
 10
48.5581524212
 20
24.1916201413
 11
49.3330164029
 21
24.9664841229
  0
LINE
  5
2FF
100
AcDbEntity
  8
0
100
AcDbLine
 62
2
  6
CONTINUOUS
 10
48.5367109711
 20
24.2563867709
 11
49.2981807076
 21
25.0178565075
  0
LINE
  5
300
100
AcDbEntity
  8
0
100
AcDbLine
 62
2
  6
CONTINUOUS
 10
48.5146421
 20
24.3205259797
 11
49.2633450123
 21
25.069228892
  0
LINE
  5
301
100
AcDbEntity
  8
0
100
AcDbLine
 62
2
  6
CONTINUOUS
 10
48.4925732289
 20
24.3846651884
 11
49.228509317
 21
25.1206012765
  0
LINE
  5
302
100
AcDbEntity
  8
0
100
AcDbLine
 62
2
  6
CONTINUOUS
 10
48.4705043578
 20
24.4488043972
 11
49.1936736218
 21
25.1719736611
  0
LINE
  5
303
100
AcDbEntity
  8
0
100
AcDbLine
 62
2
  6
CONTINUOUS
 10
48.444506086
 20
24.5090142052
 11
49.1588379265
 21
25.2233460456
  0
LINE
  5
304
100
AcDbEntity
  8
0
100
AcDbLine
 62
2
  6
CONTINUOUS
 10
48.4172422084
 20
24.5679584074
 11
49.1240022312
 21
25.2747184302
  0
LINE
  5
305
100
AcDbEntity
  8
0
100
AcDbLine
 62
2
  6
CONTINUOUS
 10
48.3899783309
 20
24.6269026097
 11
49.087227868
 21
25.3241521468
  0
LINE
  5
306
100
AcDbEntity
  8
0
100
AcDbLine
 62
2
  6
CONTINUOUS
 10
48.3627144533
 20
24.6858468119
 11
49.0496778984
 21
25.372810257
  0
LINE
  5
307
100
AcDbEntity
  8
0
100
AcDbLine
 62
2
  6
CONTINUOUS
 10
48.3354505757
 20
24.7447910142
 11
49.0121279288
 21
25.4214683673
  0
LINE
  5
308
100
AcDbEntity
  8
0
100
AcDbLine
 62
2
  6
CONTINUOUS
 10
48.3081866982
 20
24.8037352164
 11
48.9745779592
 21
25.4701264775
  0
LINE
  5
309
100
AcDbEntity
  8
0
100
AcDbLine
 62
2
  6
CONTINUOUS
 10
48.2800902817
 20
24.8618468798
 11
48.9370279896
 21
25.5187845877
  0
LINE
  5
30A
100
AcDbEntity
  8
0
100
AcDbLine
 62
2
  6
CONTINUOUS
 10
48.2486014767
 20
24.9165661546
 11
48.8994780201
 21
25.567442698
  0
LINE
  5
30B
100
AcDbEntity
  8
0
100
AcDbLine
 62
2
  6
CONTINUOUS
 10
48.2171126717
 20
24.9712854294
 11
48.8619280505
 21
25.6161008082
  0
LINE
  5
30C
100
AcDbEntity
  8
0
100
AcDbLine
 62
2
  6
CONTINUOUS
 10
48.1856238667
 20
25.0260047042
 11
48.8231283339
 21
25.6635091715
  0
LINE
  5
30D
100
AcDbEntity
  8
0
100
AcDbLine
 62
2
  6
CONTINUOUS
 10
48.1541350617
 20
25.080723979
 11
48.7823753253
 21
25.7089642427
  0
LINE
  5
30E
100
AcDbEntity
  8
0
100
AcDbLine
 62
2
  6
CONTINUOUS
 10
48.1226462566
 20
25.1354432539
 11
48.7416223166
 21
25.7544193138
  0
LINE
  5
30F
100
AcDbEntity
  8
0
100
AcDbLine
 62
2
  6
CONTINUOUS
 10
48.0911574516
 20
25.1901625287
 11
48.700869308
 21
25.799874385
  0
LINE
  5
310
100
AcDbEntity
  8
0
100
AcDbLine
 62
2
  6
CONTINUOUS
 10
48.0567567824
 20
25.2419699393
 11
48.6601162994
 21
25.8453294562
  0
LINE
  5
311
100
AcDbEntity
  8
0
100
AcDbLine
 62
2
  6
CONTINUOUS
 10
48.0212338184
 20
25.2926550551
 11
48.6193632908
 21
25.8907845274
  0
LINE
  5
312
100
AcDbEntity
  8
0
100
AcDbLine
 62
2
  6
CONTINUOUS
 10
47.9857108545
 20
25.343340171
 11
48.5786102821
 21
25.9362395986
  0
LINE
  5
313
100
AcDbEntity
  8
0
100
AcDbLine
 62
2
  6
CONTINUOUS
 10
47.9501878905
 20
25.3940252868
 11
48.5378572735
 21
25.9816946698
  0
LINE
  5
314
100
AcDbEntity
  8
0
100
AcDbLine
 62
2
  6
CONTINUOUS
 10
47.9146649265
 20
25.4447104027
 11
48.4962297216
 21
26.0262751978
  0
LINE
  5
315
100
AcDbEntity
  8
0
100
AcDbLine
 62
2
  6
CONTINUOUS
 10
47.8791419625
 20
25.4953955185
 11
48.4518316385
 21
26.0680851945
  0
LINE
  5
316
100
AcDbEntity
  8
0
100
AcDbLine
 62
2
  6
CONTINUOUS
 10
47.8423145393
 20
25.5447761751
 11
48.4074335555
 21
26.1098951913
  0
LINE
  5
317
100
AcDbEntity
  8
0
100
AcDbLine
 62
2
  6
CONTINUOUS
 10
47.8029409092
 20
25.5916106248
 11
48.3630354724
 21
26.151705188
  0
LINE
  5
318
100
AcDbEntity
  8
0
100
AcDbLine
 62
2
  6
CONTINUOUS
 10
47.7635672791
 20
25.6384450745
 11
48.3186373893
 21
26.1935151848
  0
LINE
  5
319
100
AcDbEntity
  8
0
100
AcDbLine
 62
2
  6
CONTINUOUS
 10
47.7241936489
 20
25.6852795242
 11
48.2742393062
 21
26.2353251815
  0
LINE
  5
31A
100
AcDbEntity
  8
0
100
AcDbLine
 62
2
  6
CONTINUOUS
 10
47.6848200188
 20
25.7321139739
 11
48.2298412232
 21
26.2771351783
  0
LINE
  5
31B
100
AcDbEntity
  8
0
100
AcDbLine
 62
2
  6
CONTINUOUS
 10
47.6454463887
 20
25.7789484236
 11
48.1854431401
 21
26.318945175
  0
LINE
  5
31C
100
AcDbEntity
  8
0
100
AcDbLine
 62
2
  6
CONTINUOUS
 10
47.6058667835
 20
25.8255768982
 11
48.141045057
 21
26.3607551717
  0
LINE
  5
31D
100
AcDbEntity
  8
0
100
AcDbLine
 62
2
  6
CONTINUOUS
 10
47.5628197016
 20
25.8687378962
 11
48.0952344431
 21
26.4011526377
  0
LINE
  5
31E
100
AcDbEntity
  8
0
100
AcDbLine
 62
2
  6
CONTINUOUS
 10
47.5197726197
 20
25.9118988941
 11
48.0467576357
 21
26.4388839101
  0
LINE
  5
31F
100
AcDbEntity
  8
0
100
AcDbLine
 62
2
  6
CONTINUOUS
 10
47.4767255378
 20
25.955059892
 11
47.9982808283
 21
26.4766151825
  0
LINE
  5
320
100
AcDbEntity
  8
0
100
AcDbLine
 62
2
  6
CONTINUOUS
 10
47.4336784559
 20
25.9982208899
 11
47.9498040209
 21
26.5143464549
  0
LINE
  5
321
100
AcDbEntity
  8
0
100
AcDbLine
 62
2
  6
CONTINUOUS
 10
47.390631374
 20
26.0413818879
 11
47.9013272135
 21
26.5520777273
  0
LINE
  5
322
100
AcDbEntity
  8
0
100
AcDbLine
 62
2
  6
CONTINUOUS
 10
47.3475842921
 20
26.0845428858
 11
47.8528504061
 21
26.5898089998
  0
LINE
  5
323
100
AcDbEntity
  8
0
100
AcDbLine
 62
2
  6
CONTINUOUS
 10
47.3014493334
 20
26.1246160069
 11
47.8043735987
 21
26.6275402722
  0
LINE
  5
324
100
AcDbEntity
  8
0
100
AcDbLine
 62
2
  6
CONTINUOUS
 10
47.2549007312
 20
26.1642754845
 11
47.7558967912
 21
26.6652715446
  0
LINE
  5
325
100
AcDbEntity
  8
0
100
AcDbLine
 62
2
  6
CONTINUOUS
 10
47.2083521289
 20
26.2039349621
 11
47.7074199838
 21
26.703002817
  0
LINE
  5
326
100
AcDbEntity
  8
0
100
AcDbLine
 62
2
  6
CONTINUOUS
 10
47.1618035267
 20
26.2435944397
 11
47.6589431764
 21
26.7407340894
  0
LINE
  5
327
100
AcDbEntity
  8
0
100
AcDbLine
 62
2
  6
CONTINUOUS
 10
47.1152549245
 20
26.2832539173
 11
47.6068797473
 21
26.7748787401
  0
LINE
  5
328
100
AcDbEntity
  8
0
100
AcDbLine
 62
2
  6
CONTINUOUS
 10
47.0687063222
 20
26.3229133949
 11
47.5538753589
 21
26.8080824315
  0
LINE
  5
329
100
AcDbEntity
  8
0
100
AcDbLine
 62
2
  6
CONTINUOUS
 10
47.0194096609
 20
26.3598248133
 11
47.5008709705
 21
26.841286123
  0
LINE
  5
32A
100
AcDbEntity
  8
0
100
AcDbLine
 62
2
  6
CONTINUOUS
 10
46.9695272008
 20
26.3961504331
 11
47.4478665821
 21
26.8744898144
  0
LINE
  5
32B
100
AcDbEntity
  8
0
100
AcDbLine
 62
2
  6
CONTINUOUS
 10
46.9196447407
 20
26.4324760528
 11
47.3948621937
 21
26.9076935058
  0
LINE
  5
32C
100
AcDbEntity
  8
0
100
AcDbLine
 62
2
  6
CONTINUOUS
 10
46.8697622807
 20
26.4688016726
 11
47.3418578053
 21
26.9408971972
  0
LINE
  5
32D
100
AcDbEntity
  8
0
100
AcDbLine
 62
2
  6
CONTINUOUS
 10
46.8198798206
 20
26.5051272923
 11
47.2888534169
 21
26.9741008886
  0
LINE
  5
32E
100
AcDbEntity
  8
0
100
AcDbLine
 62
2
  6
CONTINUOUS
 10
46.7699973605
 20
26.5414529121
 11
47.2358490284
 21
27.00730458
  0
LINE
  5
32F
100
AcDbEntity
  8
0
100
AcDbLine
 62
2
  6
CONTINUOUS
 10
46.7172894665
 20
26.5749530979
 11
47.18284464
 21
27.0405082714
  0
LINE
  5
330
100
AcDbEntity
  8
0
100
AcDbLine
 62
2
  6
CONTINUOUS
 10
46.6642375982
 20
26.6081093094
 11
47.1298402516
 21
27.0737119628
  0
LINE
  5
331
100
AcDbEntity
  8
0
100
AcDbLine
 62
2
  6
CONTINUOUS
 10
46.61118573
 20
26.641265521
 11
47.0735283146
 21
27.1036081057
  0
LINE
  5
332
100
AcDbEntity
  8
0
100
AcDbLine
 62
2
  6
CONTINUOUS
 10
46.5581338617
 20
26.6744217326
 11
47.0155148366
 21
27.1318027074
  0
LINE
  5
333
100
AcDbEntity
  8
0
100
AcDbLine
 62
2
  6
CONTINUOUS
 10
46.5050819935
 20
26.7075779442
 11
46.9575013585
 21
27.1599973092
  0
LINE
  5
334
100
AcDbEntity
  8
0
100
AcDbLine
 62
2
  6
CONTINUOUS
 10
46.4517548229
 20
26.7404588534
 11
46.8994878805
 21
27.188191911
  0
LINE
  5
335
100
AcDbEntity
  8
0
100
AcDbLine
 62
2
  6
CONTINUOUS
 10
46.3956959096
 20
26.7706080199
 11
46.8414744024
 21
27.2163865128
  0
LINE
  5
336
100
AcDbEntity
  8
0
100
AcDbLine
 62
2
  6
CONTINUOUS
 10
46.3396369963
 20
26.8007571864
 11
46.7834609244
 21
27.2445811146
  0
LINE
  5
337
100
AcDbEntity
  8
0
100
AcDbLine
 62
2
  6
CONTINUOUS
 10
46.283578083
 20
26.830906353
 11
46.7254474464
 21
27.2727757163
  0
LINE
  5
338
100
AcDbEntity
  8
0
100
AcDbLine
 62
2
  6
CONTINUOUS
 10
46.2275191697
 20
26.8610555195
 11
46.6674339683
 21
27.3009703181
  0
LINE
  5
339
100
AcDbEntity
  8
0
100
AcDbLine
 62
2
  6
CONTINUOUS
 10
46.1714602564
 20
26.891204686
 11
46.6094204903
 21
27.3291649199
  0
LINE
  5
33A
100
AcDbEntity
  8
0
100
AcDbLine
 62
2
  6
CONTINUOUS
 10
46.1138804382
 20
26.9198329477
 11
46.5514070122
 21
27.3573595217
  0
LINE
  5
33B
100
AcDbEntity
  8
0
100
AcDbLine
 62
2
  6
CONTINUOUS
 10
46.0543063741
 20
26.9464669634
 11
46.4932077176
 21
27.3853683069
  0
LINE
  5
33C
100
AcDbEntity
  8
0
100
AcDbLine
 62
2
  6
CONTINUOUS
 10
45.99473231
 20
26.9731009791
 11
46.4296556594
 21
27.4080243285
  0
LINE
  5
33D
100
AcDbEntity
  8
0
100
AcDbLine
 62
2
  6
CONTINUOUS
 10
45.9351582458
 20
26.9997349948
 11
46.3661036011
 21
27.4306803501
  0
LINE
  5
33E
100
AcDbEntity
  8
0
100
AcDbLine
 62
2
  6
CONTINUOUS
 10
45.8755841817
 20
27.0263690105
 11
46.3025515429
 21
27.4533363716
  0
LINE
  5
33F
100
AcDbEntity
  8
0
100
AcDbLine
 62
2
  6
CONTINUOUS
 10
45.8160101176
 20
27.0530030262
 11
46.2389994847
 21
27.4759923932
  0
LINE
  5
340
100
AcDbEntity
  8
0
100
AcDbLine
 62
2
  6
CONTINUOUS
 10
45.7564360535
 20
27.0796370419
 11
46.1754474264
 21
27.4986484148
  0
LINE
  5
341
100
AcDbEntity
  8
0
100
AcDbLine
 62
2
  6
CONTINUOUS
 10
45.6968619894
 20
27.1062710576
 11
46.1118953682
 21
27.5213044364
  0
LINE
  5
342
100
AcDbEntity
  8
0
100
AcDbLine
 62
2
  6
CONTINUOUS
 10
45.6364037472
 20
27.1320208952
 11
46.0483433099
 21
27.543960458
  0
LINE
  5
343
100
AcDbEntity
  8
0
100
AcDbLine
 62
2
  6
CONTINUOUS
 10
45.5729276573
 20
27.1547528852
 11
45.9847912517
 21
27.5666164795
  0
LINE
  5
344
100
AcDbEntity
  8
0
100
AcDbLine
 62
2
  6
CONTINUOUS
 10
45.5094515674
 20
27.1774848751
 11
45.9212391934
 21
27.5892725011
  0
LINE
  5
345
100
AcDbEntity
  8
0
100
AcDbLine
 62
2
  6
CONTINUOUS
 10
45.4459754775
 20
27.2002168651
 11
45.8576871352
 21
27.6119285227
  0
LINE
  5
346
100
AcDbEntity
  8
0
100
AcDbLine
 62
2
  6
CONTINUOUS
 10
45.3824993877
 20
27.222948855
 11
45.7941350769
 21
27.6345845443
  0
LINE
  5
347
100
AcDbEntity
  8
0
100
AcDbLine
 62
2
  6
CONTINUOUS
 10
45.3190232978
 20
27.2456808449
 11
45.7244839001
 21
27.6511414472
  0
LINE
  5
348
100
AcDbEntity
  8
0
100
AcDbLine
 62
2
  6
CONTINUOUS
 10
45.2555472079
 20
27.2684128349
 11
45.6548003004
 21
27.6676659274
  0
LINE
  5
349
100
AcDbEntity
  8
0
100
AcDbLine
 62
2
  6
CONTINUOUS
 10
45.192071118
 20
27.2911448248
 11
45.5851167007
 21
27.6841904075
  0
LINE
  5
34A
100
AcDbEntity
  8
0
100
AcDbLine
 62
2
  6
CONTINUOUS
 10
45.1272424558
 20
27.3125242424
 11
45.515433101
 21
27.7007148877
  0
LINE
  5
34B
100
AcDbEntity
  8
0
100
AcDbLine
 62
2
  6
CONTINUOUS
 10
45.0602405945
 20
27.3317304609
 11
45.4457495014
 21
27.7172393678
  0
LINE
  5
34C
100
AcDbEntity
  8
0
100
AcDbLine
 62
2
  6
CONTINUOUS
 10
44.9932387332
 20
27.3509366795
 11
45.3760659017
 21
27.733763848
  0
LINE
  5
34D
100
AcDbEntity
  8
0
100
AcDbLine
 62
2
  6
CONTINUOUS
 10
44.9262368719
 20
27.370142898
 11
45.306382302
 21
27.7502883281
  0
LINE
  5
34E
100
AcDbEntity
  8
0
100
AcDbLine
 62
2
  6
CONTINUOUS
 10
44.8592350107
 20
27.3893491166
 11
45.2366987024
 21
27.7668128083
  0
LINE
  5
34F
100
AcDbEntity
  8
0
100
AcDbLine
 62
2
  6
CONTINUOUS
 10
44.7922331494
 20
27.4085553351
 11
45.1670151027
 21
27.7833372884
  0
LINE
  5
350
100
AcDbEntity
  8
0
100
AcDbLine
 62
2
  6
CONTINUOUS
 10
44.7252312881
 20
27.4277615537
 11
45.097331503
 21
27.7998617686
  0
LINE
  5
351
100
AcDbEntity
  8
0
100
AcDbLine
 62
2
  6
CONTINUOUS
 10
44.6582294269
 20
27.4469677723
 11
45.0276479033
 21
27.8163862487
  0
LINE
  5
352
100
AcDbEntity
  8
0
100
AcDbLine
 62
2
  6
CONTINUOUS
 10
44.588314562
 20
27.4632609872
 11
44.9541567572
 21
27.8291031824
  0
LINE
  5
353
100
AcDbEntity
  8
0
100
AcDbLine
 62
2
  6
CONTINUOUS
 10
44.5181845595
 20
27.4793390646
 11
44.8783968053
 21
27.8395513104
  0
LINE
  5
354
100
AcDbEntity
  8
0
100
AcDbLine
 62
2
  6
CONTINUOUS
 10
44.4480545571
 20
27.495417142
 11
44.8026368535
 21
27.8499994383
  0
LINE
  5
355
100
AcDbEntity
  8
0
100
AcDbLine
 62
2
  6
CONTINUOUS
 10
44.3779245547
 20
27.5114952194
 11
44.7268769016
 21
27.8604475663
  0
LINE
  5
356
100
AcDbEntity
  8
0
100
AcDbLine
 62
2
  6
CONTINUOUS
 10
44.3077945522
 20
27.5275732967
 11
44.6511169498
 21
27.8708956943
  0
LINE
  5
357
100
AcDbEntity
  8
0
100
AcDbLine
 62
2
  6
CONTINUOUS
 10
44.2376645498
 20
27.5436513741
 11
44.5753569979
 21
27.8813438223
  0
LINE
  5
358
100
AcDbEntity
  8
0
100
AcDbLine
 62
2
  6
CONTINUOUS
 10
44.1675345473
 20
27.5597294515
 11
44.4995970461
 21
27.8917919502
  0
LINE
  5
359
100
AcDbEntity
  8
0
100
AcDbLine
 62
2
  6
CONTINUOUS
 10
44.0949884531
 20
27.5733914371
 11
44.4238370942
 21
27.9022400782
  0
LINE
  5
35A
100
AcDbEntity
  8
0
100
AcDbLine
 62
2
  6
CONTINUOUS
 10
44.0221645067
 20
27.5867755705
 11
44.3480771423
 21
27.9126882062
  0
LINE
  5
35B
100
AcDbEntity
  8
0
100
AcDbLine
 62
2
  6
CONTINUOUS
 10
43.9493405603
 20
27.6001597039
 11
44.2702370434
 21
27.921056187
  0
LINE
  5
35C
100
AcDbEntity
  8
0
100
AcDbLine
 62
2
  6
CONTINUOUS
 10
43.8765166139
 20
27.6135438373
 11
44.1885461952
 21
27.9255734187
  0
LINE
  5
35D
100
AcDbEntity
  8
0
100
AcDbLine
 62
2
  6
CONTINUOUS
 10
43.8036926675
 20
27.6269279708
 11
44.1068553471
 21
27.9300906504
  0
LINE
  5
35E
100
AcDbEntity
  8
0
100
AcDbLine
 62
2
  6
CONTINUOUS
 10
43.7308687211
 20
27.6403121042
 11
44.025164499
 21
27.9346078821
  0
LINE
  5
35F
100
AcDbEntity
  8
0
100
AcDbLine
 62
2
  6
CONTINUOUS
 10
43.6573668307
 20
27.6530182937
 11
43.9434736508
 21
27.9391251138
  0
LINE
  5
360
100
AcDbEntity
  8
0
100
AcDbLine
 62
2
  6
CONTINUOUS
 10
43.5823417296
 20
27.6642012723
 11
43.8617828027
 21
27.9436423455
  0
LINE
  5
361
100
AcDbEntity
  8
0
100
AcDbLine
 62
2
  6
CONTINUOUS
 10
43.5073166284
 20
27.675384251
 11
43.7800919546
 21
27.9481595771
  0
LINE
  5
362
100
AcDbEntity
  8
0
100
AcDbLine
 62
2
  6
CONTINUOUS
 10
43.4322915273
 20
27.6865672297
 11
43.6984011064
 21
27.9526768088
  0
LINE
  5
363
100
AcDbEntity
  8
0
100
AcDbLine
 62
2
  6
CONTINUOUS
 10
43.3572664261
 20
27.6977502084
 11
43.6167102583
 21
27.9571940405
  0
LINE
  5
364
100
AcDbEntity
  8
0
100
AcDbLine
 62
2
  6
CONTINUOUS
 10
43.282241325
 20
27.708933187
 11
43.5350194101
 21
27.9617112722
  0
LINE
  5
365
100
AcDbEntity
  8
0
100
AcDbLine
 62
2
  6
CONTINUOUS
 10
43.20632099
 20
27.7192209319
 11
43.4471098527
 21
27.9600097946
  0
LINE
  5
366
100
AcDbEntity
  8
0
100
AcDbLine
 62
2
  6
CONTINUOUS
 10
43.1266354424
 20
27.7257434641
 11
43.3589379945
 21
27.9580460162
  0
LINE
  5
367
100
AcDbEntity
  8
0
100
AcDbLine
 62
2
  6
CONTINUOUS
 10
43.0469498948
 20
27.7322659963
 11
43.2707661363
 21
27.9560822378
  0
LINE
  5
368
100
AcDbEntity
  8
0
100
AcDbLine
 62
2
  6
CONTINUOUS
 10
42.9672643472
 20
27.7387885285
 11
43.182594278
 21
27.9541184594
  0
LINE
  5
369
100
AcDbEntity
  8
0
100
AcDbLine
 62
2
  6
CONTINUOUS
 10
42.885942625
 20
27.7436748862
 11
43.0944224198
 21
27.952154681
  0
LINE
  5
36A
100
AcDbEntity
  8
0
100
AcDbLine
 62
2
  6
CONTINUOUS
 10
42.7994625184
 20
27.7434028594
 11
43.0062505616
 21
27.9501909026
  0
LINE
  5
36B
100
AcDbEntity
  8
0
100
AcDbLine
 62
2
  6
CONTINUOUS
 10
42.7129824118
 20
27.7431308326
 11
42.9180787034
 21
27.9482271242
  0
LINE
  5
36C
100
AcDbEntity
  8
0
100
AcDbLine
 62
2
  6
CONTINUOUS
 10
42.6265023051
 20
27.7428588058
 11
42.8299068451
 21
27.9462633458
  0
LINE
  5
36D
100
AcDbEntity
  8
0
100
AcDbLine
 62
2
  6
CONTINUOUS
 10
42.5388431931
 20
27.7414077736
 11
42.7417349869
 21
27.9442995674
  0
LINE
  5
36E
100
AcDbEntity
  8
0
100
AcDbLine
 62
2
  6
CONTINUOUS
 10
42.4463904027
 20
27.735163063
 11
42.6500430828
 21
27.9388157431
  0
LINE
  5
36F
100
AcDbEntity
  8
0
100
AcDbLine
 62
2
  6
CONTINUOUS
 10
42.3539376123
 20
27.7289183524
 11
42.5547659401
 21
27.9297466802
  0
LINE
  5
370
100
AcDbEntity
  8
0
100
AcDbLine
 62
2
  6
CONTINUOUS
 10
42.2614848219
 20
27.7226736418
 11
42.4594887973
 21
27.9206776172
  0
LINE
  5
371
100
AcDbEntity
  8
0
100
AcDbLine
 62
2
  6
CONTINUOUS
 10
42.1685822141
 20
27.7159791139
 11
42.3642116545
 21
27.9116085543
  0
LINE
  5
372
100
AcDbEntity
  8
0
100
AcDbLine
 62
2
  6
CONTINUOUS
 10
42.0708380084
 20
27.704442988
 11
42.2689345118
 21
27.9025394914
  0
LINE
  5
373
100
AcDbEntity
  8
0
100
AcDbLine
 62
2
  6
CONTINUOUS
 10
41.9730938028
 20
27.6929068622
 11
42.173657369
 21
27.8934704284
  0
LINE
  5
374
100
AcDbEntity
  8
0
100
AcDbLine
 62
2
  6
CONTINUOUS
 10
41.8753495971
 20
27.6813707363
 11
42.0783802263
 21
27.8844013655
  0
LINE
  5
375
100
AcDbEntity
  8
0
100
AcDbLine
 62
2
  6
CONTINUOUS
 10
41.7776053915
 20
27.6698346105
 11
41.9831030835
 21
27.8753323026
  0
LINE
  5
376
100
AcDbEntity
  8
0
100
AcDbLine
 62
2
  6
CONTINUOUS
 10
41.6748164403
 20
27.6532537392
 11
41.8878259407
 21
27.8662632396
  0
LINE
  5
377
100
AcDbEntity
  8
0
100
AcDbLine
 62
2
  6
CONTINUOUS
 10
41.5716288863
 20
27.636274265
 11
41.7925426353
 21
27.857188014
  0
LINE
  5
378
100
AcDbEntity
  8
0
100
AcDbLine
 62
2
  6
CONTINUOUS
 10
41.4684413324
 20
27.6192947909
 11
41.6894466412
 21
27.8403000997
  0
LINE
  5
379
100
AcDbEntity
  8
0
100
AcDbLine
 62
2
  6
CONTINUOUS
 10
41.3652537784
 20
27.6023153168
 11
41.5863506471
 21
27.8234121854
  0
LINE
  5
37A
100
AcDbEntity
  8
0
100
AcDbLine
 62
2
  6
CONTINUOUS
 10
41.2620662245
 20
27.5853358426
 11
41.4832546529
 21
27.8065242711
  0
LINE
  5
37B
100
AcDbEntity
  8
0
100
AcDbLine
 62
2
  6
CONTINUOUS
 10
41.1569613817
 20
27.5664390797
 11
41.3801586588
 21
27.7896363568
  0
LINE
  5
37C
100
AcDbEntity
  8
0
100
AcDbLine
 62
2
  6
CONTINUOUS
 10
41.0483135409
 20
27.5439993187
 11
41.2770626647
 21
27.7727484425
  0
LINE
  5
37D
100
AcDbEntity
  8
0
100
AcDbLine
 62
2
  6
CONTINUOUS
 10
40.9396657002
 20
27.5215595578
 11
41.1739666705
 21
27.7558605282
  0
LINE
  5
37E
100
AcDbEntity
  8
0
100
AcDbLine
 62
2
  6
CONTINUOUS
 10
40.8310178594
 20
27.4991197968
 11
41.0708706764
 21
27.7389726139
  0
LINE
  5
37F
100
AcDbEntity
  8
0
100
AcDbLine
 62
2
  6
CONTINUOUS
 10
40.7223700186
 20
27.4766800359
 11
40.9677746823
 21
27.7220846996
  0
LINE
  5
380
100
AcDbEntity
  8
0
100
AcDbLine
 62
2
  6
CONTINUOUS
 10
40.6137221778
 20
27.454240275
 11
40.8646786882
 21
27.7051967853
  0
LINE
  5
381
100
AcDbEntity
  8
0
100
AcDbLine
 62
2
  6
CONTINUOUS
 10
40.5012993496
 20
27.4280255265
 11
40.7575025002
 21
27.6842286771
  0
LINE
  5
382
100
AcDbEntity
  8
0
100
AcDbLine
 62
2
  6
CONTINUOUS
 10
40.3878728657
 20
27.4008071225
 11
40.646530581
 21
27.6594648377
  0
LINE
  5
383
100
AcDbEntity
  8
0
100
AcDbLine
 62
2
  6
CONTINUOUS
 10
40.2744463818
 20
27.3735887184
 11
40.5355586618
 21
27.6347009984
  0
LINE
  5
384
100
AcDbEntity
  8
0
100
AcDbLine
 62
2
  6
CONTINUOUS
 10
40.161019898
 20
27.3463703144
 11
40.4245867426
 21
27.609937159
  0
LINE
  5
385
100
AcDbEntity
  8
0
100
AcDbLine
 62
2
  6
CONTINUOUS
 10
40.0475934141
 20
27.3191519103
 11
40.3136148234
 21
27.5851733197
  0
LINE
  5
386
100
AcDbEntity
  8
0
100
AcDbLine
 62
2
  6
CONTINUOUS
 10
39.9326287958
 20
27.2903953718
 11
40.2026429042
 21
27.5604094803
  0
LINE
  5
387
100
AcDbEntity
  8
0
100
AcDbLine
 62
2
  6
CONTINUOUS
 10
39.8140430351
 20
27.258017691
 11
40.091670985
 21
27.5356456409
  0
LINE
  5
388
100
AcDbEntity
  8
0
100
AcDbLine
 62
2
  6
CONTINUOUS
 10
39.6954572744
 20
27.2256400102
 11
39.9806990659
 21
27.5108818016
  0
LINE
  5
389
100
AcDbEntity
  8
0
100
AcDbLine
 62
2
  6
CONTINUOUS
 10
39.5768715138
 20
27.1932623293
 11
39.8645803852
 21
27.4809712007
  0
LINE
  5
38A
100
AcDbEntity
  8
0
100
AcDbLine
 62
2
  6
CONTINUOUS
 10
39.4582857531
 20
27.1608846485
 11
39.7457563699
 21
27.4483552653
  0
LINE
  5
38B
100
AcDbEntity
  8
0
100
AcDbLine
 62
2
  6
CONTINUOUS
 10
39.3396999924
 20
27.1285069676
 11
39.6269323547
 21
27.4157393299
  0
LINE
  5
38C
100
AcDbEntity
  8
0
100
AcDbLine
 62
2
  6
CONTINUOUS
 10
39.2211142318
 20
27.0961292868
 11
39.5081083395
 21
27.3831233945
  0
LINE
  5
38D
100
AcDbEntity
  8
0
100
AcDbLine
 62
2
  6
CONTINUOUS
 10
39.1025284711
 20
27.0637516059
 11
39.3892843243
 21
27.3505074592
  0
LINE
  5
38E
100
AcDbEntity
  8
0
100
AcDbLine
 62
2
  6
CONTINUOUS
 10
38.9822914241
 20
27.0297226388
 11
39.2704603091
 21
27.3178915238
  0
LINE
  5
38F
100
AcDbEntity
  8
0
100
AcDbLine
 62
2
  6
CONTINUOUS
 10
38.8583844671
 20
26.9920237615
 11
39.1516362939
 21
27.2852755884
  0
LINE
  5
390
100
AcDbEntity
  8
0
100
AcDbLine
 62
2
  6
CONTINUOUS
 10
38.73447751
 20
26.9543248843
 11
39.0328122787
 21
27.252659653
  0
LINE
  5
391
100
AcDbEntity
  8
0
100
AcDbLine
 62
2
  6
CONTINUOUS
 10
38.610570553
 20
26.9166260071
 11
38.9066374483
 21
27.2126929024
  0
LINE
  5
392
100
AcDbEntity
  8
0
100
AcDbLine
 62
2
  6
CONTINUOUS
 10
38.4866635959
 20
26.8789271299
 11
38.7792171399
 21
27.1714806738
  0
LINE
  5
393
100
AcDbEntity
  8
0
100
AcDbLine
 62
2
  6
CONTINUOUS
 10
38.3627566389
 20
26.8412282526
 11
38.6517968314
 21
27.1302684452
  0
LINE
  5
394
100
AcDbEntity
  8
0
100
AcDbLine
 62
2
  6
CONTINUOUS
 10
38.2388496818
 20
26.8035293754
 11
38.524376523
 21
27.0890562165
  0
LINE
  5
395
100
AcDbEntity
  8
0
100
AcDbLine
 62
2
  6
CONTINUOUS
 10
38.1149427248
 20
26.7658304982
 11
38.3969562145
 21
27.0478439879
  0
LINE
  5
396
100
AcDbEntity
  8
0
100
AcDbLine
 62
2
  6
CONTINUOUS
 10
37.9879986918
 20
26.725094545
 11
38.269535906
 21
27.0066317593
  0
LINE
  5
397
100
AcDbEntity
  8
0
100
AcDbLine
 62
2
  6
CONTINUOUS
 10
37.8602326614
 20
26.6835365945
 11
38.1421155976
 21
26.9654195307
  0
LINE
  5
398
100
AcDbEntity
  8
0
100
AcDbLine
 62
2
  6
CONTINUOUS
 10
37.732466631
 20
26.6419786439
 11
38.0133577366
 21
26.9228697495
  0
LINE
  5
399
100
AcDbEntity
  8
0
100
AcDbLine
 62
2
  6
CONTINUOUS
 10
37.6047006006
 20
26.6004206933
 11
37.876488207
 21
26.8722082997
  0
LINE
  5
39A
100
AcDbEntity
  8
0
100
AcDbLine
 62
2
  6
CONTINUOUS
 10
37.47660435
 20
26.5585325226
 11
37.7396186773
 21
26.8215468499
  0
LINE
  5
39B
100
AcDbEntity
  8
0
100
AcDbLine
 62
2
  6
CONTINUOUS
 10
37.3461069677
 20
26.5142432201
 11
37.6027491477
 21
26.7708854
  0
LINE
  5
39C
100
AcDbEntity
  8
0
100
AcDbLine
 62
2
  6
CONTINUOUS
 10
37.2156095854
 20
26.4699539176
 11
37.465879618
 21
26.7202239502
  0
LINE
  5
39D
100
AcDbEntity
  8
0
100
AcDbLine
 62
2
  6
CONTINUOUS
 10
37.0851122031
 20
26.4256646151
 11
37.3290100883
 21
26.6695625004
  0
LINE
  5
39E
100
AcDbEntity
  8
0
100
AcDbLine
 62
2
  6
CONTINUOUS
 10
36.9546148208
 20
26.3813753126
 11
37.1921405587
 21
26.6189010505
  0
LINE
  5
39F
100
AcDbEntity
  8
0
100
AcDbLine
 62
2
  6
CONTINUOUS
 10
36.8221354522
 20
26.3351040238
 11
37.055271029
 21
26.5682396007
  0
LINE
  5
3A0
100
AcDbEntity
  8
0
100
AcDbLine
 62
2
  6
CONTINUOUS
 10
36.6891554786
 20
26.2883321301
 11
36.9127745843
 21
26.5119512358
  0
LINE
  5
3A1
100
AcDbEntity
  8
0
100
AcDbLine
 62
2
  6
CONTINUOUS
 10
36.556175505
 20
26.2415602363
 11
36.7654715851
 21
26.4508563164
  0
LINE
  5
3A2
100
AcDbEntity
  8
0
100
AcDbLine
 62
2
  6
CONTINUOUS
 10
36.4231955314
 20
26.1947883425
 11
36.6181685859
 21
26.389761397
  0
LINE
  5
3A3
100
AcDbEntity
  8
0
100
AcDbLine
 62
2
  6
CONTINUOUS
 10
36.2884603672
 20
26.1462612582
 11
36.4708655867
 21
26.3286664776
  0
LINE
  5
3A4
100
AcDbEntity
  8
0
100
AcDbLine
 62
2
  6
CONTINUOUS
 10
36.1534726342
 20
26.0974816049
 11
36.3235625875
 21
26.2675715583
  0
LINE
  5
3A5
100
AcDbEntity
  8
0
100
AcDbLine
 62
2
  6
CONTINUOUS
 10
36.0181259629
 20
26.0483430135
 11
36.1762595883
 21
26.2064766389
  0
LINE
  5
3A6
100
AcDbEntity
  8
0
100
AcDbLine
 62
2
  6
CONTINUOUS
 10
35.8815467071
 20
25.9979718375
 11
36.0289565891
 21
26.1453817195
  0
LINE
  5
3A7
100
AcDbEntity
  8
0
100
AcDbLine
 62
2
  6
CONTINUOUS
 10
35.7449674513
 20
25.9476006615
 11
35.8808091012
 21
26.0834423114
  0
LINE
  5
3A8
100
AcDbEntity
  8
0
100
AcDbLine
 62
2
  6
CONTINUOUS
 10
35.6071118331
 20
25.8959531232
 11
35.7219283422
 21
26.0107696323
  0
LINE
  5
3A9
100
AcDbEntity
  8
0
100
AcDbLine
 62
2
  6
CONTINUOUS
 10
35.4690396605
 20
25.8440890304
 11
35.5630475833
 21
25.9380969532
  0
LINE
  5
3AA
100
AcDbEntity
  8
0
100
AcDbLine
 62
2
  6
CONTINUOUS
 10
35.3298656022
 20
25.7911230519
 11
35.4041668244
 21
25.8654242741
  0
LINE
  5
3AB
100
AcDbEntity
  8
0
100
AcDbLine
 62
2
  6
CONTINUOUS
 10
35.1903372595
 20
25.7378027891
 11
35.2452860654
 21
25.792751595
  0
LINE
  5
3AC
100
AcDbEntity
  8
0
100
AcDbLine
 62
2
  6
CONTINUOUS
 10
35.0495433013
 20
25.6832169107
 11
35.0864053065
 21
25.7200789159
  0
LINE
  5
3AD
100
AcDbEntity
  8
0
100
AcDbLine
 62
2
  6
CONTINUOUS
 10
34.9079518571
 20
25.6278335463
 11
34.9275245476
 21
25.6474062368
  0
LINE
  5
3AE
100
AcDbEntity
  8
0
100
AcDbLine
 62
2
  6
CONTINUOUS
 10
34.7652041266
 20
25.5712938956
 11
34.7686437887
 21
25.5747335577
  0
ENDBLK
  5
3AF
100
AcDbEntity
  8
0
  6
BYBLOCK
 62
0
100
AcDbBlockEnd
  0
BLOCK
  5
3B0
100
AcDbEntity
  8
0
100
AcDbBlockBegin
  2
_FILLED
 70
64
 10
0.0
 20
0.0
  3
_FILLED
  1

  0
SOLID
  5
3B1
100
AcDbEntity
  8
0
  6
BYBLOCK
 62
0
100
AcDbTrace
 10
0.0
 20
0.0
 11
-1.0
 21
0.1666666667
 12
-1.0
 22
-0.1666666667
 13
-1.0
 23
-0.1666666667
  0
ENDBLK
  5
3B2
100
AcDbEntity
  8
0
  6
BYBLOCK
 62
0
100
AcDbBlockEnd
  0
BLOCK
  5
3B3
100
AcDbEntity
  8
0
100
AcDbBlockBegin
 62
2
  6
CONTINUOUS
  2
*D0
 70
65
 10
0.0
 20
0.0
  3
*D0
  1

  0
MTEXT
  5
3B4
100
AcDbEntity
  8
0
100
AcDbMText
 62
2
  6
CONTINUOUS
  7
TEXTSTYLE_1
 71
1
 72
1
 10
143.8494230656
 20
194.2832211251
 30
0.0
 11
1.0
 21
0.0
 31
0.0
 44
0.9
  1
{\Fgdt;n}\Ftxt;60
 40
3.0
 41
8.8
  0
LINE
  5
3B5
100
AcDbEntity
  8
0
100
AcDbLine
 62
2
  6
CONTINUOUS
 10
122.5449951365
 20
210.0673731609
 11
138.8494230656
 21
190.5332211251
  0
LINE
  5
3B6
100
AcDbEntity
  8
0
100
AcDbLine
 62
2
  6
CONTINUOUS
 10
138.8494230656
 20
190.5332211251
 11
140.8494230656
 21
190.5332211251
  0
LINE
  5
3B7
100
AcDbEntity
  8
0
100
AcDbLine
 62
2
  6
CONTINUOUS
 10
140.8494230656
 20
190.5332211251
 11
155.6494230656
 21
190.5332211251
  0
INSERT
  5
3B8
100
AcDbEntity
  8
0
100
AcDbBlockReference
 62
2
  6
CONTINUOUS
  2
_FILLED
 10
122.5449951365
 20
210.0673731609
 41
3.0
 42
3.0
 43
3.0
 50
129.8504925275
  0
ENDBLK
  5
3B9
100
AcDbEntity
  8
0
  6
BYBLOCK
 62
0
100
AcDbBlockEnd
  0
BLOCK
  5
3BA
100
AcDbEntity
  8
0
100
AcDbBlockBegin
 62
2
  6
CONTINUOUS
  2
*D1
 70
65
 10
0.0
 20
0.0
  3
*D1
  1

  0
MTEXT
  5
3BB
100
AcDbEntity
  8
0
100
AcDbMText
 62
2
  6
CONTINUOUS
  7
TEXTSTYLE_1
 71
2
 72
1
 10
109.8913586418
 20
242.588424329
 30
0.0
 11
1.0
 21
0.0
 31
0.0
 44
0.9
  1
{\Fgdt;n}\Ftxt;50
 40
3.0
 41
8.8
  0
LINE
  5
3BC
100
AcDbEntity
  8
0
100
AcDbLine
 62
2
  6
CONTINUOUS
 10
122.1489285345
 20
249.5465656133
 11
117.2913586418
 21
245.3030209984
  0
LINE
  5
3BD
100
AcDbEntity
  8
0
100
AcDbLine
 62
2
  6
CONTINUOUS
 10
84.4938711967
 20
216.6513280113
 11
107.315791928
 21
236.588424329
  0
INSERT
  5
3BE
100
AcDbEntity
  8
0
100
AcDbBlockReference
 62
2
  6
CONTINUOUS
  2
_FILLED
 10
122.1489285345
 20
249.5465656133
 41
3.0
 42
3.0
 43
3.0
 50
41.1402723645
  0
INSERT
  5
3BF
100
AcDbEntity
  8
0
100
AcDbBlockReference
 62
2
  6
CONTINUOUS
  2
_FILLED
 10
84.4938711967
 20
216.6513280113
 41
3.0
 42
3.0
 43
3.0
 50
221.1402723645
  0
ENDBLK
  5
3C0
100
AcDbEntity
  8
0
  6
BYBLOCK
 62
0
100
AcDbBlockEnd
  0
BLOCK
  5
3C1
100
AcDbEntity
  8
0
100
AcDbBlockBegin
 62
2
  6
CONTINUOUS
  2
*D2
 70
65
 10
0.0
 20
0.0
  3
*D2
  1

  0
MTEXT
  5
3C2
100
AcDbEntity
  8
0
100
AcDbMText
 62
2
  6
CONTINUOUS
  7
STANDARD
 71
2
 72
1
 10
49.5885049096
 20
164.7118598743
 30
0.0
 11
0.0
 21
1.0
 31
0.0
 44
0.9
  1
30
 40
3.0
 41
4.8
  0
LINE
  5
3C3
100
AcDbEntity
  8
0
100
AcDbLine
 62
2
  6
CONTINUOUS
 10
72.436258882
 20
179.7118598743
 11
51.3385049096
 21
179.7118598743
  0
LINE
  5
3C4
100
AcDbEntity
  8
0
100
AcDbLine
 62
2
  6
CONTINUOUS
 10
72.3609127462
 20
149.7118598743
 11
51.3385049096
 21
149.7118598743
  0
LINE
  5
3C5
100
AcDbEntity
  8
0
100
AcDbLine
 62
2
  6
CONTINUOUS
 10
53.3385049096
 20
179.7118598743
 11
53.3385049096
 21
164.7118598743
  0
LINE
  5
3C6
100
AcDbEntity
  8
0
100
AcDbLine
 62
2
  6
CONTINUOUS
 10
53.3385049096
 20
149.7118598743
 11
53.3385049096
 21
164.7118598743
  0
INSERT
  5
3C7
100
AcDbEntity
  8
0
100
AcDbBlockReference
 62
2
  6
CONTINUOUS
  2
_FILLED
 10
53.3385049096
 20
179.7118598743
 41
3.0
 42
3.0
 43
3.0
 50
90.0
  0
INSERT
  5
3C8
100
AcDbEntity
  8
0
100
AcDbBlockReference
 62
2
  6
CONTINUOUS
  2
_FILLED
 10
53.3385049096
 20
149.7118598743
 41
3.0
 42
3.0
 43
3.0
 50
270.0
  0
ENDBLK
  5
3C9
100
AcDbEntity
  8
0
  6
BYBLOCK
 62
0
100
AcDbBlockEnd
  0
BLOCK
  5
3CA
100
AcDbEntity
  8
0
100
AcDbBlockBegin
 62
2
  6
CONTINUOUS
  2
*D3
 70
65
 10
0.0
 20
0.0
  3
*D3
  1

  0
MTEXT
  5
3CB
100
AcDbEntity
  8
0
100
AcDbMText
 62
2
  6
CONTINUOUS
  7
STANDARD
 71
2
 72
1
 10
88.6693403519
 20
175.7118598743
 30
0.0
 11
0.0
 21
1.0
 31
0.0
 44
0.9
  1
8
 40
3.0
 41
2.4
  0
LINE
  5
3CC
100
AcDbEntity
  8
0
100
AcDbLine
 62
2
  6
CONTINUOUS
 10
98.4333998656
 20
171.7118598743
 11
90.4193403519
 21
171.7118598743
  0
LINE
  5
3CD
100
AcDbEntity
  8
0
100
AcDbLine
 62
2
  6
CONTINUOUS
 10
92.4193403519
 20
179.7118598743
 11
92.4193403519
 21
184.7118598743
  0
LINE
  5
3CE
100
AcDbEntity
  8
0
100
AcDbLine
 62
2
  6
CONTINUOUS
 10
92.4193403519
 20
184.7118598743
 11
92.4193403519
 21
175.7118598743
  0
LINE
  5
3CF
100
AcDbEntity
  8
0
100
AcDbLine
 62
2
  6
CONTINUOUS
 10
92.4193403519
 20
171.7118598743
 11
92.4193403519
 21
166.7118598743
  0
LINE
  5
3D0
100
AcDbEntity
  8
0
100
AcDbLine
 62
2
  6
CONTINUOUS
 10
92.4193403519
 20
166.7118598743
 11
92.4193403519
 21
175.7118598743
  0
INSERT
  5
3D1
100
AcDbEntity
  8
0
100
AcDbBlockReference
 62
2
  6
CONTINUOUS
  2
_FILLED
 10
92.4193403519
 20
179.7118598743
 41
3.0
 42
3.0
 43
3.0
 50
270.0
  0
INSERT
  5
3D2
100
AcDbEntity
  8
0
100
AcDbBlockReference
 62
2
  6
CONTINUOUS
  2
_FILLED
 10
92.4193403519
 20
171.7118598743
 41
3.0
 42
3.0
 43
3.0
 50
90.0
  0
ENDBLK
  5
3D3
100
AcDbEntity
  8
0
  6
BYBLOCK
 62
0
100
AcDbBlockEnd
  0
BLOCK
  5
3D4
100
AcDbEntity
  8
0
100
AcDbBlockBegin
 62
2
  6
CONTINUOUS
  2
*D4
 70
65
 10
0.0
 20
0.0
  3
*D4
  1

  0
MTEXT
  5
3D5
100
AcDbEntity
  8
0
100
AcDbMText
 62
2
  6
CONTINUOUS
  7
STANDARD
 71
2
 72
1
 10
103.3213998656
 20
191.0307986885
 30
0.0
 11
1.0
 21
0.0
 31
0.0
 44
0.9
  1
10
 40
3.0
 41
4.8
  0
LINE
  5
3D6
100
AcDbEntity
  8
0
100
AcDbLine
 62
2
  6
CONTINUOUS
 10
108.3213998656
 20
179.5998598743
 11
108.3213998656
 21
189.2807986885
  0
LINE
  5
3D7
100
AcDbEntity
  8
0
100
AcDbLine
 62
2
  6
CONTINUOUS
 10
98.3213998656
 20
179.2478598743
 11
98.3213998656
 21
189.2807986885
  0
LINE
  5
3D8
100
AcDbEntity
  8
0
100
AcDbLine
 62
2
  6
CONTINUOUS
 10
108.3213998656
 20
187.2807986885
 11
103.3213998656
 21
187.2807986885
  0
LINE
  5
3D9
100
AcDbEntity
  8
0
100
AcDbLine
 62
2
  6
CONTINUOUS
 10
98.3213998656
 20
187.2807986885
 11
103.3213998656
 21
187.2807986885
  0
INSERT
  5
3DA
100
AcDbEntity
  8
0
100
AcDbBlockReference
 62
2
  6
CONTINUOUS
  2
_FILLED
 10
108.3213998656
 20
187.2807986885
 41
3.0
 42
3.0
 43
3.0
  0
INSERT
  5
3DB
100
AcDbEntity
  8
0
100
AcDbBlockReference
 62
2
  6
CONTINUOUS
  2
_FILLED
 10
98.3213998656
 20
187.2807986885
 41
3.0
 42
3.0
 43
3.0
 50
180.0
  0
ENDBLK
  5
3DC
100
AcDbEntity
  8
0
  6
BYBLOCK
 62
0
100
AcDbBlockEnd
  0
BLOCK
  5
3DD
100
AcDbEntity
  8
0
100
AcDbBlockBegin
 62
2
  6
CONTINUOUS
  2
*D5
 70
65
 10
0.0
 20
0.0
  3
*D5
  1

  0
MTEXT
  5
3DE
100
AcDbEntity
  8
0
100
AcDbMText
 62
2
  6
CONTINUOUS
  7
STANDARD
 71
2
 72
1
 10
141.9637434135
 20
256.9091142618
 30
0.0
 11
1.0
 21
0.0
 31
0.0
 44
0.9
  1
3 x 120\Fgdt;{\Fgdt;~}
 40
3.0
 41
18.8
  0
LINE
  5
3DF
100
AcDbEntity
  8
0
100
AcDbLine
 62
2
  6
CONTINUOUS
 10
129.5955725859
 20
217.9295461195
 11
143.6957942211
 21
209.7887793628
  0
LINE
  5
3E0
100
AcDbEntity
  8
0
100
AcDbLine
 62
2
  6
CONTINUOUS
 10
103.3213998656
 20
266.0989468123
 11
103.3213998656
 21
279.7192817113
  0
ARC
  5
3E1
100
AcDbEntity
  8
0
100
AcDbCircle
 62
2
  6
CONTINUOUS
 10
103.3213998656
 20
233.0989468123
 40
44.620334899
100
AcDbArc
 50
330.0
 51
23.5249966886
  0
ARC
  5
3E2
100
AcDbEntity
  8
0
100
AcDbCircle
 62
2
  6
CONTINUOUS
 10
103.3213998656
 20
233.0989468123
 40
44.620334899
100
AcDbArc
 50
36.9308617087
 51
90.0
  0
SOLID
  5
3E3
100
AcDbEntity
  8
0
100
AcDbTrace
 62
2
  6
CONTINUOUS
 10
142.9344022363
 20
213.6711085337
 11
141.9637434135
 21
210.7887793628
 12
143.8167436527
 22
213.2004986901
 13
143.8167436527
 23
213.2004986901
  0
SOLID
  5
3E4
100
AcDbEntity
  8
0
100
AcDbTrace
 62
2
  6
CONTINUOUS
 10
106.3365101894
 20
278.118167328
 11
103.3213998656
 21
277.7192817113
 12
106.3028995611
 22
277.1187323248
 13
106.3028995611
 23
277.1187323248
  0
ENDBLK
  5
3E5
100
AcDbEntity
  8
0
  6
BYBLOCK
 62
0
100
AcDbBlockEnd
  0
BLOCK
  5
3E6
100
AcDbEntity
  8
0
100
AcDbBlockBegin
 62
2
  6
CONTINUOUS
  2
*D6
 70
65
 10
0.0
 20
0.0
  3
*D6
  1

  0
MTEXT
  5
3E7
100
AcDbEntity
  8
0
100
AcDbMText
 62
2
  6
CONTINUOUS
  7
TEXTSTYLE_1
 71
3
 72
1
 10
66.7014058363
 20
258.7182437587
 30
0.0
 11
1.0
 21
0.0
 31
0.0
 44
0.9
  1
{\Fgdt;n}\Ftxt;54
 40
3.0
 41
8.8
  0
LINE
  5
3E8
100
AcDbEntity
  8
0
100
AcDbLine
 62
2
  6
CONTINUOUS
 10
81.1151571085
 20
248.4574227332
 11
71.7014058363
 21
254.9682437587
  0
LINE
  5
3E9
100
AcDbEntity
  8
0
100
AcDbLine
 62
2
  6
CONTINUOUS
 10
71.7014058363
 20
254.9682437587
 11
69.7014058363
 21
254.9682437587
  0
LINE
  5
3EA
100
AcDbEntity
  8
0
100
AcDbLine
 62
2
  6
CONTINUOUS
 10
69.7014058363
 20
254.9682437587
 11
54.9014058363
 21
254.9682437587
  0
INSERT
  5
3EB
100
AcDbEntity
  8
0
100
AcDbBlockReference
 62
2
  6
CONTINUOUS
  2
_FILLED
 10
81.1151571085
 20
248.4574227332
 41
3.0
 42
3.0
 43
3.0
 50
325.3311515816
  0
ENDBLK
  5
3EC
100
AcDbEntity
  8
0
  6
BYBLOCK
 62
0
100
AcDbBlockEnd
  0
BLOCK
  5
3ED
100
AcDbEntity
  8
0
100
AcDbBlockBegin
 62
2
  6
CONTINUOUS
  2
*D7
 70
65
 10
0.0
 20
0.0
  3
*D7
  1

  0
MTEXT
  5
3EE
100
AcDbEntity
  8
0
100
AcDbMText
 62
2
  6
CONTINUOUS
  7
STANDARD
 71
3
 72
1
 10
59.157912703
 20
219.5450516458
 30
0.0
 11
1.0
 21
0.0
 31
0.0
 44
0.9
  1
M3 (1)
 40
3.0
 41
14.4
  0
LINE
  5
3EF
100
AcDbEntity
  8
0
100
AcDbLine
 62
2
  6
CONTINUOUS
 10
78.4804797799
 20
219.2474456514
 11
64.157912703
 21
215.7950516458
  0
LINE
  5
3F0
100
AcDbEntity
  8
0
100
AcDbLine
 62
2
  6
CONTINUOUS
 10
64.157912703
 20
215.7950516458
 11
62.157912703
 21
215.7950516458
  0
LINE
  5
3F1
100
AcDbEntity
  8
0
100
AcDbLine
 62
2
  6
CONTINUOUS
 10
62.157912703
 20
215.7950516458
 11
41.757912703
 21
215.7950516458
  0
INSERT
  5
3F2
100
AcDbEntity
  8
0
100
AcDbBlockReference
 62
2
  6
CONTINUOUS
  2
_FILLED
 10
78.4804797799
 20
219.2474456514
 41
3.0
 42
3.0
 43
3.0
 50
13.552373936
  0
ENDBLK
  5
3F3
100
AcDbEntity
  8
0
  6
BYBLOCK
 62
0
100
AcDbBlockEnd
  0
BLOCK
  5
3F4
100
AcDbEntity
  8
0
100
AcDbBlockBegin
  2
*T1
 70
1
 10
0.0
 20
0.0
  3
*T1
  1

  0
LINE
  5
3F5
100
AcDbEntity
  8
0
100
AcDbLine
 62
2
  6
CONTINUOUS
 10
0.0
 20
0.0
 11
176.0
 21
0.0
  0
LINE
  5
3F6
100
AcDbEntity
  8
0
100
AcDbLine
 62
2
  6
CONTINUOUS
 10
0.0
 20
0.0
 11
0.0
 21
53.0
  0
LINE
  5
3F7
100
AcDbEntity
  8
0
100
AcDbLine
 62
2
  6
CONTINUOUS
 10
36.0
 20
5.0
 11
176.0
 21
5.0
  0
LINE
  5
3F8
100
AcDbEntity
  8
0
100
AcDbLine
 62
2
  6
CONTINUOUS
 10
144.0
 20
10.0
 11
176.0
 21
10.0
  0
LINE
  5
3F9
100
AcDbEntity
  8
0
100
AcDbLine
 62
2
  6
CONTINUOUS
 10
144.0
 20
15.0
 11
176.0
 21
15.0
  0
LINE
  5
3FA
100
AcDbEntity
  8
0
100
AcDbLine
 62
2
  6
CONTINUOUS
 10
0.0
 20
20.0
 11
176.0
 21
20.0
  0
LINE
  5
3FB
100
AcDbEntity
  8
0
100
AcDbLine
 62
2
  6
CONTINUOUS
 10
14.0
 20
25.0
 11
176.0
 21
25.0
  0
LINE
  5
3FC
100
AcDbEntity
  8
0
100
AcDbLine
 62
2
  6
CONTINUOUS
 10
0.0
 20
30.0
 11
176.0
 21
30.0
  0
LINE
  5
3FD
100
AcDbEntity
  8
0
100
AcDbLine
 62
2
  6
CONTINUOUS
 10
36.0
 20
38.0
 11
176.0
 21
38.0
  0
LINE
  5
3FE
100
AcDbEntity
  8
0
100
AcDbLine
 62
2
  6
CONTINUOUS
 10
0.0
 20
43.0
 11
176.0
 21
43.0
  0
LINE
  5
3FF
100
AcDbEntity
  8
0
100
AcDbLine
 62
2
  6
CONTINUOUS
 10
0.0
 20
48.0
 11
176.0
 21
48.0
  0
LINE
  5
400
100
AcDbEntity
  8
0
100
AcDbLine
 62
2
  6
CONTINUOUS
 10
0.0
 20
53.0
 11
176.0
 21
53.0
  0
LINE
  5
401
100
AcDbEntity
  8
0
100
AcDbLine
 62
2
  6
CONTINUOUS
 10
14.0
 20
20.0
 11
14.0
 21
30.0
  0
LINE
  5
402
100
AcDbEntity
  8
0
100
AcDbLine
 62
2
  6
CONTINUOUS
 10
36.0
 20
0.0
 11
36.0
 21
43.0
  0
LINE
  5
403
100
AcDbEntity
  8
0
100
AcDbLine
 62
2
  6
CONTINUOUS
 10
72.0
 20
0.0
 11
72.0
 21
5.0
  0
LINE
  5
404
100
AcDbEntity
  8
0
100
AcDbLine
 62
2
  6
CONTINUOUS
 10
72.0
 20
20.0
 11
72.0
 21
30.0
  0
LINE
  5
405
100
AcDbEntity
  8
0
100
AcDbLine
 62
2
  6
CONTINUOUS
 10
108.0
 20
20.0
 11
108.0
 21
53.0
  0
LINE
  5
406
100
AcDbEntity
  8
0
100
AcDbLine
 62
2
  6
CONTINUOUS
 10
144.0
 20
0.0
 11
144.0
 21
53.0
  0
LINE
  5
407
100
AcDbEntity
  8
0
100
AcDbLine
 62
2
  6
CONTINUOUS
 10
160.0
 20
10.0
 11
160.0
 21
30.0
  0
LINE
  5
408
100
AcDbEntity
  8
0
100
AcDbLine
 62
2
  6
CONTINUOUS
 10
176.0
 20
0.0
 11
176.0
 21
53.0
  0
MTEXT
  5
409
100
AcDbEntity
  8
0
100
AcDbMText
 62
7
  6
CONTINUOUS
  7
STANDARD
 71
1
 72
1
 10
37.2
 20
4.0
 30
0.0
 11
1.0
 21
0.0
 31
0.0
 44
0.9
  1
Drawing code
 40
3.0
 41
57.6
  0
MTEXT
  5
40A
100
AcDbEntity
  8
0
100
AcDbMText
 62
2
  6
CONTINUOUS
  7
STANDARD
 71
2
 72
1
 10
108.0
 20
3.9
 30
0.0
 11
1.0
 21
0.0
 31
0.0
 44
0.9
  1
IG_001_P_002
 40
2.8
 41
53.76
  0
MTEXT
  5
40B
100
AcDbEntity
  8
0
100
AcDbMText
 62
2
  6
CONTINUOUS
  7
STANDARD
 71
2
 72
1
 10
160.0
 20
3.9
 30
0.0
 11
1.0
 21
0.0
 31
0.0
 44
0.9
  1
30-May-16
 40
2.8
 41
40.32
  0
MTEXT
  5
40C
100
AcDbEntity
  8
0
100
AcDbMText
 62
2
  6
CONTINUOUS
  7
STANDARD
 71
2
 72
1
 10
90.0
 20
11.875
 30
0.0
 11
1.0
 21
0.0
 31
0.0
 44
0.9
  1
Tool Base
 40
3.0
 41
43.2
  0
MTEXT
  5
40D
100
AcDbEntity
  8
0
100
AcDbMText
 62
7
  6
CONTINUOUS
  7
STANDARD
 71
2
 72
1
 10
160.0
 20
9.0
 30
0.0
 11
1.0
 21
0.0
 31
0.0
 44
0.9
  1
Date
 40
3.0
 41
19.2
  0
MTEXT
  5
40E
100
AcDbEntity
  8
0
100
AcDbMText
 62
2
  6
CONTINUOUS
  7
STANDARD
 71
2
 72
1
 10
152.0
 20
14.0
 30
0.0
 11
1.0
 21
0.0
 31
0.0
 44
0.9
  1
1:1
 40
3.0
 41
14.4
  0
MTEXT
  5
40F
100
AcDbEntity
  8
0
100
AcDbMText
 62
2
  6
CONTINUOUS
  7
STANDARD
 71
2
 72
1
 10
168.0
 20
13.8
 30
0.0
 11
1.0
 21
0.0
 31
0.0
 44
0.9
  1
1\H3.0;/\H2.8;1
 40
2.8
 41
13.76
  0
MTEXT
  5
410
100
AcDbEntity
  8
0
100
AcDbMText
 62
7
  6
CONTINUOUS
  7
STANDARD
 71
1
 72
1
 10
37.2
 20
19.0
 30
0.0
 11
1.0
 21
0.0
 31
0.0
 44
0.9
  1
Description
 40
3.0
 41
52.8
  0
MTEXT
  5
411
100
AcDbEntity
  8
0
100
AcDbMText
 62
7
  6
CONTINUOUS
  7
STANDARD
 71
2
 72
1
 10
152.0
 20
19.0
 30
0.0
 11
1.0
 21
0.0
 31
0.0
 44
0.9
  1
Scale
 40
3.0
 41
24.0
  0
MTEXT
  5
412
100
AcDbEntity
  8
0
100
AcDbMText
 62
7
  6
CONTINUOUS
  7
STANDARD
 71
2
 72
1
 10
168.0
 20
19.0
 30
0.0
 11
1.0
 21
0.0
 31
0.0
 44
0.9
  1
Sheet
 40
3.0
 41
24.0
  0
MTEXT
  5
413
100
AcDbEntity
  8
0
100
AcDbMText
 62
2
  6
CONTINUOUS
  7
STANDARD
 71
2
 72
1
 10
25.0
 20
23.9
 30
0.0
 11
1.0
 21
0.0
 31
0.0
 44
0.9
  1
E. Massa
 40
2.8
 41
35.84
  0
MTEXT
  5
414
100
AcDbEntity
  8
0
100
AcDbMText
 62
2
  6
CONTINUOUS
  7
STANDARD
 71
2
 72
1
 10
54.0
 20
23.9
 30
0.0
 11
1.0
 21
0.0
 31
0.0
 44
0.9
  1
E. Massa
 40
2.8
 41
35.84
  0
MTEXT
  5
415
100
AcDbEntity
  8
0
100
AcDbMText
 62
2
  6
CONTINUOUS
  7
STANDARD
 71
2
 72
1
 10
90.0
 20
23.9
 30
0.0
 11
1.0
 21
0.0
 31
0.0
 44
0.9
  1
Ing. D. Torazza
 40
2.8
 41
67.2
  0
MTEXT
  5
416
100
AcDbEntity
  8
0
100
AcDbMText
 62
2
  6
CONTINUOUS
  7
STANDARD
 71
2
 72
1
 10
168.0
 20
23.9
 30
0.0
 11
1.0
 21
0.0
 31
0.0
 44
0.9
  1
0
 40
2.8
 41
4.48
  0
MTEXT
  5
417
100
AcDbEntity
  8
0
100
AcDbMText
 62
7
  6
CONTINUOUS
  7
STANDARD
 71
2
 72
1
 10
25.0
 20
29.0
 30
0.0
 11
1.0
 21
0.0
 31
0.0
 44
0.9
  1
Issued
 40
3.0
 41
28.8
  0
MTEXT
  5
418
100
AcDbEntity
  8
0
100
AcDbMText
 62
7
  6
CONTINUOUS
  7
STANDARD
 71
2
 72
1
 10
54.0
 20
29.0
 30
0.0
 11
1.0
 21
0.0
 31
0.0
 44
0.9
  1
Drawn
 40
3.0
 41
24.0
  0
MTEXT
  5
419
100
AcDbEntity
  8
0
100
AcDbMText
 62
7
  6
CONTINUOUS
  7
STANDARD
 71
2
 72
1
 10
90.0
 20
29.0
 30
0.0
 11
1.0
 21
0.0
 31
0.0
 44
0.9
  1
Checked
 40
3.0
 41
33.6
  0
MTEXT
  5
41A
100
AcDbEntity
  8
0
100
AcDbMText
 62
7
  6
CONTINUOUS
  7
STANDARD
 71
2
 72
1
 10
126.0
 20
29.0
 30
0.0
 11
1.0
 21
0.0
 31
0.0
 44
0.9
  1
Approved
 40
3.0
 41
38.4
  0
MTEXT
  5
41B
100
AcDbEntity
  8
0
100
AcDbMText
 62
7
  6
CONTINUOUS
  7
TEXTSTYLE_3
 71
2
 72
1
 10
152.0
 20
29.0
 30
0.0
 11
1.0
 21
0.0
 31
0.0
 44
0.9
  1
Mass Kg
 40
3.0
 41
31.5
  0
MTEXT
  5
41C
100
AcDbEntity
  8
0
100
AcDbMText
 62
7
  6
CONTINUOUS
  7
STANDARD
 71
2
 72
1
 10
168.0
 20
28.9
 30
0.0
 11
1.0
 21
0.0
 31
0.0
 44
0.9
  1
Rev.
 40
2.8
 41
17.92
  0
MTEXT
  5
41D
100
AcDbEntity
  8
0
100
AcDbMText
 62
7
  6
CONTINUOUS
  7
TEXTSTYLE_3
 71
2
 72
1
 10
18.0
 20
39.625
 30
0.0
 11
1.0
 21
0.0
 31
0.0
 44
0.9
  1
Tolerances according to\P\H3.0;{\W0.8;UNI ISO 8015}
 40
2.0
 41
69.0
  0
MTEXT
  5
41E
100
AcDbEntity
  8
0
100
AcDbMText
 62
2
  6
CONTINUOUS
  7
TEXTSTYLE_3
 71
2
 72
1
 10
72.0
 20
37.125
 30
0.0
 11
1.0
 21
0.0
 31
0.0
 44
0.9
  1
Dimensional Tolerance class - m\PGeometric Tolerance class - K
 40
2.5
 41
116.25
  0
MTEXT
  5
41F
100
AcDbEntity
  8
0
100
AcDbMText
 62
7
  6
CONTINUOUS
  7
TEXTSTYLE_4
 71
2
 72
1
 10
126.0
 20
35.1
 30
0.0
 11
1.0
 21
0.0
 31
0.0
 44
0.9
  1
Nut screw 6H-screw 6g
 40
2.2
 41
71.148
  0
MTEXT
  5
420
100
AcDbEntity
  8
0
100
AcDbMText
 62
2
  6
CONTINUOUS
  7
TEXTSTYLE_5
 71
1
 72
1
 10
157.8819160348
 20
36.7687071561
 30
0.0
 11
1.0
 21
0.0
 31
0.0
 44
0.9
  1
1.6
 40
2.0002349559
 41
7.2008458411
  0
MTEXT
  5
421
100
AcDbEntity
  8
0
100
AcDbMText
 62
7
  6
CONTINUOUS
  7
TEXTSTYLE_6
 71
2
 72
1
 10
72.0
 20
41.75
 30
0.0
 11
1.0
 21
0.0
 31
0.0
 44
0.9
  1
General tolerances UNI EN 22768-1 / 22768-2
 40
2.5
 41
139.75
  0
MTEXT
  5
422
100
AcDbEntity
  8
0
100
AcDbMText
 62
7
  6
CONTINUOUS
  7
STANDARD
 71
2
 72
1
 10
126.0
 20
41.6
 30
0.0
 11
1.0
 21
0.0
 31
0.0
 44
0.9
  1
Metric threads ISO
 40
2.2
 41
63.36
  0
MTEXT
  5
423
100
AcDbEntity
  8
0
100
AcDbMText
 62
7
  6
CONTINUOUS
  7
STANDARD
 71
2
 72
1
 10
160.0
 20
41.6
 30
0.0
 11
1.0
 21
0.0
 31
0.0
 44
0.9
  1
Roughness
 40
2.2
 41
31.68
  0
MTEXT
  5
424
100
AcDbEntity
  8
0
100
AcDbMText
 62
2
  6
CONTINUOUS
  7
TEXTSTYLE_7
 71
1
 72
1
 10
1.2
 20
46.9
 30
0.0
 11
1.0
 21
0.0
 31
0.0
 44
0.9
  1
Treatment: 
 40
2.8
 41
43.12
  0
MTEXT
  5
425
100
AcDbEntity
  8
0
100
AcDbMText
 62
2
  6
CONTINUOUS
  7
STANDARD
 71
2
 72
1
 10
126.0
 20
46.75
 30
0.0
 11
1.0
 21
0.0
 31
0.0
 44
0.9
  1
R=
 40
2.5
 41
8.0
  0
MTEXT
  5
426
100
AcDbEntity
  8
0
100
AcDbMText
 62
2
  6
CONTINUOUS
  7
STANDARD
 71
2
 72
1
 10
160.0
 20
46.75
 30
0.0
 11
1.0
 21
0.0
 31
0.0
 44
0.9
  1
 x 45
 40
2.5
 41
24.0
  0
MTEXT
  5
427
100
AcDbEntity
  8
0
100
AcDbMText
 62
2
  6
CONTINUOUS
  7
TEXTSTYLE_7
 71
1
 72
1
 10
1.2
 20
51.9
 30
0.0
 11
1.0
 21
0.0
 31
0.0
 44
0.9
  1
Material: AL6061
 40
2.8
 41
62.72
  0
MTEXT
  5
428
100
AcDbEntity
  8
0
100
AcDbMText
 62
7
  6
CONTINUOUS
  7
STANDARD
 71
2
 72
1
 10
126.0
 20
51.6
 30
0.0
 11
1.0
 21
0.0
 31
0.0
 44
0.9
  1
Undim. Rounds
 40
2.2
 41
45.76
  0
MTEXT
  5
429
100
AcDbEntity
  8
0
100
AcDbMText
 62
7
  6
CONTINUOUS
  7
STANDARD
 71
2
 72
1
 10
160.0
 20
51.6
 30
0.0
 11
1.0
 21
0.0
 31
0.0
 44
0.9
  1
Undim. Chamfers
 40
2.2
 41
52.8
  0
ENDBLK
  5
42A
100
AcDbEntity
  8
0
  6
BYBLOCK
 62
0
100
AcDbBlockEnd
  0
ENDSEC
  0
SECTION
  2
ENTITIES
  0
MTEXT
  5
42B
100
AcDbEntity
  8
0
100
AcDbMText
 62
7
  6
CONTINUOUS
  7
STANDARD
 71
1
 72
1
 10
13.5
 20
108.2
 30
0.0
 11
0.0
 21
1.0
 31
0.0
 44
0.9
  1
10
 40
3.0
 41
4.8
  0
MTEXT
  5
42C
100
AcDbEntity
  8
0
100
AcDbMText
 62
7
  6
CONTINUOUS
  7
STANDARD
 71
1
 72
1
 10
13.5
 20
98.95
 30
0.0
 11
0.0
 21
1.0
 31
0.0
 44
0.9
  1
9
 40
3.0
 41
2.4
  0
MTEXT
  5
42D
100
AcDbEntity
  8
0
100
AcDbMText
 62
7
  6
CONTINUOUS
  7
STANDARD
 71
1
 72
1
 10
13.5
 20
88.95
 30
0.0
 11
0.0
 21
1.0
 31
0.0
 44
0.9
  1
8
 40
3.0
 41
2.4
  0
MTEXT
  5
42E
100
AcDbEntity
  8
0
100
AcDbMText
 62
7
  6
CONTINUOUS
  7
STANDARD
 71
1
 72
1
 10
13.5
 20
78.95
 30
0.0
 11
0.0
 21
1.0
 31
0.0
 44
0.9
  1
7
 40
3.0
 41
2.4
  0
MTEXT
  5
42F
100
AcDbEntity
  8
0
100
AcDbMText
 62
7
  6
CONTINUOUS
  7
STANDARD
 71
1
 72
1
 10
13.5
 20
68.95
 30
0.0
 11
0.0
 21
1.0
 31
0.0
 44
0.9
  1
6
 40
3.0
 41
2.4
  0
MTEXT
  5
430
100
AcDbEntity
  8
0
100
AcDbMText
 62
7
  6
CONTINUOUS
  7
STANDARD
 71
1
 72
1
 10
13.5
 20
58.95
 30
0.0
 11
0.0
 21
1.0
 31
0.0
 44
0.9
  1
5
 40
3.0
 41
2.4
  0
MTEXT
  5
431
100
AcDbEntity
  8
0
100
AcDbMText
 62
7
  6
CONTINUOUS
  7
STANDARD
 71
1
 72
1
 10
13.5
 20
48.95
 30
0.0
 11
0.0
 21
1.0
 31
0.0
 44
0.9
  1
4
 40
3.0
 41
2.4
  0
MTEXT
  5
432
100
AcDbEntity
  8
0
100
AcDbMText
 62
7
  6
CONTINUOUS
  7
STANDARD
 71
1
 72
1
 10
13.5
 20
39.0
 30
0.0
 11
0.0
 21
1.0
 31
0.0
 44
0.9
  1
3
 40
3.0
 41
2.4
  0
MTEXT
  5
433
100
AcDbEntity
  8
0
100
AcDbMText
 62
7
  6
CONTINUOUS
  7
STANDARD
 71
1
 72
1
 10
13.5
 20
29.0
 30
0.0
 11
0.0
 21
1.0
 31
0.0
 44
0.9
  1
2
 40
3.0
 41
2.4
  0
MTEXT
  5
434
100
AcDbEntity
  8
0
100
AcDbMText
 62
7
  6
CONTINUOUS
  7
STANDARD
 71
1
 72
1
 10
13.5
 20
19.5
 30
0.0
 11
0.0
 21
1.0
 31
0.0
 44
0.9
  1
1
 40
3.0
 41
2.4
  0
MTEXT
  5
435
100
AcDbEntity
  8
0
100
AcDbMText
 62
7
  6
CONTINUOUS
  7
STANDARD
 71
1
 72
1
 10
13.5
 20
9.25
 30
0.0
 11
0.0
 21
1.0
 31
0.0
 44
0.9
  1
0
 40
3.0
 41
2.4
  0
MTEXT
  5
436
100
AcDbEntity
  8
0
100
AcDbMText
 62
7
  6
CONTINUOUS
  7
STANDARD
 71
1
 72
1
 10
44.7857142857
 20
291.0
 30
0.0
 11
1.0
 21
0.0
 31
0.0
 44
0.9
  1
1
 40
3.0
 41
2.4
  0
MTEXT
  5
437
100
AcDbEntity
  8
0
100
AcDbMText
 62
7
  6
CONTINUOUS
  7
STANDARD
 71
1
 72
1
 10
20.2142857143
 20
260.1
 30
0.0
 11
1.0
 21
0.0
 31
0.0
 44
0.9
  1
A
 40
3.0
 41
2.4
  0
MTEXT
  5
438
100
AcDbEntity
  8
0
100
AcDbMText
 62
7
  6
CONTINUOUS
  7
STANDARD
 71
1
 72
1
 10
19.9285714286
 20
203.4
 30
0.0
 11
1.0
 21
0.0
 31
0.0
 44
0.9
  1
B
 40
3.0
 41
2.4
  0
MTEXT
  5
439
100
AcDbEntity
  8
0
100
AcDbMText
 62
7
  6
CONTINUOUS
  7
STANDARD
 71
1
 72
1
 10
20.0
 20
146.65
 30
0.0
 11
1.0
 21
0.0
 31
0.0
 44
0.9
  1
C
 40
3.0
 41
2.4
  0
MTEXT
  5
43A
100
AcDbEntity
  8
0
100
AcDbMText
 62
7
  6
CONTINUOUS
  7
STANDARD
 71
1
 72
1
 10
19.9285714286
 20
89.9
 30
0.0
 11
1.0
 21
0.0
 31
0.0
 44
0.9
  1
D
 40
3.0
 41
2.4
  0
MTEXT
  5
43B
100
AcDbEntity
  8
0
100
AcDbMText
 62
7
  6
CONTINUOUS
  7
STANDARD
 71
1
 72
1
 10
88.5714285714
 20
291.0
 30
0.0
 11
1.0
 21
0.0
 31
0.0
 44
0.9
  1
2
 40
3.0
 41
2.4
  0
MTEXT
  5
43C
100
AcDbEntity
  8
0
100
AcDbMText
 62
7
  6
CONTINUOUS
  7
STANDARD
 71
1
 72
1
 10
132.5714285714
 20
291.0
 30
0.0
 11
1.0
 21
0.0
 31
0.0
 44
0.9
  1
3
 40
3.0
 41
2.4
  0
MTEXT
  5
43D
100
AcDbEntity
  8
0
100
AcDbMText
 62
7
  6
CONTINUOUS
  7
STANDARD
 71
1
 72
1
 10
176.5
 20
291.0
 30
0.0
 11
1.0
 21
0.0
 31
0.0
 44
0.9
  1
4
 40
3.0
 41
2.4
  0
INSERT
  5
43E
100
AcDbEntity
  8
0
100
AcDbBlockReference
 62
2
  6
CONTINUOUS
  2
HEAD_LOGO_BL0
 10
43.9182032745
 20
19.9624904882
  0
DIMENSION
  5
43F
100
AcDbEntity
  8
0
100
AcDbDimension
 62
2
  6
CONTINUOUS
  2
*D0
 10
122.5449951365
 20
210.0673731609
 11
148.2494230656
 21
192.7832211251
 70
163
 71
1
 42
60.0
  1
%%c<>
  3
DIMSTYLE_1
100
AcDbDiametricDimension
 15
84.0978045947
 25
256.1305204638
1001
ACAD
1000
DSTYLE
1002
{
1070
73
1070
1
1070
74
1070
1
1002
}
  0
DIMENSION
  5
440
100
AcDbEntity
  8
0
100
AcDbDimension
 62
2
  6
CONTINUOUS
  2
*D1
 10
122.1489285345
 20
249.5465656133
 11
109.8913586418
 21
241.088424329
 70
163
 71
2
 42
50.0
  1
%%c<>
  3
DIMSTYLE_1
100
AcDbDiametricDimension
 15
84.4938711967
 25
216.6513280113
1001
ACAD
1000
DSTYLE
1002
{
1070
73
1070
1
1070
74
1070
1
1002
}
  0
DIMENSION
  5
441
100
AcDbEntity
  8
0
100
AcDbDimension
 62
2
  6
CONTINUOUS
  2
*D2
 10
53.3385049096
 20
149.7118598743
 11
53.3385049096
 21
164.7118603357
 70
160
 71
2
 42
30.0
  3
DIMSTYLE_2
100
AcDbAlignedDimension
 13
74.436258882
 23
179.7118598743
 14
74.3609127462
 24
149.7118598743
 50
270.0
100
AcDbRotatedDimension
  0
DIMENSION
  5
442
100
AcDbEntity
  8
0
100
AcDbDimension
 62
2
  6
CONTINUOUS
  2
*D3
 10
92.4193403519
 20
171.7118598743
 11
92.4193403519
 21
175.7118613192
 70
160
 71
2
 42
8.0
  3
DIMSTYLE_2
100
AcDbAlignedDimension
 13
98.3213998656
 23
179.7118598743
 14
100.4333998656
 24
171.7118598743
 50
270.0
100
AcDbRotatedDimension
  0
DIMENSION
  5
443
100
AcDbEntity
  8
0
100
AcDbDimension
 62
2
  6
CONTINUOUS
  2
*D4
 10
98.3213998656
 20
187.2807986885
 11
103.6213959961
 21
187.2807986885
 70
160
 71
2
 42
10.0
  3
DIMSTYLE_2
100
AcDbAlignedDimension
 13
108.3213998656
 23
177.5998598743
 14
98.3213998656
 24
177.2478598743
 50
180.0
100
AcDbRotatedDimension
  0
DIMENSION
  5
444
100
AcDbEntity
  8
0
100
AcDbDimension
 62
2
  6
CONTINUOUS
  2
*D5
 10
103.3213998656
 20
264.0989468123
 11
141.9637434135
 21
255.4091142618
 70
162
 71
2
 42
2.0943951024
  1
3 x <>
  3
DIMSTYLE_3
100
AcDb2LineAngularDimension
 13
127.4770983428
 23
219.152647794
 14
127.8635217783
 24
218.9295461195
 15
103.3213998656
 25
263.6527434633
 16
141.9637434135
 26
255.4091142618
  0
DIMENSION
  5
445
100
AcDbEntity
  8
0
100
AcDbDimension
 62
2
  6
CONTINUOUS
  2
*D6
 10
81.1151571085
 20
248.4574227332
 11
62.3014058363
 21
257.2182437587
 70
163
 71
3
 42
54.0
  1
%%c<>
  3
DIMSTYLE_1
100
AcDbDiametricDimension
 15
125.5276426227
 25
217.7404708914
1001
ACAD
1000
DSTYLE
1002
{
1070
73
1070
1
1070
74
1070
1
1002
}
  0
DIMENSION
  5
446
100
AcDbEntity
  8
0
100
AcDbDimension
 62
2
  6
CONTINUOUS
  2
*D7
 10
78.4804797799
 20
219.2474456514
 11
51.957912703
 21
218.0450516458
 70
163
 71
3
 42
3.0
  1
M<> (1)
  3
DIMSTYLE_4
100
AcDbDiametricDimension
 15
81.3969481469
 25
219.9504479732
1001
ACAD
1000
DSTYLE
1002
{
1070
73
1070
1
1070
74
1070
1
1002
}
  0
INSERT
  5
447
100
AcDbEntity
  8
0
100
AcDbBlockReference
 62
2
  6
CONTINUOUS
  2
PROJECTION_EUR_BL1
 10
31.0
 20
35.0
  0
INSERT
  5
448
100
AcDbEntity
  8
0
100
AcDbBlockReference
 62
2
  6
CONTINUOUS
  2
ROUGHNESS_BL2
 10
184.850728111
 20
44.2684134612
  0
ACAD_TABLE
  5
449
100
AcDbEntity
  8
0
 62
2
  6
CONTINUOUS
100
AcDbBlockReference
  2
*T1
 10
24.0
 20
10.0
 30
0.0
100
AcDbTable
342
       4AD
343
220
 11
1.0
 21
0.0
 31
0.0
 90
6
 91
10
 92
7
 93
4
 94
0
 95
0
 96
0
 70
1
141
5.0
141
5.0
141
5.0
141
5.0
141
5.0
141
5.0
141
8.0
141
5.0
141
5.0
141
5.0
142
14.0
142
22.0
142
36.0
142
36.0
142
36.0
142
16.0
142
16.0
171
1
172
0
173
0
174
0
175
2
176
4
 91
49
178
0
145
0.0
  7
TEXTSTYLE_5
301
CELL_VALUE
 90
4
  1
1.6
304
ACVALUE_END
170
1
140
2.0002349559
171
1
172
0
173
1
174
0
175
1
176
1
 91
1
178
0
145
0.0
170
1
171
1
172
0
173
0
174
0
175
1
176
1
 91
41
178
0
145
0.0
301
CELL_VALUE
 90
4
  1
Drawing code
304
ACVALUE_END
170
4
140
3.0
 64
7
171
1
172
0
173
0
174
0
175
2
176
1
 91
33
178
0
145
0.0
301
CELL_VALUE
 90
4
  1
IG_001_P_002
304
ACVALUE_END
170
5
140
2.8
171
1
172
0
173
1
174
0
175
1
176
1
 91
1
178
0
145
0.0
170
1
171
1
172
0
173
0
174
0
175
2
176
1
 91
33
178
0
145
0.0
301
CELL_VALUE
 90
4
  1
30-May-16
304
ACVALUE_END
170
5
140
2.8
171
1
172
0
173
1
174
0
175
1
176
1
 91
1
178
0
145
0.0
170
1
171
1
172
0
173
1
174
0
175
1
176
1
 91
1
178
0
145
0.0
170
1
171
1
172
0
173
1
174
0
175
1
176
1
 91
1
178
0
145
0.0
170
1
171
1
172
0
173
0
174
0
175
3
176
2
 91
33
178
0
145
0.0
301
CELL_VALUE
 90
4
  1
Tool Base
304
ACVALUE_END
170
5
140
3.0
171
1
172
0
173
1
174
0
175
1
176
1
 91
1
178
0
145
0.0
170
1
171
1
172
0
173
1
174
0
175
1
176
1
 91
1
178
0
145
0.0
170
1
171
1
172
0
173
0
174
0
175
2
176
1
 91
41
178
0
145
0.0
301
CELL_VALUE
 90
4
  1
Date
304
ACVALUE_END
170
5
140
3.0
 64
7
171
1
172
0
173
1
174
0
175
1
176
1
 91
1
178
0
145
0.0
170
1
171
1
172
0
173
1
174
0
175
1
176
1
 91
1
178
0
145
0.0
170
1
171
1
172
0
173
1
174
0
175
1
176
1
 91
1
178
0
145
0.0
170
1
171
1
172
0
173
1
174
0
175
1
176
1
 91
1
178
0
145
0.0
170
1
171
1
172
0
173
1
174
0
175
1
176
1
 91
1
178
0
145
0.0
170
1
171
1
172
0
173
1
174
0
175
1
176
1
 91
1
178
0
145
0.0
170
1
171
1
172
0
173
0
174
0
175
1
176
1
 91
33
178
0
145
0.0
301
CELL_VALUE
 90
4
  1
1:1
304
ACVALUE_END
170
5
140
3.0
171
1
172
0
173
0
174
0
175
1
176
1
 91
33
178
0
145
0.0
301
CELL_VALUE
 90
4
  1
1\H3.0;/\H2.8;1
304
ACVALUE_END
170
5
140
2.8
171
1
172
0
173
1
174
0
175
1
176
1
 91
1
178
0
145
0.0
170
1
171
1
172
0
173
1
174
0
175
1
176
1
 91
1
178
0
145
0.0
170
1
171
1
172
0
173
0
174
0
175
1
176
1
 91
41
178
0
145
0.0
301
CELL_VALUE
 90
4
  1
Description
304
ACVALUE_END
170
4
140
3.0
 64
7
171
1
172
0
173
0
174
0
175
1
176
1
 91
49
178
0
145
0.0
  7
TEXTSTYLE_5
301
CELL_VALUE
 90
4
  1
1.6
304
ACVALUE_END
170
1
140
2.0002349559
171
1
172
0
173
0
174
0
175
1
176
1
 91
49
178
0
145
0.0
  7
TEXTSTYLE_5
301
CELL_VALUE
 90
4
  1
1.6
304
ACVALUE_END
170
1
140
2.0002349559
171
1
172
0
173
0
174
0
175
1
176
1
 91
41
178
0
145
0.0
301
CELL_VALUE
 90
4
  1
Scale
304
ACVALUE_END
170
5
140
3.0
 64
7
171
1
172
0
173
0
174
0
175
1
176
1
 91
41
178
0
145
0.0
301
CELL_VALUE
 90
4
  1
Sheet
304
ACVALUE_END
170
5
140
3.0
 64
7
171
1
172
0
173
0
174
0
175
1
176
2
 91
49
178
0
145
0.0
  7
TEXTSTYLE_5
301
CELL_VALUE
 90
4
  1
1.6
304
ACVALUE_END
170
1
140
2.0002349559
171
1
172
0
173
0
174
0
175
1
176
1
 91
33
178
0
145
0.0
301
CELL_VALUE
 90
4
  1
E. Massa
304
ACVALUE_END
170
5
140
2.8
171
1
172
0
173
0
174
0
175
1
176
1
 91
33
178
0
145
0.0
301
CELL_VALUE
 90
4
  1
E. Massa
304
ACVALUE_END
170
5
140
2.8
171
1
172
0
173
0
174
0
175
1
176
1
 91
33
178
0
145
0.0
301
CELL_VALUE
 90
4
  1
Ing. D. Torazza
304
ACVALUE_END
170
5
140
2.8
171
1
172
0
173
0
174
0
175
1
176
1
 91
33
178
0
145
0.0
301
CELL_VALUE
 90
4
  1
 
304
ACVALUE_END
170
5
140
3.0
171
1
172
0
173
0
174
0
175
1
176
1
 91
33
178
0
145
0.0
301
CELL_VALUE
 90
4
  1
 
304
ACVALUE_END
170
5
140
3.0
171
1
172
0
173
0
174
0
175
1
176
1
 91
33
178
0
145
0.0
301
CELL_VALUE
 90
4
  1
0
304
ACVALUE_END
170
5
140
2.8
171
1
172
0
173
1
174
0
175
1
176
1
 91
1
178
0
145
0.0
170
1
171
1
172
0
173
0
174
0
175
1
176
1
 91
41
178
0
145
0.0
301
CELL_VALUE
 90
4
  1
Issued
304
ACVALUE_END
170
5
140
3.0
 64
7
171
1
172
0
173
0
174
0
175
1
176
1
 91
41
178
0
145
0.0
301
CELL_VALUE
 90
4
  1
Drawn
304
ACVALUE_END
170
5
140
3.0
 64
7
171
1
172
0
173
0
174
0
175
1
176
1
 91
41
178
0
145
0.0
301
CELL_VALUE
 90
4
  1
Checked
304
ACVALUE_END
170
5
140
3.0
 64
7
171
1
172
0
173
0
174
0
175
1
176
1
 91
41
178
0
145
0.0
301
CELL_VALUE
 90
4
  1
Approved
304
ACVALUE_END
170
5
140
3.0
 64
7
171
1
172
0
173
0
174
0
175
1
176
1
 91
57
178
0
145
0.0
  7
TEXTSTYLE_3
301
CELL_VALUE
 90
4
  1
Mass Kg
304
ACVALUE_END
170
5
140
3.0
 64
7
171
1
172
0
173
0
174
0
175
1
176
1
 91
41
178
0
145
0.0
301
CELL_VALUE
 90
4
  1
Rev.
304
ACVALUE_END
170
5
140
2.8
 64
7
171
1
172
0
173
0
174
0
175
2
176
2
 91
57
178
0
145
0.0
  7
TEXTSTYLE_3
301
CELL_VALUE
 90
4
  1
Tolerances according to\P\H3.0;{\W0.8;UNI ISO 8015}
304
ACVALUE_END
170
5
140
2.0
 64
7
171
1
172
0
173
1
174
0
175
1
176
1
 91
1
178
0
145
0.0
170
1
171
1
172
0
173
0
174
0
175
2
176
1
 91
49
178
0
145
0.0
  7
TEXTSTYLE_3
301
CELL_VALUE
 90
4
  1
Dimensional Tolerance class - m\PGeometric Tolerance class - K
304
ACVALUE_END
170
5
140
2.5
171
1
172
0
173
1
174
0
175
1
176
1
 91
1
178
0
145
0.0
170
1
171
1
172
0
173
0
174
0
175
1
176
1
 91
57
178
0
145
0.0
  7
TEXTSTYLE_4
301
CELL_VALUE
 90
4
  1
Nut screw 6H-screw 6g
304
ACVALUE_END
170
5
140
2.2
 64
7
171
1
172
0
173
0
174
0
175
2
176
1
 91
49
178
0
145
0.0
  7
TEXTSTYLE_5
301
CELL_VALUE
 90
4
  1
1.6
304
ACVALUE_END
170
1
140
2.0002349559
171
1
172
0
173
1
174
0
175
1
176
1
 91
1
178
0
145
0.0
170
1
171
1
172
0
173
1
174
0
175
1
176
1
 91
1
178
0
145
0.0
170
1
171
1
172
0
173
1
174
0
175
1
176
1
 91
1
178
0
145
0.0
170
1
171
1
172
0
173
0
174
0
175
2
176
1
 91
57
178
0
145
0.0
  7
TEXTSTYLE_6
301
CELL_VALUE
 90
4
  1
General tolerances UNI EN 22768-1 / 22768-2
304
ACVALUE_END
170
5
140
2.5
 64
7
171
1
172
0
173
1
174
0
175
1
176
1
 91
1
178
0
145
0.0
170
1
171
1
172
0
173
0
174
0
175
1
176
1
 91
41
178
0
145
0.0
301
CELL_VALUE
 90
4
  1
Metric threads ISO
304
ACVALUE_END
170
5
140
2.2
 64
7
171
1
172
0
173
0
174
0
175
2
176
1
 91
41
178
0
145
0.0
301
CELL_VALUE
 90
4
  1
Roughness
304
ACVALUE_END
170
5
140
2.2
 64
7
171
1
172
0
173
1
174
0
175
1
176
1
 91
1
178
0
145
0.0
170
1
171
1
172
0
173
0
174
0
175
4
176
1
 91
49
178
0
145
0.0
  7
TEXTSTYLE_7
301
CELL_VALUE
 90
4
  1
Treatment: 
304
ACVALUE_END
170
4
140
2.8
171
1
172
0
173
1
174
0
175
1
176
1
 91
1
178
0
145
0.0
170
1
171
1
172
0
173
1
174
0
175
1
176
1
 91
1
178
0
145
0.0
170
1
171
1
172
0
173
1
174
0
175
1
176
1
 91
1
178
0
145
0.0
170
1
171
1
172
0
173
0
174
0
175
1
176
1
 91
33
178
0
145
0.0
301
CELL_VALUE
 90
4
  1
R=
304
ACVALUE_END
170
5
140
2.5
171
1
172
0
173
0
174
0
175
2
176
1
 91
33
178
0
145
0.0
301
CELL_VALUE
 90
4
  1
 x 45
304
ACVALUE_END
170
5
140
2.5
171
1
172
0
173
1
174
0
175
1
176
1
 91
1
178
0
145
0.0
170
1
171
1
172
0
173
0
174
0
175
4
176
1
 91
49
178
0
145
0.0
  7
TEXTSTYLE_7
301
CELL_VALUE
 90
4
  1
Material: AL6061
304
ACVALUE_END
170
4
140
2.8
171
1
172
0
173
1
174
0
175
1
176
1
 91
1
178
0
145
0.0
170
1
171
1
172
0
173
1
174
0
175
1
176
1
 91
1
178
0
145
0.0
170
1
171
1
172
0
173
1
174
0
175
1
176
1
 91
1
178
0
145
0.0
170
1
171
1
172
0
173
0
174
0
175
1
176
1
 91
41
178
0
145
0.0
301
CELL_VALUE
 90
4
  1
Undim. Rounds
304
ACVALUE_END
170
5
140
2.2
 64
7
171
1
172
0
173
0
174
0
175
2
176
1
 91
41
178
0
145
0.0
301
CELL_VALUE
 90
4
  1
Undim. Chamfers
304
ACVALUE_END
170
5
140
2.2
 64
7
171
1
172
0
173
1
174
0
175
1
176
1
 91
1
178
0
145
0.0
170
1
  0
LWPOLYLINE
  5
44A
100
AcDbEntity
  8
0
100
AcDbPolyline
 62
7
  6
CONTINUOUS
 90
2
 70
0
 43
0.1990000095
 10
0.0
 20
0.0
 10
210.0
 20
0.0
  0
LWPOLYLINE
  5
44B
100
AcDbEntity
  8
0
100
AcDbPolyline
 62
7
  6
CONTINUOUS
 90
2
 70
0
 43
0.4999999847
 10
209.5
 20
0.5
 10
200.0
 20
0.5
  0
LWPOLYLINE
  5
44C
100
AcDbEntity
  8
0
100
AcDbPolyline
 62
7
  6
CONTINUOUS
 90
2
 70
0
 43
0.4999999847
 10
0.5
 20
0.5
 10
10.0
 20
0.5
  0
LWPOLYLINE
  5
44D
100
AcDbEntity
  8
0
100
AcDbPolyline
 62
7
  6
CONTINUOUS
 90
2
 70
0
 43
0.4989999962
 10
5.0
 20
5.0
 10
205.0
 20
5.0
  0
LWPOLYLINE
  5
44E
100
AcDbEntity
  8
0
100
AcDbPolyline
 62
7
  6
CONTINUOUS
 90
2
 70
0
 43
0.4989999962
 10
7.0
 20
10.0
 10
12.0
 20
10.0
  0
LWPOLYLINE
  5
44F
100
AcDbEntity
  8
0
100
AcDbPolyline
 62
7
  6
CONTINUOUS
 90
2
 70
0
 43
0.4989999962
 10
24.0
 20
10.0
 10
200.0
 20
10.0
  0
LWPOLYLINE
  5
450
100
AcDbEntity
  8
0
100
AcDbPolyline
 62
7
  6
CONTINUOUS
 90
2
 70
0
 43
0.4989999962
 10
7.0
 20
20.0
 10
12.0
 20
20.0
  0
LWPOLYLINE
  5
451
100
AcDbEntity
  8
0
100
AcDbPolyline
 62
7
  6
CONTINUOUS
 90
2
 70
0
 43
0.4989999962
 10
7.0
 20
30.0
 10
12.0
 20
30.0
  0
LWPOLYLINE
  5
452
100
AcDbEntity
  8
0
100
AcDbPolyline
 62
7
  6
CONTINUOUS
 90
2
 70
0
 43
0.1990000095
 10
0.0
 20
297.0
 10
0.0
 20
0.0
  0
LWPOLYLINE
  5
453
100
AcDbEntity
  8
0
100
AcDbPolyline
 62
7
  6
CONTINUOUS
 90
2
 70
0
 43
0.4999999847
 10
0.5
 20
10.0
 10
0.5
 20
0.5
  0
LWPOLYLINE
  5
454
100
AcDbEntity
  8
0
100
AcDbPolyline
 62
7
  6
CONTINUOUS
 90
2
 70
0
 43
0.4999999847
 10
0.5
 20
287.0
 10
0.5
 20
296.5
  0
LWPOLYLINE
  5
455
100
AcDbEntity
  8
0
100
AcDbPolyline
 62
7
  6
CONTINUOUS
 90
2
 70
0
 43
0.4989999962
 10
5.0
 20
292.0
 10
5.0
 20
5.0
  0
LWPOLYLINE
  5
456
100
AcDbEntity
  8
0
100
AcDbPolyline
 62
7
  6
CONTINUOUS
 90
2
 70
0
 43
0.4989999962
 10
7.0
 20
40.0
 10
12.0
 20
40.0
  0
LWPOLYLINE
  5
457
100
AcDbEntity
  8
0
100
AcDbPolyline
 62
7
  6
CONTINUOUS
 90
2
 70
0
 43
0.4989999962
 10
7.0
 20
50.0
 10
12.0
 20
50.0
  0
LWPOLYLINE
  5
458
100
AcDbEntity
  8
0
100
AcDbPolyline
 62
7
  6
CONTINUOUS
 90
2
 70
0
 43
0.4989999962
 10
12.0
 20
10.0
 10
12.0
 20
110.0
  0
LWPOLYLINE
  5
459
100
AcDbEntity
  8
0
100
AcDbPolyline
 62
7
  6
CONTINUOUS
 90
2
 70
0
 43
0.1990000095
 10
19.0
 20
292.0
 10
19.0
 20
60.0
  0
LINE
  5
45A
100
AcDbEntity
  8
0
100
AcDbLine
 62
7
  6
CONTINUOUS
 10
12.0870879386
 20
62.3340377908
 11
12.0865888041
 21
60.586281902
  0
LWPOLYLINE
  5
45B
100
AcDbEntity
  8
0
100
AcDbPolyline
 62
7
  6
CONTINUOUS
 90
2
 70
0
 43
0.1990000095
 10
24.0
 20
60.0
 10
19.0
 20
60.0
  0
LWPOLYLINE
  5
45C
100
AcDbEntity
  8
0
100
AcDbPolyline
 62
7
  6
CONTINUOUS
 90
2
 70
0
 43
0.4989999962
 10
7.0
 20
60.0
 10
12.0
 20
60.0
  0
LWPOLYLINE
  5
45D
100
AcDbEntity
  8
0
100
AcDbPolyline
 62
7
  6
CONTINUOUS
 90
2
 70
0
 43
0.4989999962
 10
24.0
 20
287.0
 10
24.0
 20
10.0
  0
LWPOLYLINE
  5
45E
100
AcDbEntity
  8
0
100
AcDbPolyline
 62
7
  6
CONTINUOUS
 90
2
 70
0
 43
0.1990000095
 10
24.0
 20
287.0
 10
24.0
 20
292.0
  0
LWPOLYLINE
  5
45F
100
AcDbEntity
  8
0
100
AcDbPolyline
 62
7
  6
CONTINUOUS
 90
2
 70
0
 43
0.4989999962
 10
7.0
 20
70.0
 10
12.0
 20
70.0
  0
LWPOLYLINE
  5
460
100
AcDbEntity
  8
0
100
AcDbPolyline
 62
7
  6
CONTINUOUS
 90
2
 70
0
 43
0.4989999962
 10
7.0
 20
80.0
 10
12.0
 20
80.0
  0
LWPOLYLINE
  5
461
100
AcDbEntity
  8
0
100
AcDbPolyline
 62
7
  6
CONTINUOUS
 90
2
 70
0
 43
0.4989999962
 10
7.0
 20
90.0
 10
12.0
 20
90.0
  0
LWPOLYLINE
  5
462
100
AcDbEntity
  8
0
100
AcDbPolyline
 62
7
  6
CONTINUOUS
 90
2
 70
0
 43
0.4989999962
 10
7.0
 20
100.0
 10
12.0
 20
100.0
  0
LWPOLYLINE
  5
463
100
AcDbEntity
  8
0
100
AcDbPolyline
 62
7
  6
CONTINUOUS
 90
2
 70
0
 43
0.1990000095
 10
68.0
 20
287.0
 10
68.0
 20
292.0
  0
LWPOLYLINE
  5
464
100
AcDbEntity
  8
0
100
AcDbPolyline
 62
7
  6
CONTINUOUS
 90
2
 70
0
 43
0.4989999962
 10
12.0
 20
110.0
 10
7.0
 20
110.0
  0
LWPOLYLINE
  5
465
100
AcDbEntity
  8
0
100
AcDbPolyline
 62
7
  6
CONTINUOUS
 90
2
 70
0
 43
0.1990000095
 10
24.0
 20
116.75
 10
19.0
 20
116.75
  0
LWPOLYLINE
  5
466
100
AcDbEntity
  8
0
100
AcDbPolyline
 62
7
  6
CONTINUOUS
 90
2
 70
0
 43
0.1990000095
 10
112.0
 20
287.0
 10
112.0
 20
292.0
  0
LWPOLYLINE
  5
467
100
AcDbEntity
  8
0
100
AcDbPolyline
 62
7
  6
CONTINUOUS
 90
2
 70
0
 43
0.1990000095
 10
24.0
 20
173.5
 10
19.0
 20
173.5
  0
LWPOLYLINE
  5
468
100
AcDbEntity
  8
0
100
AcDbPolyline
 62
7
  6
CONTINUOUS
 90
2
 70
0
 43
0.1990000095
 10
156.0
 20
287.0
 10
156.0
 20
292.0
  0
LWPOLYLINE
  5
469
100
AcDbEntity
  8
0
100
AcDbPolyline
 62
7
  6
CONTINUOUS
 90
2
 70
0
 43
0.1990000095
 10
24.0
 20
230.25
 10
19.0
 20
230.25
  0
LWPOLYLINE
  5
46A
100
AcDbEntity
  8
0
100
AcDbPolyline
 62
7
  6
CONTINUOUS
 90
2
 70
0
 43
0.4989999962
 10
200.0
 20
10.0
 10
200.0
 20
287.0
  0
LWPOLYLINE
  5
46B
100
AcDbEntity
  8
0
100
AcDbPolyline
 62
7
  6
CONTINUOUS
 90
2
 70
0
 43
0.1990000095
 10
200.0
 20
287.0
 10
200.0
 20
292.0
  0
LWPOLYLINE
  5
46C
100
AcDbEntity
  8
0
100
AcDbPolyline
 62
7
  6
CONTINUOUS
 90
2
 70
0
 43
0.4989999962
 10
205.0
 20
5.0
 10
205.0
 20
292.0
  0
LWPOLYLINE
  5
46D
100
AcDbEntity
  8
0
100
AcDbPolyline
 62
7
  6
CONTINUOUS
 90
2
 70
0
 43
0.4999999847
 10
209.5
 20
10.0
 10
209.5
 20
0.5
  0
LWPOLYLINE
  5
46E
100
AcDbEntity
  8
0
100
AcDbPolyline
 62
7
  6
CONTINUOUS
 90
2
 70
0
 43
0.4999999847
 10
209.5
 20
287.0
 10
209.5
 20
296.5
  0
LWPOLYLINE
  5
46F
100
AcDbEntity
  8
0
100
AcDbPolyline
 62
7
  6
CONTINUOUS
 90
2
 70
0
 43
0.1990000095
 10
210.0
 20
0.0
 10
210.0
 20
297.0
  0
LWPOLYLINE
  5
470
100
AcDbEntity
  8
0
100
AcDbPolyline
 62
7
  6
CONTINUOUS
 90
2
 70
0
 43
0.4989999962
 10
200.0
 20
287.0
 10
24.0
 20
287.0
  0
LWPOLYLINE
  5
471
100
AcDbEntity
  8
0
100
AcDbPolyline
 62
7
  6
CONTINUOUS
 90
2
 70
0
 43
0.1990000095
 10
24.0
 20
287.0
 10
19.0
 20
287.0
  0
LWPOLYLINE
  5
472
100
AcDbEntity
  8
0
100
AcDbPolyline
 62
7
  6
CONTINUOUS
 90
2
 70
0
 43
0.4989999962
 10
205.0
 20
292.0
 10
5.0
 20
292.0
  0
LWPOLYLINE
  5
473
100
AcDbEntity
  8
0
100
AcDbPolyline
 62
7
  6
CONTINUOUS
 90
2
 70
0
 43
0.4999999847
 10
209.5
 20
296.5
 10
200.0
 20
296.5
  0
LWPOLYLINE
  5
474
100
AcDbEntity
  8
0
100
AcDbPolyline
 62
7
  6
CONTINUOUS
 90
2
 70
0
 43
0.4999999847
 10
0.5
 20
296.5
 10
10.0
 20
296.5
  0
LWPOLYLINE
  5
475
100
AcDbEntity
  8
0
100
AcDbPolyline
 62
7
  6
CONTINUOUS
 90
2
 70
0
 43
0.1990000095
 10
210.0
 20
297.0
 10
0.0
 20
297.0
  0
LINE
  5
476
100
AcDbEntity
  8
02___PRT_ALL_AXES
100
AcDbLine
 62
7
  6
CONTINUOUS
 10
73.3213998656
 20
179.7118598743
 11
73.3213998656
 21
149.7118598743
  0
LINE
  5
477
100
AcDbEntity
  8
02___PRT_ALL_AXES
100
AcDbLine
 62
7
  6
CONTINUOUS
 10
133.3213998656
 20
149.7118598743
 11
73.3213998656
 21
149.7118598743
  0
LINE
  5
478
100
AcDbEntity
  8
7_ALL_FEATURES
100
AcDbLine
 62
7
  6
CONTINUOUS
 10
98.3213998656
 20
179.7118598743
 11
98.3213998656
 21
171.7118598743
  0
LINE
  5
479
100
AcDbEntity
  8
7_ALL_FEATURES
100
AcDbLine
 62
7
  6
CONTINUOUS
 10
108.3213998656
 20
179.7118598743
 11
108.3213998656
 21
171.7118598743
  0
LINE
  5
47A
100
AcDbEntity
  8
7_ALL_FEATURES
100
AcDbLine
 62
7
  6
CONTINUOUS
 10
108.3213998656
 20
171.7118598743
 11
98.3213998656
 21
171.7118598743
  0
LINE
  5
47B
100
AcDbEntity
  8
7_ALL_FEATURES
100
AcDbLine
 62
7
  6
CONTINUOUS
 10
133.3213998656
 20
179.7118598743
 11
108.3213998656
 21
179.7118598743
  0
LINE
  5
47C
100
AcDbEntity
  8
02___PRT_ALL_AXES
100
AcDbLine
 62
7
  6
CONTINUOUS
 10
108.3213998656
 20
179.7118598743
 11
98.3213998656
 21
179.7118598743
  0
LINE
  5
47D
100
AcDbEntity
  8
7_ALL_FEATURES
100
AcDbLine
 62
7
  6
CONTINUOUS
 10
98.3213998656
 20
179.7118598743
 11
73.3213998656
 21
179.7118598743
  0
LINE
  5
47E
100
AcDbEntity
  8
02___PRT_ALL_AXES
100
AcDbLine
 62
7
  6
CONTINUOUS
 10
133.3213998656
 20
179.7118598743
 11
133.3213998656
 21
149.7118598743
  0
LINE
  5
47F
100
AcDbEntity
  8
02___PRT_ALL_AXES
100
AcDbLine
 62
7
  6
CONTINUOUS
 10
109.7466366032
 20
88.0485839833
 11
108.5920188884
 21
112.4088933297
  0
LINE
  5
480
100
AcDbEntity
  8
7_ALL_FEATURES
100
AcDbLine
 62
7
  6
CONTINUOUS
 10
119.5297155044
 20
101.7648454812
 11
119.2218174471
 21
108.2609279736
  0
LINE
  5
481
100
AcDbEntity
  8
7_ALL_FEATURES
100
AcDbLine
 62
7
  6
CONTINUOUS
 10
122.277032226
 20
99.3574516452
 11
121.9691341687
 21
105.8535341376
  0
LINE
  5
482
100
AcDbEntity
  8
7_ALL_FEATURES
100
AcDbLine
 62
7
  6
CONTINUOUS
 10
127.936113802
 20
105.1787445121
 11
127.6282157447
 21
111.6748270044
  0
LINE
  5
483
100
AcDbEntity
  8
7_ALL_FEATURES
100
AcDbLine
 62
7
  6
CONTINUOUS
 10
122.277032226
 20
99.3574516452
 11
119.5297155044
 21
101.7648454812
  0
LINE
  5
484
100
AcDbEntity
  8
7_ALL_FEATURES
100
AcDbLine
 62
7
  6
CONTINUOUS
 10
119.2218174471
 20
108.2609279736
 11
121.9691341687
 21
105.8535341376
  0
LINE
  5
485
100
AcDbEntity
  8
7_ALL_FEATURES
100
AcDbLine
 62
7
  6
CONTINUOUS
 10
130.6834305236
 20
102.771350676
 11
127.936113802
 21
105.1787445121
  0
LINE
  5
486
100
AcDbEntity
  8
02___PRT_ALL_AXES
100
AcDbLine
 62
7
  6
CONTINUOUS
 10
169.6793542608
 20
90.8892448517
 11
168.524736546
 21
115.2495541981
  0
LINE
  5
487
100
AcDbEntity
  8
02___PRT_ALL_AXES
100
AcDbLine
 62
7
  6
CENTER
 10
103.3213998656
 20
233.0989468123
 11
103.3213998656
 21
202.0989468123
  0
LINE
  5
488
100
AcDbEntity
  8
02___PRT_ALL_AXES
100
AcDbLine
 62
7
  6
CENTER
 10
103.3213998656
 20
233.0989468123
 11
103.3213998656
 21
264.0989468123
  0
LINE
  5
489
100
AcDbEntity
  8
7_ALL_FEATURES
100
AcDbLine
 62
7
  6
CENTER
 10
79.9387139634
 20
219.5989468123
 11
77.773650454
 21
218.3489468123
  0
LINE
  5
48A
100
AcDbEntity
  8
7_ALL_FEATURES
100
AcDbLine
 62
7
  6
CENTER
 10
79.9387139634
 20
219.5989468123
 11
102.8921811274
 21
232.8511372583
  0
LINE
  5
48B
100
AcDbEntity
  8
02___PRT_ALL_AXES
100
AcDbLine
 62
7
  6
CENTER
 10
103.3213998656
 20
233.0989468123
 11
72.3213998656
 21
233.0989468123
  0
LINE
  5
48C
100
AcDbEntity
  8
02___PRT_ALL_AXES
100
AcDbLine
 62
7
  6
CENTER
 10
103.3213998656
 20
233.0989468123
 11
134.3213998656
 21
233.0989468123
  0
LINE
  5
48D
100
AcDbEntity
  8
7_ALL_FEATURES
100
AcDbLine
 62
7
  6
CENTER
 10
126.7040857678
 20
219.5989468123
 11
103.3502851426
 21
233.0822698899
  0
LINE
  5
48E
100
AcDbEntity
  8
7_ALL_FEATURES
100
AcDbLine
 62
7
  6
CENTER
 10
126.7040857678
 20
219.5989468123
 11
128.8691492772
 21
218.3489468123
  0
CIRCLE
  5
48F
100
AcDbEntity
  8
DEFAULT_3
100
AcDbCircle
 62
2
  6
PHANTOM
 10
103.3213998656
 20
233.0989468123
 40
27.0
  0
CIRCLE
  5
490
100
AcDbEntity
  8
02___PRT_ALL_AXES
100
AcDbCircle
 62
7
  6
CONTINUOUS
 10
103.3213998656
 20
233.0989468123
 40
30.0
  0
ARC
  5
491
100
AcDbEntity
  8
0
100
AcDbCircle
 62
2
  6
CONTINUOUS
 10
103.3213998656
 20
233.0989468123
 40
30.0
100
AcDbArc
 50
306.0364176932
 51
311.6539787481
  0
CIRCLE
  5
492
100
AcDbEntity
  8
02___PRT_ALL_AXES
100
AcDbCircle
 62
7
  6
CONTINUOUS
 10
103.3213998656
 20
233.0989468123
 40
25.0
  0
ARC
  5
493
100
AcDbEntity
  8
0
100
AcDbCircle
 62
2
  6
CONTINUOUS
 10
103.3213998656
 20
233.0989468123
 40
25.0
100
AcDbArc
 50
180.0
 51
225.7141936244
  0
ARC
  5
494
100
AcDbEntity
  8
0
100
AcDbCircle
 62
2
  6
CONTINUOUS
 10
126.7040857678
 20
219.5989468123
 40
1.5
100
AcDbArc
 50
255.0
 51
195.0
  0
ARC
  5
495
100
AcDbEntity
  8
0
100
AcDbCircle
 62
2
  6
CONTINUOUS
 10
79.9387139634
 20
219.5989468123
 40
1.5
100
AcDbArc
 50
255.0
 51
195.0
  0
ARC
  5
496
100
AcDbEntity
  8
0
100
AcDbCircle
 62
2
  6
CONTINUOUS
 10
103.3213998656
 20
260.0989468123
 40
1.5
100
AcDbArc
 50
255.0
 51
195.0
  0
CIRCLE
  5
497
100
AcDbEntity
  8
02___PRT_ALL_AXES
100
AcDbCircle
 62
7
  6
CONTINUOUS
 10
103.3213998656
 20
260.0989468123
 40
1.25
  0
CIRCLE
  5
498
100
AcDbEntity
  8
02___PRT_ALL_AXES
100
AcDbCircle
 62
7
  6
CONTINUOUS
 10
79.9387139634
 20
219.5989468123
 40
1.25
  0
CIRCLE
  5
499
100
AcDbEntity
  8
02___PRT_ALL_AXES
100
AcDbCircle
 62
7
  6
CONTINUOUS
 10
126.7040857678
 20
219.5989468123
 40
1.25
  0
SPLINE
  5
49A
100
AcDbEntity
  8
7_ALL_FEATURES
100
AcDbSpline
 62
7
  6
CONTINUOUS
 70
0
 71
3
 72
15
 73
11
 74
0
 42
0.0000001
 43
0.0000001
 44
0.0000000001
 40
0.0
 40
0.0
 40
0.0
 40
0.0
 40
0.149366198
 40
0.2909640338
 40
0.424636804
 40
0.5507328506
 40
0.6699544505
 40
0.7834491029
 40
0.8928111114
 40
1.0
 40
1.0
 40
1.0
 40
1.0
 10
122.277032226
 20
99.3574516452
 30
0.0
 10
121.6770382616
 20
98.9976204846
 30
0.0
 10
120.5368898613
 20
98.2470469612
 30
0.0
 10
118.9845273658
 20
96.998426927
 30
0.0
 10
117.6505270249
 20
95.668052648
 30
0.0
 10
116.5495748042
 20
94.2694492345
 30
0.0
 10
115.6940170865
 20
92.8162895943
 30
0.0
 10
115.0946261107
 20
91.3230792091
 30
0.0
 10
114.7601107475
 20
89.8064988113
 30
0.0
 10
114.7172803799
 20
88.7868099557
 30
0.0
 10
114.7410575571
 20
88.2853070556
 30
0.0
  0
SPLINE
  5
49B
100
AcDbEntity
  8
7_ALL_FEATURES
100
AcDbSpline
 62
7
  6
CONTINUOUS
 70
0
 71
3
 72
15
 73
11
 74
0
 42
0.0000001
 43
0.0000001
 44
0.0000000001
 40
0.0
 40
0.0
 40
0.0
 40
0.0
 40
0.1024016017
 40
0.2143942451
 40
0.3351398022
 40
0.4630375846
 40
0.5959755566
 40
0.7315158636
 40
0.8670525883
 40
1.0
 40
1.0
 40
1.0
 40
1.0
 10
160.728991176
 20
98.0036619946
 30
0.0
 10
159.9213725155
 20
98.7113547661
 30
0.0
 10
158.0793542923
 20
100.0243878305
 30
0.0
 10
154.9217183764
 20
101.5923369602
 30
0.0
 10
151.3309205818
 20
102.8106835504
 30
0.0
 10
147.4091519469
 20
103.6451937963
 30
0.0
 10
143.267298023
 20
104.0731877703
 30
0.0
 10
139.023592697
 20
104.0822922774
 30
0.0
 10
134.8001234467
 20
103.6725890304
 30
0.0
 10
132.0335501405
 20
103.1188656098
 30
0.0
 10
130.6834305236
 20
102.771350676
 30
0.0
  0
SPLINE
  5
49C
100
AcDbEntity
  8
7_ALL_FEATURES
100
AcDbSpline
 62
7
  6
CONTINUOUS
 70
0
 71
3
 72
12
 73
8
 74
0
 42
0.0000001
 43
0.0000001
 44
0.0000000001
 40
0.0
 40
0.0
 40
0.0
 40
0.0
 40
0.273772686
 40
0.5281903741
 40
0.7679002061
 40
0.884464817
 40
1.0
 40
1.0
 40
1.0
 40
1.0
 10
114.4938005392
 20
79.2272173251
 30
0.0
 10
113.7879151641
 20
79.8457641738
 30
0.0
 10
112.5103802897
 20
81.1426123111
 30
0.0
 10
111.0161660857
 20
83.3283027046
 30
0.0
 10
110.2062567682
 20
85.278818948
 30
0.0
 10
109.8498081625
 20
86.8595454731
 30
0.0
 10
109.7654045793
 20
87.6529505238
 30
0.0
 10
109.7466413043
 20
88.0485842111
 30
0.0
  0
SPLINE
  5
49D
100
AcDbEntity
  8
02___PRT_ALL_AXES
100
AcDbSpline
 62
7
  6
CONTINUOUS
 70
0
 71
3
 72
13
 73
9
 74
0
 42
0.0000001
 43
0.0000001
 44
0.0000000001
 40
0.0
 40
0.0
 40
0.0
 40
0.0
 40
0.2736709705
 40
0.528008645
 40
0.6494440276
 40
0.7679795243
 40
0.8845048273
 40
1.0
 40
1.0
 40
1.0
 40
1.0
 10
163.77757261
 20
124.0709208564
 30
0.0
 10
164.4834419458
 20
123.4523880624
 30
0.0
 10
165.7608122788
 20
122.1561490066
 30
0.0
 10
167.0255352721
 20
120.3047818857
 30
0.0
 10
167.7536187695
 20
118.7707298034
 30
0.0
 10
168.1563779909
 20
117.6136784649
 30
0.0
 10
168.4216670504
 20
116.4385526112
 30
0.0
 10
168.5059456428
 20
115.6451875484
 30
0.0
 10
168.5247078186
 20
115.2495528115
 30
0.0
  0
SPLINE
  5
49E
100
AcDbEntity
  8
02___PRT_ALL_AXES
100
AcDbSpline
 62
7
  6
CONTINUOUS
 70
0
 71
3
 72
15
 73
11
 74
0
 42
0.0000001
 43
0.0000001
 44
0.0000000001
 40
0.0
 40
0.0
 40
0.0
 40
0.0
 40
0.1135619721
 40
0.2344641197
 40
0.3609661785
 40
0.4909779814
 40
0.6222045068
 40
0.7522827644
 40
0.8789140546
 40
1.0
 40
1.0
 40
1.0
 40
1.0
 10
122.0995873784
 20
102.3532343353
 30
0.0
 10
123.174241336
 20
101.8379387873
 30
0.0
 10
125.4707002961
 20
100.9317448208
 30
0.0
 10
129.1419352159
 20
99.9680823411
 30
0.0
 10
133.0656187638
 20
99.3762683548
 30
0.0
 10
137.1361754386
 20
99.1723005158
 30
0.0
 10
141.2448617579
 20
99.3614689041
 30
0.0
 10
145.2816655216
 20
99.9388087548
 30
0.0
 10
149.1377693565
 20
100.8886132998
 30
0.0
 10
151.5876549175
 20
101.7781189443
 30
0.0
 10
152.7533469503
 20
102.2841076145
 30
0.0
  0
SPLINE
  5
49F
100
AcDbEntity
  8
7_ALL_FEATURES
100
AcDbSpline
 62
7
  6
CONTINUOUS
 70
0
 71
3
 72
9
 73
5
 74
0
 42
0.0000001
 43
0.0000001
 44
0.0000000001
 40
0.0
 40
0.0
 40
0.0
 40
0.0
 40
0.4859528359
 40
1.0
 40
1.0
 40
1.0
 40
1.0
 10
121.9691341687
 20
105.8535341376
 30
0.0
 10
122.8561242938
 20
106.3854839655
 30
0.0
 10
124.75012389
 20
107.367781303
 30
0.0
 10
126.7358381694
 20
108.1444304352
 30
0.0
 10
127.7722413707
 20
108.4949347536
 30
0.0
  0
SPLINE
  5
4A0
100
AcDbEntity
  8
02___PRT_ALL_AXES
100
AcDbSpline
 62
7
  6
CONTINUOUS
 70
0
 71
3
 72
25
 73
21
 74
0
 42
0.0000001
 43
0.0000001
 44
0.0000000001
 40
0.0
 40
0.0
 40
0.0
 40
0.0
 40
0.0216750493
 40
0.0436245262
 40
0.0661053501
 40
0.0893438561
 40
0.1387236149
 40
0.1928134442
 40
0.2519166074
 40
0.3158028774
 40
0.3838398102
 40
0.45510445
 40
0.5284756147
 40
0.6027131562
 40
0.676530041
 40
0.7486619326
 40
0.8179375281
 40
0.8833561569
 40
0.944170382
 40
1.0
 40
1.0
 40
1.0
 40
1.0
 10
169.6793255334
 20
90.8892434651
 30
0.0
 10
169.7017522652
 20
90.4163348703
 30
0.0
 10
169.6800659543
 20
89.4600512033
 30
0.0
 10
169.4477883059
 20
88.0306631278
 30
0.0
 10
169.0179248906
 20
86.6120346976
 30
0.0
 10
168.169604258
 20
84.7108206974
 30
0.0
 10
166.5986480746
 20
82.4034151265
 30
0.0
 10
164.0577210868
 20
79.897953331
 30
0.0
 10
160.8923191772
 20
77.6504756799
 30
0.0
 10
157.1838541665
 20
75.7141853314
 30
0.0
 10
153.0261682224
 20
74.1353222711
 30
0.0
 10
148.5253816576
 20
72.9535131056
 30
0.0
 10
143.7970860357
 20
72.1988199697
 30
0.0
 10
138.9632525722
 20
71.8906734389
 30
0.0
 10
134.1487872819
 20
72.0370126704
 30
0.0
 10
129.4779592762
 20
72.6341369818
 30
0.0
 10
125.071042112
 20
73.6666806837
 30
0.0
 10
121.0403335628
 20
75.109249676
 30
0.0
 10
117.4893939834
 20
76.9253590646
 30
0.0
 10
115.4109640543
 20
78.4235335795
 30
0.0
 10
114.4938005392
 20
79.2272173251
 30
0.0
  0
SPLINE
  5
4A1
100
AcDbEntity
  8
02___PRT_ALL_AXES
100
AcDbSpline
 62
7
  6
CONTINUOUS
 70
0
 71
3
 72
25
 73
21
 74
0
 42
0.0000001
 43
0.0000001
 44
0.0000000001
 40
0.0
 40
0.0
 40
0.0
 40
0.0
 40
0.0216750493
 40
0.0436245262
 40
0.0661053501
 40
0.0893438561
 40
0.1387236149
 40
0.1928134442
 40
0.2519166074
 40
0.3158028774
 40
0.3838398102
 40
0.45510445
 40
0.5284756147
 40
0.6027131562
 40
0.676530041
 40
0.7486619326
 40
0.8179375281
 40
0.8833561569
 40
0.944170382
 40
1.0
 40
1.0
 40
1.0
 40
1.0
 10
108.5920476158
 20
112.4088947164
 30
0.0
 10
108.569620884
 20
112.8818033111
 30
0.0
 10
108.5913071949
 20
113.8380869782
 30
0.0
 10
108.8235848433
 20
115.2674750536
 30
0.0
 10
109.2534482586
 20
116.6861034839
 30
0.0
 10
110.1017688912
 20
118.587317484
 30
0.0
 10
111.6727250746
 20
120.894723055
 30
0.0
 10
114.2136520624
 20
123.4001848504
 30
0.0
 10
117.379053972
 20
125.6476625015
 30
0.0
 10
121.0875189827
 20
127.58395285
 30
0.0
 10
125.2452049268
 20
129.1628159103
 30
0.0
 10
129.7459914916
 20
130.3446250759
 30
0.0
 10
134.4742871135
 20
131.0993182117
 30
0.0
 10
139.308120577
 20
131.4074647425
 30
0.0
 10
144.1225858673
 20
131.261125511
 30
0.0
 10
148.793413873
 20
130.6640011996
 30
0.0
 10
153.2003310372
 20
129.6314574978
 30
0.0
 10
157.2310395864
 20
128.1888885054
 30
0.0
 10
160.7819791658
 20
126.3727791168
 30
0.0
 10
162.8604090949
 20
124.874604602
 30
0.0
 10
163.77757261
 20
124.0709208564
 30
0.0
  0
SPLINE
  5
4A2
100
AcDbEntity
  8
02___PRT_ALL_AXES
100
AcDbSpline
 62
7
  6
CONTINUOUS
 70
0
 71
3
 72
12
 73
8
 74
0
 42
0.0000001
 43
0.0000001
 44
0.0000000001
 40
0.0
 40
0.0
 40
0.0
 40
0.0
 40
0.1155360074
 40
0.2321031985
 40
0.4718038125
 40
0.726239695
 40
1.0
 40
1.0
 40
1.0
 40
1.0
 10
164.6849283646
 20
90.6525215703
 30
0.0
 10
164.6693056566
 20
90.9822188518
 30
0.0
 10
164.599042
 20
91.6434107066
 30
0.0
 10
164.3018304889
 20
92.9606257775
 30
0.0
 10
163.6270571142
 20
94.5861364206
 30
0.0
 10
162.3817806074
 20
96.4074836068
 30
0.0
 10
161.3172015871
 20
97.4882302984
 30
0.0
 10
160.728991176
 20
98.0036619946
 30
0.0
  0
SPLINE
  5
4A3
100
AcDbEntity
  8
7_ALL_FEATURES
100
AcDbSpline
 62
7
  6
CONTINUOUS
 70
0
 71
3
 72
15
 73
11
 74
0
 42
0.0000001
 43
0.0000001
 44
0.0000000001
 40
0.0
 40
0.0
 40
0.0
 40
0.0
 40
0.1062286831
 40
0.2147864789
 40
0.3277558713
 40
0.4468014636
 40
0.5730927491
 40
0.7072911835
 40
0.8496642373
 40
1.0
 40
1.0
 40
1.0
 40
1.0
 10
109.7466413043
 20
88.0485842111
 30
0.0
 10
109.7169229256
 20
88.6752121169
 30
0.0
 10
109.7753118774
 20
89.9508050097
 30
0.0
 10
110.2146813411
 20
91.8456839116
 30
0.0
 10
110.9979141969
 20
93.7079345073
 30
0.0
 10
112.1128060494
 20
95.5151658549
 30
0.0
 10
113.5442867462
 20
97.2479443258
 30
0.0
 10
115.2747925335
 20
98.8881707642
 30
0.0
 10
117.2840156971
 20
100.4178981547
 30
0.0
 10
118.7558861995
 20
101.3296584029
 30
0.0
 10
119.5297155044
 20
101.7648454812
 30
0.0
  0
SPLINE
  5
4A4
100
AcDbEntity
  8
7_ALL_FEATURES
100
AcDbSpline
 62
7
  6
CONTINUOUS
 70
0
 71
3
 72
12
 73
8
 74
0
 42
0.0000001
 43
0.0000001
 44
0.0000000001
 40
0.0
 40
0.0
 40
0.0
 40
0.0
 40
0.1155356501
 40
0.2321021093
 40
0.4718057608
 40
0.7262353523
 40
1.0
 40
1.0
 40
1.0
 40
1.0
 10
114.7410575571
 20
88.2853070556
 30
0.0
 10
114.7566890524
 20
87.9556110565
 30
0.0
 10
114.8269588005
 20
87.2944243242
 30
0.0
 10
115.1241302735
 20
85.9771928808
 30
0.0
 10
115.7989422314
 20
84.3517068302
 30
0.0
 10
117.0441895692
 20
82.5303396743
 30
0.0
 10
118.1087796683
 20
81.4496069565
 30
0.0
 10
118.696999688
 20
80.9341668405
 30
0.0
  0
SPLINE
  5
4A5
100
AcDbEntity
  8
02___PRT_ALL_AXES
100
AcDbSpline
 62
7
  6
CONTINUOUS
 70
0
 71
3
 72
13
 73
9
 74
0
 42
0.0000001
 43
0.0000001
 44
0.0000000001
 40
0.0
 40
0.0
 40
0.0
 40
0.0
 40
0.2736709705
 40
0.528008645
 40
0.6494440276
 40
0.7679795243
 40
0.8845048273
 40
1.0
 40
1.0
 40
1.0
 40
1.0
 10
164.9321903248
 20
99.71061151
 30
0.0
 10
165.6380596606
 20
99.092078716
 30
0.0
 10
166.9154299936
 20
97.7958396602
 30
0.0
 10
168.1801529869
 20
95.9444725393
 30
0.0
 10
168.9082364843
 20
94.410420457
 30
0.0
 10
169.3109957057
 20
93.2533691185
 30
0.0
 10
169.5762847652
 20
92.0782432648
 30
0.0
 10
169.6605633576
 20
91.284878202
 30
0.0
 10
169.6793255334
 20
90.8892434651
 30
0.0
  0
SPLINE
  5
4A6
100
AcDbEntity
  8
7_ALL_FEATURES
100
AcDbSpline
 62
7
  6
CONTINUOUS
 70
0
 71
3
 72
9
 73
5
 74
0
 42
0.0000001
 43
0.0000001
 44
0.0000000001
 40
0.0
 40
0.0
 40
0.0
 40
0.0
 40
0.4851417623
 40
1.0
 40
1.0
 40
1.0
 40
1.0
 10
119.2218174471
 20
108.2609279736
 30
0.0
 10
120.5029609528
 20
108.9814190376
 30
0.0
 10
123.2490839884
 20
110.2831881221
 30
0.0
 10
126.1262909958
 20
111.2536012796
 30
0.0
 10
127.6282157447
 20
111.6748270044
 30
0.0
  0
SPLINE
  5
4A7
100
AcDbEntity
  8
02___PRT_ALL_AXES
100
AcDbSpline
 62
7
  6
CONTINUOUS
 70
0
 71
3
 72
25
 73
21
 74
0
 42
0.0000001
 43
0.0000001
 44
0.0000000001
 40
0.0
 40
0.0
 40
0.0
 40
0.0
 40
0.0558291785
 40
0.1166440047
 40
0.1820624261
 40
0.2513381094
 40
0.323470046
 40
0.397286993
 40
0.4715245777
 40
0.5448957471
 40
0.6161603429
 40
0.6841971895
 40
0.7480833568
 40
0.8071864438
 40
0.8612762488
 40
0.9106560141
 40
0.9338947388
 40
0.9563754564
 40
0.9783249424
 40
1.0
 40
1.0
 40
1.0
 40
1.0
 10
118.696999688
 20
80.9341668405
 30
0.0
 10
119.4612964068
 20
80.2644358279
 30
0.0
 10
121.1933259451
 20
79.0159606271
 30
0.0
 10
124.1524309346
 20
77.5025174625
 30
0.0
 10
127.5113656428
 20
76.300382017
 30
0.0
 10
131.1837919177
 20
75.4399211688
 30
0.0
 10
135.0761517428
 20
74.9423188935
 30
0.0
 10
139.0882078118
 20
74.8203703005
 30
0.0
 10
143.1164032374
 20
75.0771629535
 30
0.0
 10
147.0566477867
 20
75.7060792206
 30
0.0
 10
150.8072985303
 20
76.6909260206
 30
0.0
 10
154.2720288082
 20
78.0066505487
 30
0.0
 10
157.3624099161
 20
79.6202284145
 30
0.0
 10
160.0002329937
 20
81.4931286652
 30
0.0
 10
162.1176916836
 20
83.5810023149
 30
0.0
 10
163.426771895
 20
85.5038613986
 30
0.0
 10
164.1338166307
 20
87.0881648127
 30
0.0
 10
164.4919390707
 20
88.2703845531
 30
0.0
 10
164.6855996079
 20
89.461524141
 30
0.0
 10
164.7036023816
 20
90.2584303159
 30
0.0
 10
164.6849283646
 20
90.6525215703
 30
0.0
  0
SPLINE
  5
4A8
100
AcDbEntity
  8
7_ALL_FEATURES
100
AcDbSpline
 62
7
  6
CONTINUOUS
 70
0
 71
3
 72
15
 73
11
 74
0
 42
0.0000001
 43
0.0000001
 44
0.0000000001
 40
0.0
 40
0.0
 40
0.0
 40
0.0
 40
0.1320504481
 40
0.267199786
 40
0.4027515236
 40
0.5359642809
 40
0.6642531999
 40
0.7853660958
 40
0.8975857262
 40
1.0
 40
1.0
 40
1.0
 40
1.0
 10
127.936113802
 20
105.1787445121
 30
0.0
 10
129.577292985
 20
105.6390251562
 30
0.0
 10
132.9534040616
 20
106.3822798674
 30
0.0
 10
138.1275975894
 20
106.9677057281
 30
0.0
 10
143.3500865116
 20
107.0270815384
 30
0.0
 10
148.4632271893
 20
106.5581966154
 30
0.0
 10
153.3138459024
 20
105.5752134527
 30
0.0
 10
157.758058684
 20
104.1062381592
 30
0.0
 10
161.6632485574
 20
102.1945677654
 30
0.0
 10
163.937940903
 20
100.5818433962
 30
0.0
 10
164.9321903248
 20
99.71061151
 30
0.0
  0
ENDSEC
  0
SECTION
  2
OBJECTS
  0
DICTIONARY
  5
C
100
AcDbDictionary
280
0
281
1
  3
ACAD_GROUP
350
D
  3
ACAD_MLINESTYLE
350
17
  3
ACAD_LAYOUT
350
1A
  3
ACAD_PLOTSETTINGS
350
19
  3
ACAD_PLOTSTYLENAME
350
E
  3
ACAD_TABLESTYLE
350
       4A9
  0
DICTIONARY
  5
D
102
{ACAD_REACTORS
330
C
102
}
100
AcDbDictionary
280
0
281
1
  0
ACDBDICTIONARYWDFLT
  5
E
102
{ACAD_REACTORS
330
C
102
}
100
AcDbDictionary
281
1
  3
Normal
350
F
100
AcDbDictionaryWithDefault
340
F
  0
DICTIONARY
  5
17
102
{ACAD_REACTORS
330
C
102
}
100
AcDbDictionary
280
0
281
1
  3
Standard
350
18
  0
DICTIONARY
  5
4A9
330
C
100
AcDbDictionary
281
1
  3
Standard
350
       4AC
  3
Standard1
350
       4AD
  0
DICTIONARY
  5
19
102
{ACAD_REACTORS
330
C
102
}
100
AcDbDictionary
281
1
  0
DICTIONARY
  5
1A
102
{ACAD_REACTORS
330
C
102
}
100
AcDbDictionary
281
1
  3
Model
350
4AA
  3
Layout1
350
4AB
  0
ACDBPLACEHOLDER
  5
F
102
{ACAD_REACTORS
330
E
102
}
  0
MLINESTYLE
  5
18
102
{ACAD_REACTORS
330
17
102
}
100
AcDbMlineStyle
  2
STANDARD
 70
0
  3

 62
256
 51
90.0
 52
90.0
 71
2
 49
0.5
 62
256
  6
BYLAYER
 49
-0.5
 62
256
  6
BYLAYER
  0
LAYOUT
  5
4AA
102
{ACAD_REACTORS
330
1A
102
}
100
AcDbPlotSettings
  1

  2
none_device
  4

  6

 40
0.0
 41
0.0
 42
0.0
 43
0.0
 44
210.0
 45
297.0
 46
0.0
 47
0.0
 48
0.0
 49
0.0
140
0.0
141
0.0
142
1.0
143
1.0
 70
1024
 72
1
 73
0
 74
0
  7

 75
0
147
1.0
148
0.0
149
0.0
100
AcDbLayout
  1
Model
 70
0
 71
0
 10
0.0
 20
0.0
 11
210.0
 21
297.0
 12
0.0
 22
0.0
 32
0.0
 14
0.0
 24
0.0
 34
0.0
 15
0.0
 25
0.0
 35
0.0
146
0.0
 13
0.0
 23
0.0
 33
0.0
 16
1.0
 26
0.0
 36
0.0
 17
0.0
 27
1.0
 37
0.0
 76
0
330
212
345
0
346
0
  0
LAYOUT
  5
4AB
102
{ACAD_REACTORS
330
1A
102
}
100
AcDbPlotSettings
  1

  2
none_device
  4

  6

 40
0.0
 41
0.0
 42
0.0
 43
0.0
 44
210.0
 45
297.0
 46
0.0
 47
0.0
 48
0.0
 49
0.0
140
0.0
141
0.0
142
1.0
143
1.0
 70
0
 72
1
 73
0
 74
0
  7

 75
0
147
1.0
148
0.0
149
0.0
100
AcDbLayout
  1
Layout1
 70
0
 71
1
 10
0.0
 20
0.0
 11
210.0
 21
297.0
 12
0.0
 22
0.0
 32
0.0
 14
0.0
 24
0.0
 34
0.0
 15
0.0
 25
0.0
 35
0.0
146
0.0
 13
0.0
 23
0.0
 33
0.0
 16
1.0
 26
0.0
 36
0.0
 17
0.0
 27
1.0
 37
0.0
 76
0
330
213
345
0
346
0
  0
TABLESTYLE
  5
4AC
102
{ACAD_REACTORS
330
4A9
102
}
330
4A9
100
AcDbTableStyle
  3
Standard
 70
0
 71
0
 40
0.06
 41
0.06
280
1
281
1
  7
Standard
140
0.18
170
1
 62
0
 63
7
283
0
  7
Standard
140
0.18
170
1
 62
0
 63
7
283
0
  7
Standard
140
0.18
170
1
 62
0
 63
7
283
0
  0
TABLESTYLE
  5
4AD
102
{ACAD_REACTORS
330
4A9
330
449
102
}
330
4A9
100
AcDbTableStyle
  3
Standard1
 70
1
 71
0
 40
0.06
 41
0.06
280
1
281
1
  7
Standard
140
0.18
170
1
 62
0
 63
7
283
0
  7
Standard
140
0.18
170
1
 62
0
 63
7
283
0
  7
Standard
140
0.18
170
1
 62
0
 63
7
283
0
  0
ENDSEC
  0
EOF
